%TF.GenerationSoftware,Altium Limited,Altium Designer,23.1.1 (15)*%
G04 Layer_Physical_Order=1*
G04 Layer_Color=255*
%FSLAX45Y45*%
%MOMM*%
%TF.SameCoordinates,F9E8136A-E86D-4813-A5E9-63B8E08E304F*%
%TF.FilePolarity,Positive*%
%TF.FileFunction,Copper,L1,Top,Signal*%
%TF.Part,Single*%
G01*
G75*
%TA.AperFunction,SMDPad,CuDef*%
G04:AMPARAMS|DCode=10|XSize=0.9mm|YSize=1.75mm|CornerRadius=0.0495mm|HoleSize=0mm|Usage=FLASHONLY|Rotation=90.000|XOffset=0mm|YOffset=0mm|HoleType=Round|Shape=RoundedRectangle|*
%AMROUNDEDRECTD10*
21,1,0.90000,1.65100,0,0,90.0*
21,1,0.80100,1.75000,0,0,90.0*
1,1,0.09900,0.82550,0.40050*
1,1,0.09900,0.82550,-0.40050*
1,1,0.09900,-0.82550,-0.40050*
1,1,0.09900,-0.82550,0.40050*
%
%ADD10ROUNDEDRECTD10*%
G04:AMPARAMS|DCode=11|XSize=3.2mm|YSize=1.75mm|CornerRadius=0.0525mm|HoleSize=0mm|Usage=FLASHONLY|Rotation=90.000|XOffset=0mm|YOffset=0mm|HoleType=Round|Shape=RoundedRectangle|*
%AMROUNDEDRECTD11*
21,1,3.20000,1.64500,0,0,90.0*
21,1,3.09500,1.75000,0,0,90.0*
1,1,0.10500,0.82250,1.54750*
1,1,0.10500,0.82250,-1.54750*
1,1,0.10500,-0.82250,-1.54750*
1,1,0.10500,-0.82250,1.54750*
%
%ADD11ROUNDEDRECTD11*%
%ADD12R,0.60000X0.40000*%
%ADD13R,1.07000X0.83000*%
%ADD14R,0.75000X0.60000*%
%ADD15R,0.20000X0.77500*%
%ADD16R,0.40000X0.80000*%
%ADD17R,0.80000X0.40000*%
%TA.AperFunction,BGAPad,CuDef*%
%ADD18R,1.20000X1.20000*%
%TA.AperFunction,SMDPad,CuDef*%
%ADD19R,0.80000X0.80000*%
%TA.AperFunction,ConnectorPad*%
%ADD20R,0.70000X1.00000*%
%TA.AperFunction,SMDPad,CuDef*%
%ADD21R,0.30000X1.15000*%
%ADD22R,0.60000X1.15000*%
%ADD23R,2.18000X2.00000*%
%ADD24R,0.83000X1.07000*%
G04:AMPARAMS|DCode=25|XSize=0.6mm|YSize=0.24mm|CornerRadius=0.12mm|HoleSize=0mm|Usage=FLASHONLY|Rotation=180.000|XOffset=0mm|YOffset=0mm|HoleType=Round|Shape=RoundedRectangle|*
%AMROUNDEDRECTD25*
21,1,0.60000,0.00000,0,0,180.0*
21,1,0.36000,0.24000,0,0,180.0*
1,1,0.24000,-0.18000,0.00000*
1,1,0.24000,0.18000,0.00000*
1,1,0.24000,0.18000,0.00000*
1,1,0.24000,-0.18000,0.00000*
%
%ADD25ROUNDEDRECTD25*%
%ADD26R,1.58000X2.85000*%
%ADD27R,0.45000X0.67500*%
%ADD28R,0.61535X0.57247*%
%ADD29R,0.45000X0.45000*%
%ADD30R,1.75000X2.20000*%
%ADD31R,0.72000X0.76000*%
%ADD32R,0.46818X0.47247*%
%ADD33R,0.62000X0.60000*%
%ADD34R,0.47247X0.46818*%
%ADD35R,0.70000X0.65000*%
%ADD36R,0.67248X0.71535*%
%ADD37R,0.57247X0.61535*%
%ADD38R,0.67500X0.45000*%
%ADD39R,0.65000X0.70000*%
G04:AMPARAMS|DCode=40|XSize=0.23mm|YSize=0.7mm|CornerRadius=0.04945mm|HoleSize=0mm|Usage=FLASHONLY|Rotation=0.000|XOffset=0mm|YOffset=0mm|HoleType=Round|Shape=RoundedRectangle|*
%AMROUNDEDRECTD40*
21,1,0.23000,0.60110,0,0,0.0*
21,1,0.13110,0.70000,0,0,0.0*
1,1,0.09890,0.06555,-0.30055*
1,1,0.09890,-0.06555,-0.30055*
1,1,0.09890,-0.06555,0.30055*
1,1,0.09890,0.06555,0.30055*
%
%ADD40ROUNDEDRECTD40*%
G04:AMPARAMS|DCode=41|XSize=1.5mm|YSize=0.9mm|CornerRadius=0.0495mm|HoleSize=0mm|Usage=FLASHONLY|Rotation=0.000|XOffset=0mm|YOffset=0mm|HoleType=Round|Shape=RoundedRectangle|*
%AMROUNDEDRECTD41*
21,1,1.50000,0.80100,0,0,0.0*
21,1,1.40100,0.90000,0,0,0.0*
1,1,0.09900,0.70050,-0.40050*
1,1,0.09900,-0.70050,-0.40050*
1,1,0.09900,-0.70050,0.40050*
1,1,0.09900,0.70050,0.40050*
%
%ADD41ROUNDEDRECTD41*%
%ADD42R,0.40000X0.60000*%
%ADD43R,0.76000X0.72000*%
%TA.AperFunction,Conductor*%
%ADD44C,0.30000*%
%ADD45C,0.20000*%
%ADD46C,0.18000*%
%ADD47C,0.25400*%
%TA.AperFunction,ComponentPad*%
%ADD48C,1.50000*%
%ADD49R,1.50000X1.50000*%
%TA.AperFunction,SMDPad,CuDef*%
%ADD50R,1.20000X1.20000*%
%TA.AperFunction,ComponentPad*%
%ADD51C,0.65000*%
%ADD52R,1.50000X1.50000*%
%TA.AperFunction,ViaPad*%
%ADD53R,2.52400X1.52400*%
%ADD54R,2.52400X1.52400*%
%ADD55C,0.45000*%
%ADD56C,0.50000*%
G36*
X12517500Y3702500D02*
X9131300D01*
Y7404100D01*
X12517500D01*
Y3702500D01*
D02*
G37*
%LPC*%
G36*
X11396500Y7356500D02*
X11278500D01*
Y7208500D01*
X11396500D01*
Y7356500D01*
D02*
G37*
G36*
X11026500D02*
X10908500D01*
Y7208500D01*
X11026500D01*
Y7356500D01*
D02*
G37*
G36*
X10756749Y7226500D02*
X10738251D01*
X10721160Y7219421D01*
X10708079Y7206340D01*
X10701000Y7189250D01*
Y7170751D01*
X10708079Y7153660D01*
X10721160Y7140579D01*
X10738251Y7133500D01*
X10756749D01*
X10773840Y7140579D01*
X10786921Y7153660D01*
X10794000Y7170751D01*
Y7189250D01*
X10786921Y7206340D01*
X10773840Y7219421D01*
X10756749Y7226500D01*
D02*
G37*
G36*
X11715534Y7288000D02*
X11689467D01*
X11664288Y7281253D01*
X11641713Y7268220D01*
X11623281Y7249787D01*
X11610247Y7227213D01*
X11603500Y7202034D01*
Y7175967D01*
X11610247Y7150788D01*
X11623281Y7128213D01*
X11634029Y7117464D01*
X11628769Y7104764D01*
X11235511D01*
X11219249Y7111500D01*
X11200751D01*
X11183660Y7104421D01*
X11170579Y7091340D01*
X11163500Y7074250D01*
Y7055751D01*
X11170579Y7038660D01*
X11183660Y7025579D01*
X11200751Y7018500D01*
X11219249D01*
X11235511Y7025236D01*
X11342620D01*
X11345146Y7012536D01*
X11343660Y7011921D01*
X11330579Y6998840D01*
X11323500Y6981749D01*
Y6963251D01*
X11314621Y6951500D01*
X11303251D01*
X11286160Y6944421D01*
X11273079Y6931340D01*
X11266000Y6914249D01*
Y6895750D01*
X11273079Y6878660D01*
X11286160Y6865579D01*
X11303251Y6858500D01*
X11321750D01*
X11338840Y6865579D01*
X11351921Y6878660D01*
X11359000Y6895750D01*
Y6914249D01*
X11367879Y6926000D01*
X11379250D01*
X11396340Y6933079D01*
X11409421Y6946160D01*
X11416500Y6963250D01*
Y6981749D01*
X11409421Y6998840D01*
X11396340Y7011921D01*
X11394855Y7012536D01*
X11397381Y7025236D01*
X11603500D01*
Y6836000D01*
X11801500D01*
Y7025236D01*
X11852529D01*
X11902283Y6975482D01*
X11896000Y6952034D01*
Y6925967D01*
X11902747Y6900788D01*
X11915780Y6878213D01*
X11934213Y6859781D01*
X11956787Y6846747D01*
X11981966Y6840000D01*
X12008033D01*
X12033212Y6846747D01*
X12055787Y6859781D01*
X12074219Y6878213D01*
X12087253Y6900788D01*
X12087306Y6900986D01*
X12192153D01*
X12203280Y6881713D01*
X12221713Y6863280D01*
X12244287Y6850247D01*
X12269466Y6843500D01*
X12295533D01*
X12320712Y6850247D01*
X12343287Y6863280D01*
X12361719Y6881713D01*
X12374753Y6904287D01*
X12381500Y6929466D01*
Y6955533D01*
X12374753Y6980712D01*
X12361719Y7003287D01*
X12343287Y7021720D01*
X12320712Y7034753D01*
X12295533Y7041500D01*
X12269466D01*
X12244287Y7034753D01*
X12221713Y7021720D01*
X12203280Y7003287D01*
X12190247Y6980712D01*
X12190194Y6980514D01*
X12085347D01*
X12074219Y6999787D01*
X12055787Y7018220D01*
X12033212Y7031253D01*
X12008033Y7038000D01*
X11981966D01*
X11958518Y7031717D01*
X11897117Y7093117D01*
X11884217Y7101737D01*
X11869000Y7104764D01*
X11776231D01*
X11770971Y7117464D01*
X11781720Y7128213D01*
X11794753Y7150788D01*
X11801500Y7175967D01*
Y7202034D01*
X11794753Y7227213D01*
X11781720Y7249787D01*
X11763287Y7268220D01*
X11740713Y7281253D01*
X11715534Y7288000D01*
D02*
G37*
G36*
X12295533Y7295500D02*
X12269466D01*
X12244287Y7288753D01*
X12221713Y7275720D01*
X12203280Y7257287D01*
X12190247Y7234712D01*
X12183500Y7209533D01*
Y7183466D01*
X12190247Y7158287D01*
X12203280Y7135713D01*
X12221713Y7117280D01*
X12244287Y7104247D01*
X12269466Y7097500D01*
X12295533D01*
X12320712Y7104247D01*
X12343287Y7117280D01*
X12361719Y7135713D01*
X12374753Y7158287D01*
X12381500Y7183466D01*
Y7209533D01*
X12374753Y7234712D01*
X12361719Y7257287D01*
X12343287Y7275720D01*
X12320712Y7288753D01*
X12295533Y7295500D01*
D02*
G37*
G36*
X12008033Y7292000D02*
X11981966D01*
X11956787Y7285253D01*
X11934213Y7272220D01*
X11915780Y7253787D01*
X11902747Y7231213D01*
X11896000Y7206034D01*
Y7179967D01*
X11902747Y7154788D01*
X11915780Y7132213D01*
X11934213Y7113781D01*
X11956787Y7100747D01*
X11981966Y7094000D01*
X12008033D01*
X12033212Y7100747D01*
X12055787Y7113781D01*
X12074219Y7132213D01*
X12087253Y7154788D01*
X12094000Y7179967D01*
Y7206034D01*
X12087253Y7231213D01*
X12074219Y7253787D01*
X12055787Y7272220D01*
X12033212Y7285253D01*
X12008033Y7292000D01*
D02*
G37*
G36*
X10666400Y7178400D02*
X10544701D01*
Y7065700D01*
X10666400D01*
Y7178400D01*
D02*
G37*
G36*
X9644400D02*
X9522700D01*
Y7065700D01*
X9644400D01*
Y7178400D01*
D02*
G37*
G36*
X9497300D02*
X9375600D01*
Y7065700D01*
X9497300D01*
Y7178400D01*
D02*
G37*
G36*
X10519301D02*
X10397600D01*
Y7065700D01*
X10519301D01*
Y7178400D01*
D02*
G37*
G36*
X10941750Y7074000D02*
X10923251D01*
X10906160Y7066921D01*
X10893079Y7053840D01*
X10886000Y7036749D01*
Y7018251D01*
X10893079Y7001160D01*
X10906160Y6988079D01*
X10923251Y6981000D01*
X10941750D01*
X10958840Y6988079D01*
X10971921Y7001160D01*
X10979000Y7018251D01*
Y7036749D01*
X10971921Y7053840D01*
X10958840Y7066921D01*
X10941750Y7074000D01*
D02*
G37*
G36*
X10666400Y7040300D02*
X10544701D01*
Y6927600D01*
X10666400D01*
Y7040300D01*
D02*
G37*
G36*
X10519301D02*
X10397600D01*
Y6927600D01*
X10519301D01*
Y7040300D01*
D02*
G37*
G36*
X9644400D02*
X9522700D01*
Y6927600D01*
X9644400D01*
Y7040300D01*
D02*
G37*
G36*
X9497300D02*
X9375600D01*
Y6927600D01*
X9497300D01*
Y7040300D01*
D02*
G37*
G36*
X10941750Y6916500D02*
X10923251D01*
X10906160Y6909421D01*
X10893079Y6896340D01*
X10886000Y6879249D01*
Y6860751D01*
X10892707Y6844559D01*
X10890728Y6839709D01*
X10886378Y6832401D01*
X10880780Y6832400D01*
X10842700D01*
Y6781701D01*
X10891400D01*
Y6821506D01*
X10891400Y6827379D01*
X10903931Y6832809D01*
X10906160Y6830579D01*
X10923251Y6823500D01*
X10941750D01*
X10958840Y6830579D01*
X10971921Y6843660D01*
X10979000Y6860751D01*
Y6879249D01*
X10971921Y6896340D01*
X10958840Y6909421D01*
X10941750Y6916500D01*
D02*
G37*
G36*
X10817300Y6832400D02*
X10768600D01*
X10766400Y6821400D01*
X10722700D01*
Y6766000D01*
X10697300D01*
Y6821400D01*
X10653600D01*
Y6785400D01*
X10544701D01*
Y6660000D01*
X10519301D01*
Y6785400D01*
X10397600D01*
Y6697603D01*
X10396400Y6685400D01*
X10372395D01*
X10365339Y6695960D01*
X10366500Y6698762D01*
Y6721239D01*
X10357898Y6742005D01*
X10342005Y6757898D01*
X10321238Y6766500D01*
X10298761D01*
X10277995Y6757898D01*
X10262102Y6742005D01*
X10253500Y6721239D01*
Y6698762D01*
X10247291Y6689470D01*
X10235000D01*
X10225636Y6687607D01*
X10222892Y6689170D01*
X10220760Y6704999D01*
X10221921Y6706160D01*
X10229000Y6723251D01*
Y6741750D01*
X10221921Y6758840D01*
X10208840Y6771921D01*
X10191749Y6779000D01*
X10173251D01*
X10156160Y6771921D01*
X10143079Y6758840D01*
X10136780Y6743632D01*
X10128603Y6740072D01*
X10123530Y6738921D01*
X10107268Y6745657D01*
X10069888Y6783037D01*
X10056988Y6791656D01*
X10041771Y6794683D01*
X9971359D01*
X9956141Y6791656D01*
X9943241Y6783037D01*
X9910733Y6750529D01*
X9904817Y6750577D01*
X9896529Y6752714D01*
X9891921Y6763840D01*
X9878840Y6776921D01*
X9861749Y6784000D01*
X9843251D01*
X9826160Y6776921D01*
X9813079Y6763840D01*
X9806000Y6746750D01*
Y6728251D01*
X9813079Y6711160D01*
X9814584Y6709655D01*
Y6694623D01*
X9807000Y6684470D01*
X9794010D01*
X9786954Y6695030D01*
X9788500Y6698762D01*
Y6721239D01*
X9779898Y6742005D01*
X9764005Y6757898D01*
X9743239Y6766500D01*
X9720762D01*
X9699995Y6757898D01*
X9684102Y6742005D01*
X9675500Y6721239D01*
Y6698762D01*
X9676661Y6695960D01*
X9669605Y6685400D01*
X9645600Y6685400D01*
X9644400Y6697603D01*
Y6785400D01*
X9522700D01*
Y6660000D01*
Y6534600D01*
X9632900D01*
X9644400Y6534600D01*
X9645600Y6522397D01*
Y6519600D01*
X9688299D01*
Y6602501D01*
X9713699D01*
Y6519600D01*
X9716946D01*
X9725861Y6510555D01*
X9725532Y6487855D01*
X9725565Y6487677D01*
X9725530Y6487500D01*
X9726427Y6482990D01*
X9727259Y6478464D01*
X9727357Y6478313D01*
X9727393Y6478136D01*
X9729948Y6474311D01*
X9732448Y6470450D01*
X9732597Y6470347D01*
X9732697Y6470197D01*
X9817938Y6384956D01*
X9813077Y6373223D01*
X9807100D01*
Y6317057D01*
X9794400D01*
Y6304357D01*
X9740377D01*
Y6260889D01*
X9741777D01*
Y6194429D01*
X9730043Y6189569D01*
X9721618Y6197994D01*
X9710372Y6205509D01*
X9697106Y6208147D01*
X9693378D01*
X9682624Y6218901D01*
Y6264189D01*
X9684024D01*
Y6312656D01*
X9625000D01*
Y6325356D01*
D01*
Y6312656D01*
X9565976D01*
Y6264189D01*
X9567376D01*
Y6169876D01*
X9633598D01*
X9654506Y6148969D01*
X9655859Y6142166D01*
X9655180Y6141149D01*
X9652933Y6129855D01*
Y6107166D01*
X9594000D01*
Y6134000D01*
X9426000D01*
Y6073348D01*
X9425334Y6070000D01*
Y6036859D01*
X9415487Y6027013D01*
X9407973Y6015766D01*
X9405334Y6002500D01*
Y5996500D01*
X9383500D01*
Y5878500D01*
Y5783500D01*
X9400236D01*
Y5745774D01*
X9403263Y5730556D01*
X9411883Y5717656D01*
X9429456Y5700082D01*
X9442357Y5691463D01*
X9457574Y5688436D01*
X9475936D01*
Y5524470D01*
X9227500D01*
X9218135Y5522607D01*
X9210197Y5517303D01*
X9187696Y5494802D01*
X9182392Y5486864D01*
X9180529Y5477499D01*
Y5295000D01*
X9182392Y5285636D01*
X9187696Y5277697D01*
X9215197Y5250197D01*
X9223135Y5244892D01*
X9232500Y5243030D01*
X9265529D01*
X9265530Y4369108D01*
X9262500Y4357500D01*
D01*
X9253799Y4348405D01*
X9252697Y4347303D01*
X9247392Y4339364D01*
X9245881Y4331764D01*
X9222574D01*
X9207357Y4328737D01*
X9194456Y4320118D01*
X9176883Y4302544D01*
X9168263Y4289643D01*
X9165236Y4274426D01*
Y4100000D01*
X9168263Y4084783D01*
X9176883Y4071883D01*
X9326883Y3921882D01*
X9339783Y3913263D01*
X9355000Y3910236D01*
X9850000D01*
X9865217Y3913263D01*
X9878117Y3921883D01*
X9912617Y3956382D01*
X9915101Y3960100D01*
X9939801D01*
Y4023500D01*
X9952501D01*
Y4036200D01*
X10013900D01*
Y4082633D01*
X10014470Y4085500D01*
Y4101098D01*
X10027170Y4108408D01*
X10033500Y4104731D01*
Y4081000D01*
X10036075D01*
X10047376Y4077623D01*
Y3972377D01*
X10242623D01*
Y3985236D01*
X10284926D01*
X10300143Y3988263D01*
X10313044Y3996883D01*
X10328571Y4012410D01*
X10343844Y4009722D01*
X10345197Y4007697D01*
X10472697Y3880197D01*
X10480636Y3874892D01*
X10490000Y3873030D01*
X10859864D01*
X10972697Y3760197D01*
X10980636Y3754892D01*
X10990000Y3753030D01*
X12100000D01*
X12109364Y3754892D01*
X12117303Y3760197D01*
X12167303Y3810197D01*
X12172607Y3818136D01*
X12174470Y3827500D01*
Y3860640D01*
X12183500Y3869500D01*
X12381500D01*
Y4067500D01*
X12264411D01*
X12261917Y4080037D01*
X12253298Y4092937D01*
X12218824Y4127411D01*
X12218970Y4135530D01*
X12221185Y4138776D01*
X12230475Y4136604D01*
X12243747Y4128942D01*
X12269282Y4122100D01*
X12269800D01*
Y4209800D01*
X12182100D01*
Y4209282D01*
X12188942Y4183747D01*
X12202160Y4160853D01*
X12212205Y4150807D01*
X12211740Y4144805D01*
X12208104Y4136949D01*
X12206617Y4136632D01*
X12205100Y4137645D01*
X12202717Y4139237D01*
X12187500Y4142264D01*
X12106232D01*
X12100971Y4154964D01*
X12107719Y4161713D01*
X12120753Y4184287D01*
X12127500Y4209466D01*
Y4235533D01*
X12120753Y4260712D01*
X12107719Y4283287D01*
X12089287Y4301719D01*
X12066712Y4314753D01*
X12041533Y4321500D01*
X12041059D01*
X12033657Y4332579D01*
X11996911Y4369324D01*
X12003486Y4380710D01*
X12015466Y4377500D01*
X12041533D01*
X12066712Y4384247D01*
X12089287Y4397280D01*
X12107719Y4415713D01*
X12120753Y4438287D01*
X12127500Y4463466D01*
Y4489533D01*
X12120753Y4514712D01*
X12114793Y4525036D01*
X12122125Y4537736D01*
X12165029D01*
X12189783Y4512982D01*
X12183500Y4489533D01*
Y4463466D01*
X12190247Y4438287D01*
X12203280Y4415713D01*
X12221713Y4397280D01*
X12244287Y4384247D01*
X12269466Y4377500D01*
X12295533D01*
X12320712Y4384247D01*
X12343287Y4397280D01*
X12361719Y4415713D01*
X12374753Y4438287D01*
X12381500Y4463466D01*
Y4489533D01*
X12374753Y4514712D01*
X12361719Y4537287D01*
X12343287Y4555719D01*
X12320712Y4568753D01*
X12295533Y4575500D01*
X12269466D01*
X12246018Y4569217D01*
X12209617Y4605617D01*
X12196717Y4614237D01*
X12181500Y4617264D01*
X12081150D01*
X12044660Y4653754D01*
X12048506Y4667868D01*
X12066712Y4672747D01*
X12089287Y4685780D01*
X12107719Y4704213D01*
X12120753Y4726787D01*
X12127500Y4751966D01*
Y4778033D01*
X12120753Y4803212D01*
X12107719Y4825787D01*
X12089287Y4844219D01*
X12066712Y4857253D01*
X12041533Y4864000D01*
X12015466D01*
X11990287Y4857253D01*
X11967713Y4844219D01*
X11949280Y4825787D01*
X11936247Y4803212D01*
X11931368Y4785006D01*
X11919630Y4781807D01*
X11909764Y4790200D01*
Y4980000D01*
X11906737Y4995217D01*
X11898117Y5008117D01*
X11835617Y5070617D01*
X11822717Y5079237D01*
X11807500Y5082264D01*
X11766500D01*
Y5168500D01*
Y5285265D01*
X11783106Y5301871D01*
X11783872Y5302383D01*
X11923244Y5441755D01*
X11931864Y5454655D01*
X11933126Y5461000D01*
X12119000D01*
Y5659000D01*
X11934891D01*
Y5704246D01*
X11940310Y5712356D01*
X11941730Y5719496D01*
X11973235Y5751000D01*
X12115000D01*
Y5949000D01*
X11917000D01*
Y5807235D01*
X11899624Y5789859D01*
X11887891Y5794719D01*
Y6081656D01*
X11906471Y6100236D01*
X11921000D01*
Y6041000D01*
X12119000D01*
Y6239000D01*
X11921000D01*
Y6179764D01*
X11890000D01*
X11874783Y6176737D01*
X11861883Y6168117D01*
X11820010Y6126244D01*
X11811390Y6113344D01*
X11808363Y6098127D01*
Y5524343D01*
X11778233Y5494213D01*
X11766500Y5499073D01*
Y5593500D01*
Y5678500D01*
Y5763500D01*
Y5848500D01*
Y5933500D01*
Y6018500D01*
Y6103500D01*
Y6188500D01*
Y6272100D01*
X11767900D01*
Y6324800D01*
X11702500D01*
Y6337500D01*
X11689800D01*
Y6402900D01*
X11637100D01*
Y6401500D01*
X10707900D01*
Y6402900D01*
X10675199D01*
Y6337501D01*
Y6272100D01*
X10707900D01*
Y6273500D01*
X11225927D01*
X11230787Y6261767D01*
X10960784Y5991764D01*
X10833012D01*
X10816750Y5998500D01*
X10798251D01*
X10781160Y5991421D01*
X10768079Y5978340D01*
X10761760Y5963084D01*
X10749965Y5955691D01*
X10748400Y5956737D01*
X10733183Y5959764D01*
X10602312D01*
X10586049Y5966500D01*
X10567551D01*
X10550460Y5959421D01*
X10537379Y5946340D01*
X10530300Y5929250D01*
Y5910751D01*
X10537379Y5893660D01*
X10550460Y5880579D01*
X10567551Y5873500D01*
X10586049D01*
X10602312Y5880236D01*
X10716712D01*
X10730566Y5866382D01*
X10743466Y5857763D01*
X10752100Y5856045D01*
Y5815200D01*
X10837500D01*
Y5789800D01*
X10752100D01*
Y5717100D01*
Y5650200D01*
X10837500D01*
Y5637500D01*
X10850200D01*
Y5552100D01*
X10917100D01*
Y5485200D01*
X11002500D01*
Y5472500D01*
X11015200D01*
Y5387100D01*
X11154800D01*
Y5472500D01*
X11167500D01*
Y5485200D01*
X11252900D01*
Y5552100D01*
Y5624800D01*
X11167500D01*
Y5650200D01*
X11252900D01*
Y5717100D01*
Y5789800D01*
X11167500D01*
Y5802500D01*
X11154800D01*
Y5887900D01*
X11070983D01*
X11066122Y5899633D01*
X11315046Y6148557D01*
X11327502Y6146079D01*
X11327713Y6145571D01*
X11340794Y6132490D01*
X11357884Y6125411D01*
X11376383D01*
X11393474Y6132490D01*
X11406555Y6145571D01*
X11413634Y6162662D01*
Y6181160D01*
X11406555Y6198251D01*
X11393474Y6211332D01*
X11392966Y6211542D01*
X11390488Y6223998D01*
X11422617Y6256128D01*
X11423130Y6256896D01*
X11439735Y6273500D01*
X11495334D01*
Y6111095D01*
X11490579Y6106340D01*
X11483500Y6089249D01*
Y6070751D01*
X11490579Y6053660D01*
X11503660Y6040579D01*
X11520751Y6033500D01*
X11527983D01*
X11539527Y6030203D01*
X11540236Y6021767D01*
Y5805512D01*
X11533500Y5789250D01*
Y5770751D01*
X11540579Y5753660D01*
X11553660Y5740579D01*
X11568447Y5734455D01*
X11574543Y5721767D01*
X11573500Y5719249D01*
Y5700751D01*
X11580579Y5683660D01*
X11593660Y5670579D01*
X11610750Y5663500D01*
X11624472D01*
X11626998Y5650800D01*
X11623306Y5649271D01*
X11610225Y5636190D01*
X11603146Y5619100D01*
Y5600601D01*
X11610225Y5583510D01*
X11623306Y5570429D01*
X11638500Y5564136D01*
Y5508500D01*
Y5423500D01*
Y5338500D01*
Y5263096D01*
X11630499Y5257750D01*
X11612001D01*
X11594910Y5250671D01*
X11581830Y5237590D01*
X11570832Y5235403D01*
X11448117Y5358117D01*
X11435217Y5366737D01*
X11420000Y5369764D01*
X10755511D01*
X10739249Y5376500D01*
X10720750D01*
X10703660Y5369421D01*
X10690579Y5356340D01*
X10683500Y5339249D01*
Y5320751D01*
X10690579Y5303660D01*
X10698632Y5295607D01*
X10688983Y5285958D01*
X10681904Y5268868D01*
Y5250369D01*
X10688983Y5233278D01*
X10702063Y5220197D01*
X10719154Y5213118D01*
X10737653D01*
X10754744Y5220197D01*
X10767824Y5233278D01*
X10774903Y5250369D01*
Y5268868D01*
X10771313Y5277536D01*
X10779799Y5290236D01*
X11403529D01*
X11575093Y5118672D01*
X11581829Y5102410D01*
X11594910Y5089329D01*
X11612000Y5082250D01*
X11630499D01*
X11638500Y5071818D01*
Y5002900D01*
X11637100D01*
Y5001500D01*
X10623106D01*
X10617303Y5007303D01*
X10609364Y5012607D01*
X10600000Y5014470D01*
X10540000D01*
X10530636Y5012607D01*
X10522697Y5007303D01*
X10519755Y5002900D01*
X10505200D01*
Y4937500D01*
Y4872100D01*
X10510772D01*
X10514624Y4861600D01*
X10509151Y4848900D01*
X10460699D01*
Y4770000D01*
X10447999D01*
Y4757300D01*
X10381100D01*
Y4691100D01*
X10426600D01*
Y4652700D01*
X10490000D01*
Y4640000D01*
X10502700D01*
Y4578600D01*
X10518369D01*
X10525730Y4567300D01*
X10526330Y4564279D01*
X10526501Y4561202D01*
X10527254Y4559638D01*
X10527592Y4557936D01*
X10529304Y4555374D01*
X10530639Y4552597D01*
X10531932Y4551440D01*
X10532897Y4549997D01*
X10552697Y4530197D01*
X10560635Y4524892D01*
X10570000Y4523030D01*
X10767500Y4523030D01*
X10776864Y4524892D01*
X10784803Y4530197D01*
X10807303Y4552697D01*
X10812608Y4560636D01*
X10814470Y4570000D01*
Y4590850D01*
X10816500Y4595751D01*
Y4614249D01*
X10814470Y4619150D01*
Y4668350D01*
X10816500Y4673250D01*
X10816500Y4691100D01*
X10826833Y4691100D01*
X10869300D01*
Y4770000D01*
X10894700D01*
Y4691100D01*
X10948900D01*
Y4776802D01*
X10961000Y4778250D01*
X10968079Y4761160D01*
X10981160Y4748079D01*
X10998251Y4741000D01*
X11016749D01*
X11033840Y4748079D01*
X11043750Y4757989D01*
X11053660Y4748079D01*
X11070751Y4741000D01*
X11089249D01*
X11106340Y4748079D01*
X11117591Y4759330D01*
X11125000Y4760374D01*
X11132409Y4759330D01*
X11143660Y4748079D01*
X11160751Y4741000D01*
X11179249D01*
X11196340Y4748079D01*
X11204203Y4755942D01*
X11212500Y4759747D01*
X11220797Y4755942D01*
X11228660Y4748079D01*
X11245751Y4741000D01*
X11264250D01*
X11281340Y4748079D01*
X11294421Y4761160D01*
X11301500Y4778251D01*
Y4796749D01*
X11296014Y4809994D01*
Y4842765D01*
X11308714Y4848025D01*
X11316160Y4840579D01*
X11333251Y4833500D01*
X11351749D01*
X11368840Y4840579D01*
X11375036Y4846775D01*
X11387736Y4841514D01*
Y4727500D01*
X11390763Y4712283D01*
X11399383Y4699383D01*
X11747255Y4351510D01*
X11739155Y4341650D01*
X11705200D01*
Y4282500D01*
X11679800D01*
Y4341650D01*
X11644600D01*
Y4340250D01*
X11553501D01*
X11553500Y4340250D01*
Y4340250D01*
X11544344Y4347762D01*
X11514803Y4377303D01*
X11506865Y4382607D01*
X11497500Y4384470D01*
X11412818D01*
X11411864Y4385108D01*
X11411357Y4385209D01*
X11410915Y4385478D01*
X11406693Y4386136D01*
X11402500Y4386970D01*
X11401992Y4386869D01*
X11401481Y4386949D01*
X11341993Y4384470D01*
X11325000D01*
X11324999Y4384470D01*
X11195000D01*
X11194138Y4384298D01*
X11193266Y4384408D01*
X11189483Y4383372D01*
X11185636Y4382607D01*
X11184905Y4382118D01*
X11184057Y4381886D01*
X11180958Y4379481D01*
X11177697Y4377302D01*
X11177209Y4376572D01*
X11176514Y4376032D01*
X11174571Y4372624D01*
X11172663Y4369769D01*
X11072297Y4269403D01*
X10806575Y4267631D01*
X10805997Y4267512D01*
X10805412Y4267596D01*
X10801340Y4266554D01*
X10797224Y4265706D01*
X10796735Y4265375D01*
X10796163Y4265228D01*
X10795280Y4264567D01*
X10728694D01*
X10721340Y4271921D01*
X10704249Y4279000D01*
X10685751D01*
X10668660Y4271921D01*
X10655579Y4258840D01*
X10648500Y4241749D01*
Y4223251D01*
X10655579Y4206160D01*
X10667989Y4193750D01*
X10655579Y4181340D01*
X10648500Y4164249D01*
Y4145751D01*
X10655579Y4128660D01*
X10668660Y4115579D01*
X10685751Y4108500D01*
X10704249D01*
X10721340Y4115579D01*
X10731194Y4125433D01*
X10763103D01*
X10763261Y4125197D01*
X10764270Y4124523D01*
X10765040Y4123584D01*
X10768210Y4121890D01*
X10771199Y4119892D01*
X10772390Y4119656D01*
X10773461Y4119083D01*
X10777038Y4118731D01*
X10780564Y4118030D01*
X11079864D01*
X11182697Y4015197D01*
X11190635Y4009892D01*
X11200000Y4008030D01*
X11499864D01*
X11510530Y3997364D01*
Y3957500D01*
X11512393Y3948136D01*
X11514708Y3944670D01*
X11508890Y3931970D01*
X11147636D01*
X11032303Y4047303D01*
X11024365Y4052608D01*
X11015000Y4054470D01*
X10868485D01*
X10867985Y4054371D01*
X10867482Y4054450D01*
X10866409Y4054190D01*
X10865000Y4054470D01*
X10627636D01*
X10546970Y4135136D01*
Y4450000D01*
X10545107Y4459364D01*
X10539803Y4467303D01*
X10502303Y4504803D01*
X10494364Y4510108D01*
X10485000Y4511970D01*
X10337500D01*
X10328136Y4510108D01*
X10320197Y4504803D01*
X10314963Y4496970D01*
X9967500D01*
X9959670Y4495413D01*
X9955469Y4496637D01*
X9946970Y4501510D01*
Y4632364D01*
X10060606Y4746000D01*
X10066500D01*
Y4751894D01*
X10067303Y4752697D01*
X10072607Y4760635D01*
X10074470Y4770000D01*
Y4795000D01*
Y4987500D01*
X10072607Y4996864D01*
X10067303Y5004803D01*
X10066500Y5005606D01*
Y5014000D01*
X10058106D01*
X10054803Y5017303D01*
X10046865Y5022607D01*
X10037500Y5024470D01*
X9872500D01*
X9863135Y5022607D01*
X9855197Y5017303D01*
X9851894Y5014000D01*
X9843500D01*
Y5005606D01*
X9837697Y4999803D01*
X9832393Y4991865D01*
X9830530Y4982500D01*
Y4515000D01*
Y4405000D01*
X9832393Y4395635D01*
X9837697Y4387697D01*
X9840394Y4385000D01*
X9840197Y4384803D01*
X9834892Y4376864D01*
X9833030Y4367500D01*
Y4302500D01*
X9834892Y4293135D01*
X9840197Y4285197D01*
X9843399Y4281994D01*
X9838089Y4274047D01*
X9835295Y4260000D01*
X9838089Y4245954D01*
X9844566Y4236260D01*
X9836770Y4224593D01*
X9836394Y4222700D01*
X9877588D01*
X9890000Y4220231D01*
Y4199769D01*
X9879950Y4197770D01*
X9874411D01*
X9868201Y4199005D01*
X9865791D01*
X9863427Y4199475D01*
X9862500D01*
X9860135Y4199005D01*
X9858652D01*
X9857281Y4198437D01*
X9853134Y4197612D01*
X9852666Y4197300D01*
X9836394D01*
X9836770Y4195407D01*
X9841389Y4188495D01*
X9840197Y4187303D01*
X9834892Y4179365D01*
X9833030Y4170000D01*
Y4152500D01*
X9834892Y4143136D01*
X9840197Y4135197D01*
X9847697Y4127697D01*
X9855635Y4122393D01*
X9857559Y4122010D01*
X9861740Y4108230D01*
X9856383Y4102872D01*
X9847763Y4089972D01*
X9845873Y4080474D01*
D01*
X9845306Y4077623D01*
X9844736Y4074755D01*
Y4000971D01*
X9833529Y3989764D01*
X9371471D01*
X9291868Y4069367D01*
X9296728Y4081100D01*
X9327300D01*
Y4148000D01*
X9352700D01*
Y4081100D01*
X9477300D01*
Y4148000D01*
X9502700D01*
Y4081100D01*
X9568900D01*
Y4118027D01*
X9581600Y4125363D01*
X9592000Y4123295D01*
X9628000D01*
X9642047Y4126089D01*
X9653955Y4134046D01*
X9661911Y4145954D01*
X9664705Y4160000D01*
X9661911Y4174047D01*
X9655434Y4183740D01*
X9663230Y4195407D01*
X9666133Y4210000D01*
X9663230Y4224593D01*
X9661202Y4227628D01*
X9657303Y4238903D01*
X9659437Y4242096D01*
X9661811Y4245113D01*
X9662072Y4246041D01*
X9662608Y4246842D01*
X9663357Y4250607D01*
X9664396Y4254304D01*
X9664282Y4255261D01*
X9664470Y4256206D01*
Y4258818D01*
X9664705Y4260000D01*
X9664470Y4261182D01*
Y4308818D01*
X9664705Y4310000D01*
X9664470Y4311182D01*
Y4358818D01*
X9664705Y4360000D01*
X9664470Y4361182D01*
Y4363794D01*
X9664282Y4364739D01*
X9664396Y4365695D01*
X9663357Y4369393D01*
X9662608Y4373158D01*
X9662072Y4373959D01*
X9661812Y4374887D01*
X9659436Y4377905D01*
X9657303Y4381097D01*
X9661250Y4392362D01*
X9665107Y4398135D01*
X9666970Y4407500D01*
Y4459675D01*
X9669392Y4551695D01*
X9669338Y4552010D01*
X9669393Y4554096D01*
X9669040Y4556151D01*
X9669048Y4556471D01*
X9668994Y4556788D01*
X9668993Y4556790D01*
Y4556793D01*
D01*
Y4557111D01*
X9668931Y4557424D01*
X9668931Y4559518D01*
X9668523Y4561566D01*
Y4561884D01*
X9668077Y4564124D01*
X9667155Y4566350D01*
X9666686Y4568713D01*
X9666654Y4568789D01*
X9666649Y4568796D01*
X9666648Y4568804D01*
X9666217Y4569844D01*
X9665198Y4572304D01*
X9665198Y4572304D01*
Y4572305D01*
Y4581069D01*
D01*
X9665198Y4581070D01*
D01*
X9665199Y4581071D01*
X9665199Y4581073D01*
X9665200Y4581074D01*
X9665378Y4581506D01*
X9665889Y4582740D01*
X9665890Y4582741D01*
Y4582741D01*
X9665890Y4582741D01*
X9666550Y4584334D01*
X9666551Y4584339D01*
X9666554Y4584343D01*
X9666686Y4584661D01*
X9667155Y4587024D01*
X9668078Y4589250D01*
X9669000Y4593887D01*
Y4596297D01*
D01*
X9669470Y4598661D01*
Y4614713D01*
X9669000Y4617077D01*
D01*
Y4617077D01*
X9669000Y4619489D01*
X9668078Y4624123D01*
X9667156Y4626349D01*
X9667155Y4626350D01*
Y4626350D01*
X9666686Y4628713D01*
X9665198Y4632303D01*
X9665198Y4632304D01*
Y4632305D01*
Y4641069D01*
D01*
X9665198Y4641070D01*
D01*
X9665199Y4641071D01*
X9665199Y4641073D01*
X9665200Y4641074D01*
X9665378Y4641506D01*
X9665889Y4642740D01*
X9665890Y4642741D01*
Y4642741D01*
X9665890Y4642741D01*
X9666550Y4644334D01*
X9666551Y4644339D01*
X9666554Y4644343D01*
X9666686Y4644661D01*
X9667155Y4647024D01*
X9668078Y4649250D01*
X9669000Y4653887D01*
Y4656297D01*
D01*
X9669470Y4658661D01*
Y4691970D01*
D01*
Y4724864D01*
X9672303Y4727697D01*
X9677608Y4735635D01*
X9679470Y4745000D01*
Y4982182D01*
X9680108Y4983136D01*
X9681970Y4992500D01*
X9680108Y5001865D01*
X9676500Y5007264D01*
Y5014000D01*
X9670606D01*
X9664803Y5019803D01*
X9656865Y5025108D01*
X9647500Y5026970D01*
X9475000D01*
X9465636Y5025108D01*
X9457697Y5019803D01*
X9445197Y5007303D01*
X9439892Y4999364D01*
X9438030Y4990000D01*
Y4780000D01*
X9439892Y4770636D01*
X9445197Y4762697D01*
X9453500Y4754394D01*
Y4746000D01*
X9463978D01*
X9465636Y4744892D01*
X9475000Y4743030D01*
X9524864D01*
X9535530Y4732364D01*
Y4420000D01*
X9537392Y4410636D01*
X9542697Y4402697D01*
X9560394Y4385000D01*
X9539864Y4364470D01*
X9390136D01*
X9384470Y4370136D01*
Y5243030D01*
X9952501D01*
X9961865Y5244892D01*
X9969804Y5250197D01*
X10028300Y5308695D01*
X10041000Y5303435D01*
Y5293251D01*
X10048079Y5276160D01*
X10061160Y5263079D01*
X10078251Y5256000D01*
X10096749D01*
X10113840Y5263079D01*
X10126921Y5276160D01*
X10134000Y5293251D01*
Y5311749D01*
X10126921Y5328840D01*
X10113840Y5341921D01*
X10096749Y5349000D01*
X10078251D01*
X10062170Y5342339D01*
X10056930Y5344190D01*
X10049470Y5348191D01*
Y5900000D01*
X10047608Y5909364D01*
X10042303Y5917303D01*
X10028381Y5931225D01*
X10022303Y5937304D01*
X10021161Y5938135D01*
X10019150Y5939601D01*
X10019150D01*
X10019150Y5939601D01*
Y5974800D01*
X9960001D01*
Y5987500D01*
X9947301D01*
Y6035400D01*
X9911759D01*
X9907784Y6046371D01*
X9907706Y6048100D01*
X9919803Y6060197D01*
X9925107Y6068135D01*
X9926970Y6077500D01*
Y6167364D01*
X9967058Y6207452D01*
X9978350Y6210850D01*
X9978351Y6210849D01*
Y6210850D01*
X9978351Y6210850D01*
X10013550D01*
Y6270000D01*
Y6329150D01*
X9986970D01*
Y6350530D01*
X10172500D01*
X10181864Y6352392D01*
X10189803Y6357697D01*
X10224400Y6392294D01*
X10237100Y6387033D01*
Y6350200D01*
X10302500D01*
Y6324800D01*
X10237100D01*
Y6272100D01*
Y6245200D01*
X10302500D01*
X10367900D01*
Y6273500D01*
X10532100D01*
Y6272100D01*
X10564800D01*
Y6337500D01*
Y6402900D01*
X10532100D01*
X10528507Y6404567D01*
X10525400Y6419420D01*
X10556216Y6450236D01*
X10900000D01*
X10915217Y6453263D01*
X10928117Y6461883D01*
X10984107Y6517872D01*
X10992727Y6530773D01*
X10995754Y6545990D01*
Y6608500D01*
X11026500D01*
Y6756500D01*
X10908500D01*
Y6709764D01*
X10891400D01*
Y6756301D01*
X10830000D01*
Y6769001D01*
X10817300D01*
Y6832400D01*
D02*
G37*
G36*
X11397900Y6757900D02*
X11350200D01*
Y6695201D01*
X11397900D01*
Y6757900D01*
D02*
G37*
G36*
X11324800D02*
X11277100D01*
Y6695201D01*
X11324800D01*
Y6757900D01*
D02*
G37*
G36*
X9497300Y6785400D02*
X9375600D01*
Y6672700D01*
X9497300D01*
Y6785400D01*
D02*
G37*
G36*
X11397900Y6669801D02*
X11350200D01*
Y6607100D01*
X11397900D01*
Y6669801D01*
D02*
G37*
G36*
X11324800D02*
X11277100D01*
Y6607100D01*
X11324800D01*
Y6669801D01*
D02*
G37*
G36*
X12295533Y6787500D02*
X12269466D01*
X12244287Y6780753D01*
X12221713Y6767720D01*
X12203280Y6749287D01*
X12190247Y6726712D01*
X12183500Y6701533D01*
Y6675466D01*
X12190247Y6650287D01*
X12203280Y6627713D01*
X12221713Y6609280D01*
X12244287Y6596247D01*
X12269466Y6589500D01*
X12295533D01*
X12320712Y6596247D01*
X12343287Y6609280D01*
X12361719Y6627713D01*
X12374753Y6650287D01*
X12381500Y6675466D01*
Y6701533D01*
X12374753Y6726712D01*
X12361719Y6749287D01*
X12343287Y6767720D01*
X12320712Y6780753D01*
X12295533Y6787500D01*
D02*
G37*
G36*
X12008033Y6784000D02*
X11981966D01*
X11956787Y6777253D01*
X11934213Y6764220D01*
X11915780Y6745787D01*
X11902747Y6723213D01*
X11896000Y6698034D01*
Y6671967D01*
X11902747Y6646788D01*
X11915780Y6624213D01*
X11934213Y6605781D01*
X11956787Y6592747D01*
X11981966Y6586000D01*
X12008033D01*
X12033212Y6592747D01*
X12055787Y6605781D01*
X12074219Y6624213D01*
X12087253Y6646788D01*
X12094000Y6671967D01*
Y6698034D01*
X12087253Y6723213D01*
X12074219Y6745787D01*
X12055787Y6764220D01*
X12033212Y6777253D01*
X12008033Y6784000D01*
D02*
G37*
G36*
X9497300Y6647300D02*
X9375600D01*
Y6534600D01*
X9497300D01*
Y6647300D01*
D02*
G37*
G36*
X12382900Y6534900D02*
X12295200D01*
Y6447199D01*
X12382900D01*
Y6534900D01*
D02*
G37*
G36*
X12269800D02*
X12182100D01*
Y6447199D01*
X12269800D01*
Y6534900D01*
D02*
G37*
G36*
X12095400Y6531400D02*
X12007700D01*
Y6443700D01*
X12095400D01*
Y6531400D01*
D02*
G37*
G36*
X11982300D02*
X11894600D01*
Y6443700D01*
X11982300D01*
Y6531400D01*
D02*
G37*
G36*
X11767900Y6402900D02*
X11715200D01*
Y6350200D01*
X11767900D01*
Y6402900D01*
D02*
G37*
G36*
X9684024Y6386523D02*
X9637700D01*
Y6338056D01*
X9684024D01*
Y6386523D01*
D02*
G37*
G36*
X9612300D02*
X9565976D01*
Y6338056D01*
X9612300D01*
Y6386523D01*
D02*
G37*
G36*
X12382900Y6421799D02*
X12295200D01*
Y6334100D01*
X12382900D01*
Y6421799D01*
D02*
G37*
G36*
X12269800D02*
X12182100D01*
Y6334100D01*
X12269800D01*
Y6421799D01*
D02*
G37*
G36*
X12095400Y6418300D02*
X12007700D01*
Y6330600D01*
X12095400D01*
Y6418300D01*
D02*
G37*
G36*
X11982300D02*
X11894600D01*
Y6330600D01*
X11982300D01*
Y6418300D01*
D02*
G37*
G36*
X9781700Y6373223D02*
X9740377D01*
Y6329757D01*
X9781700D01*
Y6373223D01*
D02*
G37*
G36*
X10074150Y6329150D02*
X10038950D01*
Y6282700D01*
X10074150D01*
Y6329150D01*
D02*
G37*
G36*
X10649799Y6402900D02*
X10590200D01*
Y6337500D01*
Y6272100D01*
X10649799D01*
Y6337501D01*
Y6402900D01*
D02*
G37*
G36*
X10074150Y6257300D02*
X10038950D01*
Y6210850D01*
X10074150D01*
Y6257300D01*
D02*
G37*
G36*
X10367900Y6219800D02*
X10302500D01*
X10237100D01*
Y6187100D01*
Y6160200D01*
X10302500D01*
X10367900D01*
Y6187100D01*
Y6219800D01*
D02*
G37*
G36*
X12287218Y6240400D02*
X12286700D01*
Y6152700D01*
X12374400D01*
Y6153218D01*
X12367558Y6178753D01*
X12354340Y6201647D01*
X12335647Y6220340D01*
X12312753Y6233558D01*
X12287218Y6240400D01*
D02*
G37*
G36*
X12261300D02*
X12260782D01*
X12235247Y6233558D01*
X12212353Y6220340D01*
X12193660Y6201647D01*
X12180442Y6178753D01*
X12173600Y6153218D01*
Y6152700D01*
X12261300D01*
Y6240400D01*
D02*
G37*
G36*
X10816750Y6196500D02*
X10798251D01*
X10781160Y6189421D01*
X10768079Y6176340D01*
X10761000Y6159249D01*
Y6140750D01*
X10768079Y6123660D01*
X10781160Y6110579D01*
X10798251Y6103500D01*
X10816750D01*
X10833840Y6110579D01*
X10846921Y6123660D01*
X10854000Y6140750D01*
Y6159249D01*
X10846921Y6176340D01*
X10833840Y6189421D01*
X10816750Y6196500D01*
D02*
G37*
G36*
X10367900Y6134800D02*
X10302500D01*
X10237100D01*
Y6102100D01*
Y6075200D01*
X10302500D01*
X10367900D01*
Y6102100D01*
Y6134800D01*
D02*
G37*
G36*
X12374400Y6127300D02*
X12286700D01*
Y6039600D01*
X12287218D01*
X12312753Y6046442D01*
X12335647Y6059660D01*
X12354340Y6078353D01*
X12367558Y6101247D01*
X12374400Y6126782D01*
Y6127300D01*
D02*
G37*
G36*
X12261300D02*
X12173600D01*
Y6126782D01*
X12180442Y6101247D01*
X12193660Y6078353D01*
X12212353Y6059660D01*
X12235247Y6046442D01*
X12260782Y6039600D01*
X12261300D01*
Y6127300D01*
D02*
G37*
G36*
X10019150Y6035400D02*
X9972701D01*
Y6000200D01*
X10019150D01*
Y6035400D01*
D02*
G37*
G36*
X10367900Y6049800D02*
X10302500D01*
X10237100D01*
Y6017100D01*
Y5990200D01*
X10302500D01*
X10367900D01*
Y6017100D01*
Y6049800D01*
D02*
G37*
G36*
Y5964800D02*
X10302500D01*
X10237100D01*
Y5932100D01*
Y5905200D01*
X10302500D01*
X10367900D01*
Y5932100D01*
Y5964800D01*
D02*
G37*
G36*
X12283218Y5950400D02*
X12282700D01*
Y5862700D01*
X12370400D01*
Y5863218D01*
X12363558Y5888753D01*
X12350340Y5911647D01*
X12331647Y5930340D01*
X12308753Y5943558D01*
X12283218Y5950400D01*
D02*
G37*
G36*
X12257300D02*
X12256782D01*
X12231247Y5943558D01*
X12208353Y5930340D01*
X12189660Y5911647D01*
X12176442Y5888753D01*
X12169600Y5863218D01*
Y5862700D01*
X12257300D01*
Y5950400D01*
D02*
G37*
G36*
X11252900Y5887900D02*
X11180200D01*
Y5815200D01*
X11252900D01*
Y5887900D01*
D02*
G37*
G36*
X12370400Y5837300D02*
X12282700D01*
Y5749600D01*
X12283218D01*
X12308753Y5756442D01*
X12331647Y5769660D01*
X12350340Y5788353D01*
X12363558Y5811247D01*
X12370400Y5836782D01*
Y5837300D01*
D02*
G37*
G36*
X12257300D02*
X12169600D01*
Y5836782D01*
X12176442Y5811247D01*
X12189660Y5788353D01*
X12208353Y5769660D01*
X12231247Y5756442D01*
X12256782Y5749600D01*
X12257300D01*
Y5837300D01*
D02*
G37*
G36*
X10367900Y5879800D02*
X10302500D01*
X10237100D01*
Y5847100D01*
Y5820199D01*
X10302500D01*
Y5794799D01*
X10237100D01*
Y5762100D01*
Y5735200D01*
X10302500D01*
Y5709800D01*
X10237100D01*
Y5677100D01*
Y5650200D01*
X10302500D01*
X10367900D01*
Y5722586D01*
X10376751Y5728500D01*
X10395249D01*
X10412340Y5735579D01*
X10425421Y5748660D01*
X10432500Y5765750D01*
Y5784249D01*
X10425421Y5801340D01*
X10412340Y5814421D01*
X10395249Y5821500D01*
X10376751D01*
X10367900Y5827414D01*
Y5879800D01*
D02*
G37*
G36*
X12287218Y5660400D02*
X12286700D01*
Y5572700D01*
X12374400D01*
Y5573218D01*
X12367558Y5598753D01*
X12354340Y5621647D01*
X12335647Y5640340D01*
X12312753Y5653558D01*
X12287218Y5660400D01*
D02*
G37*
G36*
X12261300D02*
X12260782D01*
X12235247Y5653558D01*
X12212353Y5640340D01*
X12193660Y5621647D01*
X12180442Y5598753D01*
X12173600Y5573218D01*
Y5572700D01*
X12261300D01*
Y5660400D01*
D02*
G37*
G36*
X10367900Y5624800D02*
X10302500D01*
X10237100D01*
Y5592100D01*
Y5565200D01*
X10302500D01*
X10367900D01*
Y5592100D01*
Y5624800D01*
D02*
G37*
G36*
X10824800D02*
X10752100D01*
Y5552100D01*
X10824800D01*
Y5624800D01*
D02*
G37*
G36*
X12374400Y5547300D02*
X12286700D01*
Y5459600D01*
X12287218D01*
X12312753Y5466442D01*
X12335647Y5479660D01*
X12354340Y5498353D01*
X12367558Y5521247D01*
X12374400Y5546782D01*
Y5547300D01*
D02*
G37*
G36*
X12261300D02*
X12173600D01*
Y5546782D01*
X12180442Y5521247D01*
X12193660Y5498353D01*
X12212353Y5479660D01*
X12235247Y5466442D01*
X12260782Y5459600D01*
X12261300D01*
Y5547300D01*
D02*
G37*
G36*
X11252900Y5459800D02*
X11180200D01*
Y5387100D01*
X11252900D01*
Y5459800D01*
D02*
G37*
G36*
X10989800Y5459800D02*
X10917100D01*
Y5387100D01*
X10989800D01*
Y5459800D01*
D02*
G37*
G36*
X10367900Y5539800D02*
X10302500D01*
X10237100D01*
Y5507100D01*
Y5480200D01*
X10302500D01*
Y5454800D01*
X10237100D01*
Y5422100D01*
Y5395200D01*
X10302500D01*
Y5369800D01*
X10237100D01*
Y5337100D01*
Y5310200D01*
X10302500D01*
Y5284800D01*
X10237100D01*
Y5252100D01*
Y5225200D01*
X10302500D01*
X10367900D01*
Y5296211D01*
X10380600Y5302070D01*
X10395253Y5296000D01*
X10414747D01*
X10432756Y5303460D01*
X10446540Y5317244D01*
X10454000Y5335253D01*
X10466000D01*
X10473460Y5317244D01*
X10487244Y5303460D01*
X10505253Y5296000D01*
X10524747D01*
X10542756Y5303460D01*
X10556540Y5317244D01*
X10564000Y5335253D01*
Y5354747D01*
X10556540Y5372756D01*
X10542756Y5386540D01*
X10524747Y5394000D01*
Y5406000D01*
X10542756Y5413460D01*
X10556540Y5427244D01*
X10564000Y5445253D01*
Y5464747D01*
X10556540Y5482756D01*
X10542756Y5496540D01*
X10524747Y5504000D01*
X10505253D01*
X10487244Y5496540D01*
X10473460Y5482756D01*
X10466000Y5464747D01*
X10454000D01*
X10446540Y5482756D01*
X10432756Y5496540D01*
X10414747Y5504000D01*
X10395253D01*
X10380600Y5497930D01*
X10367900Y5503789D01*
Y5539800D01*
D02*
G37*
G36*
X12041718Y5373400D02*
X12041200D01*
Y5285700D01*
X12128900D01*
Y5286218D01*
X12122058Y5311753D01*
X12108840Y5334647D01*
X12090147Y5353340D01*
X12067253Y5366558D01*
X12041718Y5373400D01*
D02*
G37*
G36*
X12015800D02*
X12015282D01*
X11989747Y5366558D01*
X11966853Y5353340D01*
X11948160Y5334647D01*
X11934942Y5311753D01*
X11928100Y5286218D01*
Y5285700D01*
X12015800D01*
Y5373400D01*
D02*
G37*
G36*
X12295533Y5372000D02*
X12269466D01*
X12244287Y5365253D01*
X12221713Y5352219D01*
X12203280Y5333787D01*
X12190247Y5311212D01*
X12183500Y5286033D01*
Y5259966D01*
X12190247Y5234787D01*
X12203280Y5212213D01*
X12221713Y5193780D01*
X12244287Y5180747D01*
X12269466Y5174000D01*
X12295533D01*
X12320712Y5180747D01*
X12343287Y5193780D01*
X12361719Y5212213D01*
X12374753Y5234787D01*
X12381500Y5259966D01*
Y5286033D01*
X12374753Y5311212D01*
X12361719Y5333787D01*
X12343287Y5352219D01*
X12320712Y5365253D01*
X12295533Y5372000D01*
D02*
G37*
G36*
X12128900Y5260300D02*
X12041200D01*
Y5172600D01*
X12041718D01*
X12067253Y5179442D01*
X12090147Y5192660D01*
X12108840Y5211353D01*
X12122058Y5234247D01*
X12128900Y5259782D01*
Y5260300D01*
D02*
G37*
G36*
X12015800D02*
X11928100D01*
Y5259782D01*
X11934942Y5234247D01*
X11948160Y5211353D01*
X11966853Y5192660D01*
X11989747Y5179442D01*
X12015282Y5172600D01*
X12015800D01*
Y5260300D01*
D02*
G37*
G36*
X10367900Y5199800D02*
X10302500D01*
X10237100D01*
Y5167100D01*
Y5140200D01*
X10302500D01*
X10367900D01*
Y5167100D01*
Y5199800D01*
D02*
G37*
G36*
X9874249Y5216500D02*
X9855751D01*
X9838660Y5209421D01*
X9825579Y5196340D01*
X9818500Y5179249D01*
Y5160751D01*
X9825579Y5143660D01*
X9838660Y5130579D01*
X9855751Y5123500D01*
X9874249D01*
X9891340Y5130579D01*
X9904421Y5143660D01*
X9911500Y5160751D01*
Y5179249D01*
X9904421Y5196340D01*
X9891340Y5209421D01*
X9874249Y5216500D01*
D02*
G37*
G36*
X10367900Y5114800D02*
X10302500D01*
X10237100D01*
Y5082100D01*
Y5055200D01*
X10302500D01*
X10367900D01*
Y5082100D01*
Y5114800D01*
D02*
G37*
G36*
X12295533Y5118000D02*
X12269466D01*
X12244287Y5111253D01*
X12221713Y5098219D01*
X12203280Y5079787D01*
X12190247Y5057212D01*
X12183500Y5032033D01*
Y5005966D01*
X12190247Y4980787D01*
X12203280Y4958213D01*
X12221713Y4939780D01*
X12244287Y4926747D01*
X12269466Y4920000D01*
X12295533D01*
X12320712Y4926747D01*
X12343287Y4939780D01*
X12361719Y4958213D01*
X12374753Y4980787D01*
X12381500Y5005966D01*
Y5032033D01*
X12374753Y5057212D01*
X12361719Y5079787D01*
X12343287Y5098219D01*
X12320712Y5111253D01*
X12295533Y5118000D01*
D02*
G37*
G36*
X12041533D02*
X12015466D01*
X11990287Y5111253D01*
X11967713Y5098219D01*
X11949280Y5079787D01*
X11936247Y5057212D01*
X11929500Y5032033D01*
Y5005966D01*
X11936247Y4980787D01*
X11949280Y4958213D01*
X11967713Y4939780D01*
X11990287Y4926747D01*
X12015466Y4920000D01*
X12041533D01*
X12066712Y4926747D01*
X12089287Y4939780D01*
X12107719Y4958213D01*
X12120753Y4980787D01*
X12127500Y5005966D01*
Y5032033D01*
X12120753Y5057212D01*
X12107719Y5079787D01*
X12089287Y5098219D01*
X12066712Y5111253D01*
X12041533Y5118000D01*
D02*
G37*
G36*
X10479800Y5002900D02*
X10420200D01*
Y4937500D01*
Y4872100D01*
X10479800D01*
Y4937500D01*
Y5002900D01*
D02*
G37*
G36*
X10367900Y5029800D02*
X10302500D01*
X10237100D01*
Y4997100D01*
Y4950200D01*
X10302500D01*
Y4937500D01*
X10315200D01*
Y4872100D01*
X10394800D01*
Y4937500D01*
Y5002900D01*
X10367900D01*
Y5029800D01*
D02*
G37*
G36*
X10289800Y4924800D02*
X10237100D01*
Y4872100D01*
X10289800D01*
Y4924800D01*
D02*
G37*
G36*
X10435299Y4848900D02*
X10381100D01*
Y4782700D01*
X10435299D01*
Y4848900D01*
D02*
G37*
G36*
X12381500Y4864000D02*
X12183500D01*
Y4666000D01*
X12381500D01*
Y4864000D01*
D02*
G37*
G36*
X10477300Y4627300D02*
X10426600D01*
Y4578600D01*
X10477300D01*
Y4627300D01*
D02*
G37*
G36*
X10870050Y4495995D02*
X10800200D01*
Y4437700D01*
X10900994D01*
Y4465050D01*
X10898639Y4476892D01*
X10891931Y4486931D01*
X10881892Y4493639D01*
X10870050Y4495995D01*
D02*
G37*
G36*
X10774800D02*
X10704950D01*
X10693108Y4493639D01*
X10683069Y4486931D01*
X10676361Y4476892D01*
X10674005Y4465050D01*
Y4437700D01*
X10774800D01*
Y4495995D01*
D02*
G37*
G36*
X10900994Y4412300D02*
X10800200D01*
Y4354006D01*
X10870050D01*
X10881892Y4356361D01*
X10891931Y4363069D01*
X10898639Y4373108D01*
X10900994Y4384950D01*
Y4412300D01*
D02*
G37*
G36*
X10774800D02*
X10674005D01*
Y4384950D01*
X10676361Y4373108D01*
X10683069Y4363069D01*
X10693108Y4356361D01*
X10704950Y4354006D01*
X10774800D01*
Y4412300D01*
D02*
G37*
G36*
X12295718Y4322900D02*
X12295200D01*
Y4235200D01*
X12382900D01*
Y4235718D01*
X12376058Y4261253D01*
X12362840Y4284147D01*
X12344147Y4302840D01*
X12321253Y4316058D01*
X12295718Y4322900D01*
D02*
G37*
G36*
X12269800D02*
X12269282D01*
X12243747Y4316058D01*
X12220853Y4302840D01*
X12202160Y4284147D01*
X12188942Y4261253D01*
X12182100Y4235718D01*
Y4235200D01*
X12269800D01*
Y4322900D01*
D02*
G37*
G36*
X12382900Y4209800D02*
X12295200D01*
Y4122100D01*
X12295718D01*
X12321253Y4128942D01*
X12344147Y4142160D01*
X12362840Y4160853D01*
X12376058Y4183747D01*
X12382900Y4209282D01*
Y4209800D01*
D02*
G37*
G36*
X10013900Y4010800D02*
X9965201D01*
Y3960100D01*
X10013900D01*
Y4010800D01*
D02*
G37*
%LPD*%
G36*
X10277995Y6662102D02*
X10287000Y6658372D01*
Y6521000D01*
X10295000D01*
Y6497500D01*
X10172500Y6375000D01*
X9962500D01*
Y6237500D01*
X9902500Y6177500D01*
Y6077500D01*
X9890000Y6065000D01*
X9848961D01*
X9845067Y6069745D01*
Y6129855D01*
X9842821Y6141149D01*
X9842166Y6142129D01*
Y6157476D01*
X9840893Y6163876D01*
X9847024Y6176576D01*
X9847023D01*
Y6212024D01*
X9875000Y6240000D01*
X9877500D01*
Y6360000D01*
X9750000Y6487500D01*
X9750485Y6521000D01*
X9755000D01*
Y6658372D01*
X9758930Y6660000D01*
X9807000D01*
Y6521000D01*
X9816500D01*
X9820000Y6517500D01*
X9960345D01*
X9967058Y6507453D01*
X9989628Y6484883D01*
X10002528Y6476263D01*
X10017745Y6473236D01*
X10074255D01*
X10089472Y6476263D01*
X10102372Y6484883D01*
X10124118Y6506628D01*
X10132737Y6519529D01*
X10133030Y6521000D01*
X10235000D01*
Y6665000D01*
X10275097D01*
X10277995Y6662102D01*
D02*
G37*
G36*
X9668006Y6034849D02*
Y6007500D01*
X9769000D01*
Y5982100D01*
X9668006D01*
Y5954750D01*
X9669714Y5946160D01*
X9661577Y5940723D01*
X9655180Y5931149D01*
X9652933Y5919855D01*
Y5859745D01*
X9653214Y5858331D01*
X9645157Y5848514D01*
X9638848D01*
X9625582Y5845875D01*
X9614336Y5838360D01*
X9563772Y5787796D01*
X9556257Y5776550D01*
X9556247Y5776500D01*
X9546000D01*
Y5753350D01*
X9533300Y5748089D01*
X9525072Y5756317D01*
X9512172Y5764937D01*
X9496955Y5767964D01*
X9479764D01*
Y5783500D01*
X9496500D01*
Y5878500D01*
Y5996500D01*
X9496500D01*
X9492004Y6009200D01*
X9492027Y6009234D01*
X9494666Y6022500D01*
Y6026000D01*
X9594000D01*
Y6037834D01*
X9665556D01*
X9668006Y6034849D01*
D02*
G37*
G36*
X9870000Y5920000D02*
X10005000D01*
X10025000Y5900000D01*
Y5340002D01*
X9952501Y5267500D01*
X9360000D01*
Y4360000D01*
X9380000Y4340000D01*
X9550000D01*
X9584739Y4374739D01*
X9592000Y4373295D01*
X9628000D01*
X9628724Y4373439D01*
X9640000Y4363794D01*
Y4256206D01*
X9628724Y4246561D01*
X9628000Y4246705D01*
X9613588D01*
X9610000Y4247419D01*
X9552000D01*
X9537680Y4244571D01*
X9530840Y4240000D01*
X9290000D01*
X9270000Y4260000D01*
Y4330000D01*
X9290000Y4350000D01*
X9289999Y5267500D01*
X9232500D01*
X9204999Y5295000D01*
Y5477499D01*
X9227500Y5500000D01*
X9561000D01*
Y5458500D01*
X9679000D01*
Y5500000D01*
X9705000D01*
X9830000Y5625000D01*
Y5803475D01*
X9835013Y5808488D01*
X9842527Y5819734D01*
X9845166Y5833000D01*
Y5888300D01*
X9845067Y5888797D01*
Y5919855D01*
X9843809Y5926179D01*
X9850346Y5927480D01*
X9854118Y5930000D01*
X9860000D01*
X9870000Y5920000D01*
D02*
G37*
G36*
X10610000Y4980000D02*
Y4890000D01*
X10618500Y4881500D01*
Y4873500D01*
X10626500D01*
X10640000Y4860000D01*
X10646489D01*
X10648079Y4856160D01*
X10661160Y4843079D01*
X10678251Y4836000D01*
X10696749D01*
X10713840Y4843079D01*
X10726921Y4856160D01*
X10728511Y4860000D01*
X10770000D01*
X10790000Y4840000D01*
Y4570000D01*
X10767500Y4547500D01*
X10570000Y4547500D01*
X10550200Y4567300D01*
X10552000Y4580000D01*
X10552000D01*
Y4700000D01*
X10540000D01*
Y4990000D01*
X10600000D01*
X10610000Y4980000D01*
D02*
G37*
G36*
X9657500Y4992500D02*
X9655000Y4990000D01*
Y4745000D01*
X9645000Y4735000D01*
Y4691970D01*
Y4658661D01*
X9644078Y4654024D01*
Y4654024D01*
X9643943Y4653699D01*
X9643283Y4652107D01*
X9643282Y4652105D01*
X9643282Y4652104D01*
X9643282Y4652103D01*
X9642591Y4650434D01*
X9642591Y4650434D01*
Y4650434D01*
X9642590Y4650432D01*
Y4650432D01*
X9640728Y4645936D01*
Y4641069D01*
Y4632305D01*
Y4632304D01*
Y4627438D01*
X9642590Y4622941D01*
X9642590Y4622940D01*
X9642591Y4622939D01*
X9644078Y4619349D01*
X9644548Y4616986D01*
Y4616985D01*
X9645000Y4614713D01*
Y4598661D01*
X9644078Y4594025D01*
Y4594024D01*
X9643943Y4593699D01*
X9643283Y4592107D01*
X9643282Y4592105D01*
X9643282Y4592104D01*
X9643282Y4592103D01*
X9642591Y4590435D01*
X9642591Y4590434D01*
Y4590434D01*
X9642590Y4590432D01*
Y4590432D01*
X9640728Y4585936D01*
Y4581069D01*
Y4572305D01*
Y4572305D01*
Y4567438D01*
X9642590Y4562941D01*
X9642590Y4562940D01*
X9642591Y4562940D01*
X9644040Y4559440D01*
X9644078Y4559350D01*
X9644523Y4557110D01*
Y4556791D01*
X9644931Y4554741D01*
X9644876Y4552653D01*
X9644930Y4552339D01*
X9642500Y4460000D01*
Y4407500D01*
X9632438Y4397438D01*
X9630151Y4397438D01*
X9628879Y4397590D01*
X9628000Y4397765D01*
X9627411D01*
X9626823Y4397835D01*
X9626574Y4397765D01*
X9594410D01*
X9589513Y4398739D01*
X9587103D01*
X9584739Y4399209D01*
X9582376Y4398739D01*
X9581261D01*
X9560000Y4420000D01*
Y4742500D01*
X9535000Y4767500D01*
X9475000D01*
X9462500Y4780000D01*
Y4990000D01*
X9475000Y5002500D01*
X9647500D01*
X9657500Y4992500D01*
D02*
G37*
G36*
X10050000Y4987500D02*
Y4795000D01*
Y4770000D01*
X9922500Y4642500D01*
Y4405000D01*
X9915000Y4397500D01*
X9912855Y4395739D01*
X9908000Y4396705D01*
X9872000D01*
X9864739Y4395261D01*
X9855000Y4405000D01*
Y4515000D01*
Y4982500D01*
X9872500Y5000000D01*
X10037500D01*
X10050000Y4987500D01*
D02*
G37*
G36*
X9927500Y4165000D02*
Y4165000D01*
X9930000Y4162500D01*
X9977021D01*
X9990000Y4149521D01*
Y4085500D01*
X9912500D01*
Y4142500D01*
X9910000Y4145000D01*
X9865000D01*
X9857500Y4152500D01*
Y4170000D01*
X9862500Y4175000D01*
X9863427D01*
X9872000Y4173295D01*
X9908000D01*
X9916574Y4175000D01*
X9917500D01*
X9927500Y4165000D01*
D02*
G37*
G36*
X11405000Y4360000D02*
X11497500D01*
X11557500Y4300000D01*
X11645000D01*
X11645000Y4300000D01*
X11646000Y4299000D01*
Y4224750D01*
X11652500D01*
Y4202500D01*
X11635000Y4185000D01*
Y4062500D01*
X11652500Y4045000D01*
Y3960000D01*
X11644540Y3950000D01*
X11545000D01*
X11537500Y3957500D01*
X11535000D01*
Y4007500D01*
X11510000Y4032500D01*
X11200000D01*
X11090000Y4142500D01*
X10780564D01*
X10773775Y4155200D01*
X10773799Y4155236D01*
X10787500D01*
X10802717Y4158263D01*
X10815617Y4166883D01*
X10824237Y4179783D01*
X10827264Y4195000D01*
X10824237Y4210217D01*
X10815617Y4223117D01*
X10804647Y4230447D01*
X10805182Y4238742D01*
X10806738Y4243162D01*
X11082500Y4245000D01*
X11195000Y4357500D01*
Y4359999D01*
X11195000Y4360000D01*
X11325000D01*
X11325000Y4360000D01*
X11342500D01*
X11402500Y4362500D01*
X11405000Y4360000D01*
D02*
G37*
G36*
X10522500Y4450000D02*
Y4125000D01*
X10617500Y4030000D01*
X10865000D01*
X10866814Y4028186D01*
X10868485Y4030000D01*
X11015000D01*
X11137500Y3907500D01*
X11870000D01*
X11902500Y3939999D01*
Y4032500D01*
X11932500Y4062500D01*
X12122500Y4062500D01*
X12150000Y4035000D01*
Y3827500D01*
X12100000Y3777500D01*
X10990000D01*
X10870000Y3897500D01*
X10490000D01*
X10362500Y4025000D01*
Y4367500D01*
X10355107Y4374893D01*
X10352781Y4372500D01*
X10190000D01*
X10184683Y4367314D01*
X10182500Y4280000D01*
X10177500Y4275000D01*
X10132500D01*
X10119000Y4288500D01*
Y4294000D01*
X10113500D01*
X10105000Y4302500D01*
X10017500D01*
X10012500Y4297500D01*
X9980953D01*
X9969570Y4299764D01*
X9890000D01*
X9878618Y4297500D01*
X9862500D01*
X9857500Y4302500D01*
Y4367500D01*
X9861261Y4371261D01*
X9862375D01*
X9864739Y4370791D01*
X9867103Y4371261D01*
X9869513D01*
X9874410Y4372235D01*
X9905590D01*
X9908081Y4371740D01*
X9909296D01*
X9910457Y4371387D01*
X9914033Y4371740D01*
X9917628D01*
X9918751Y4372204D01*
X9919959Y4372323D01*
X9923127Y4374017D01*
X9925500Y4375000D01*
X9947500D01*
X9965000Y4392500D01*
X9962500Y4395000D01*
Y4467500D01*
X9967500Y4472500D01*
X10337500D01*
Y4487500D01*
X10485000D01*
X10522500Y4450000D01*
D02*
G37*
D10*
X10787500Y4425000D02*
D03*
Y4195000D02*
D03*
Y3965000D02*
D03*
D11*
X11412500Y4195000D02*
D03*
D12*
X9600000Y5732500D02*
D03*
Y5657500D02*
D03*
D13*
X10020000Y4428000D02*
D03*
X10162500D02*
D03*
X9490000Y4148000D02*
D03*
Y4292000D02*
D03*
X9340000Y4148000D02*
D03*
Y4292000D02*
D03*
X10162500Y4572000D02*
D03*
X10020000D02*
D03*
D14*
X10095000Y4135000D02*
D03*
X10205000D02*
D03*
D15*
X9819000Y4491300D02*
D03*
X9773000D02*
D03*
X9727000D02*
D03*
X9681000D02*
D03*
X9819000Y4128700D02*
D03*
X9773000D02*
D03*
X9727000D02*
D03*
X9681000D02*
D03*
D16*
X10407500Y4937500D02*
D03*
X10492500D02*
D03*
X10577500D02*
D03*
X10662500D02*
D03*
X11002500D02*
D03*
X11087500D02*
D03*
X11172500D02*
D03*
X11257500D02*
D03*
X11342500D02*
D03*
X11427500D02*
D03*
X11512500D02*
D03*
X11597500D02*
D03*
Y6337500D02*
D03*
X11512500D02*
D03*
X10662500D02*
D03*
X10577500D02*
D03*
X10407500D02*
D03*
X10747500Y4937500D02*
D03*
X10832500D02*
D03*
X10917500D02*
D03*
X11427500Y6337500D02*
D03*
X11342500D02*
D03*
X11257500D02*
D03*
X11172500D02*
D03*
X11087500D02*
D03*
X11002500D02*
D03*
X10917500D02*
D03*
X10832500D02*
D03*
X10747500D02*
D03*
X10492500D02*
D03*
D17*
X11702500Y5042500D02*
D03*
Y5127500D02*
D03*
Y5212500D02*
D03*
Y5297500D02*
D03*
Y5382500D02*
D03*
Y5637500D02*
D03*
Y5722500D02*
D03*
Y6062500D02*
D03*
Y6147500D02*
D03*
X10302500Y6232500D02*
D03*
Y6147500D02*
D03*
Y6062500D02*
D03*
Y5977500D02*
D03*
Y5892500D02*
D03*
Y5807500D02*
D03*
Y5722500D02*
D03*
Y5637500D02*
D03*
Y5552500D02*
D03*
Y5467500D02*
D03*
Y5382500D02*
D03*
Y5297500D02*
D03*
Y5212500D02*
D03*
Y5127500D02*
D03*
Y5042500D02*
D03*
X11702500Y5467500D02*
D03*
Y5552500D02*
D03*
Y5807500D02*
D03*
Y5892500D02*
D03*
Y5977500D02*
D03*
Y6232500D02*
D03*
D18*
X10837500Y5637500D02*
D03*
Y5802500D02*
D03*
X11002500Y5472500D02*
D03*
X11167500D02*
D03*
Y5637500D02*
D03*
Y5802500D02*
D03*
D19*
X10302500Y4937500D02*
D03*
X11702500D02*
D03*
Y6337500D02*
D03*
X10302500D02*
D03*
D20*
X10967500Y6682500D02*
D03*
Y7282500D02*
D03*
X11337500Y6682500D02*
D03*
Y7282500D02*
D03*
D21*
X9846000Y6602500D02*
D03*
X9896000D02*
D03*
X9946000D02*
D03*
X9996000D02*
D03*
X10046000D02*
D03*
X10096000D02*
D03*
X10146000D02*
D03*
X10196000D02*
D03*
D22*
X9781000D02*
D03*
X10261000D02*
D03*
X9701000D02*
D03*
X10341000D02*
D03*
D23*
X9510000Y6660000D02*
D03*
X10532000D02*
D03*
X9510000Y7053000D02*
D03*
X10532000D02*
D03*
D24*
X11740000Y4152500D02*
D03*
X11596000D02*
D03*
X10882000Y4770000D02*
D03*
X10738000D02*
D03*
X11596000Y4010000D02*
D03*
X11740000D02*
D03*
X10448000Y4770000D02*
D03*
X10592000D02*
D03*
D25*
X9890000Y4160000D02*
D03*
Y4210000D02*
D03*
Y4260000D02*
D03*
Y4310000D02*
D03*
Y4360000D02*
D03*
Y4410000D02*
D03*
Y4460000D02*
D03*
X9610000D02*
D03*
Y4410000D02*
D03*
Y4360000D02*
D03*
Y4310000D02*
D03*
Y4260000D02*
D03*
Y4210000D02*
D03*
Y4160000D02*
D03*
D26*
X9750000Y4310000D02*
D03*
D27*
X9933750Y6270000D02*
D03*
X10026250D02*
D03*
X10156250Y4312500D02*
D03*
X10248750D02*
D03*
X11600000Y4282500D02*
D03*
X11692500D02*
D03*
D28*
X10187856Y4025000D02*
D03*
X10102144D02*
D03*
D29*
X10072500Y4327500D02*
D03*
Y4247500D02*
D03*
D30*
X9565000Y4880000D02*
D03*
X9955000D02*
D03*
D31*
X9952500Y4023500D02*
D03*
Y4121500D02*
D03*
X10830000Y6671000D02*
D03*
Y6769000D02*
D03*
D32*
X10699785Y6560000D02*
D03*
X10780215D02*
D03*
D33*
X10710000Y6766000D02*
D03*
Y6674000D02*
D03*
D34*
X9987500Y4242285D02*
D03*
Y4322715D02*
D03*
D35*
X9620000Y5515000D02*
D03*
X9715000D02*
D03*
D36*
X9625000Y6229644D02*
D03*
Y6325356D02*
D03*
D37*
X9794400Y6231343D02*
D03*
Y6317056D02*
D03*
D38*
X9960000Y5987500D02*
D03*
Y5895000D02*
D03*
D39*
X9715000Y5735000D02*
D03*
Y5640000D02*
D03*
X9440000Y5937500D02*
D03*
Y5842500D02*
D03*
D40*
X9689000Y5889800D02*
D03*
X9729000D02*
D03*
X9769000D02*
D03*
X9809000D02*
D03*
X9849000D02*
D03*
X9689000Y6099800D02*
D03*
X9729000D02*
D03*
X9769000D02*
D03*
X9809000D02*
D03*
X9849000D02*
D03*
D41*
X9769000Y5994800D02*
D03*
D42*
X9550000Y6080000D02*
D03*
X9470000D02*
D03*
D43*
X10588000Y4640000D02*
D03*
X10490000D02*
D03*
D44*
X10707870Y4157870D02*
X10745000Y4195000D01*
X10697870Y4157870D02*
X10707870D01*
X10695000Y4155000D02*
X10697870Y4157870D01*
X10710370Y4229630D02*
X10745000Y4195000D01*
X10697870Y4229630D02*
X10710370D01*
X10680000Y4425000D02*
X10787500D01*
X10745000Y4195000D02*
X10787500D01*
X10695000Y4232500D02*
X10697870Y4229630D01*
X11337500Y6677500D02*
Y6682500D01*
Y6677500D02*
X11357500Y6657500D01*
X11392500D01*
X10684630Y4885370D02*
X10687500Y4882500D01*
X10684630Y4885370D02*
Y4895369D01*
X10662500Y4917500D02*
X10684630Y4895369D01*
X10662500Y4917500D02*
Y4937500D01*
X11256250Y4936250D02*
X11257500Y4937500D01*
X11255000Y4787500D02*
X11256250Y4788750D01*
X11342500Y4880000D02*
Y4937500D01*
X11256250Y4788750D02*
Y4936250D01*
X10977255Y5952000D02*
X11309500Y6284245D01*
Y6284500D01*
X11337500Y6312500D01*
X10440500Y6390755D02*
X10539745Y6490000D01*
X10440500Y6390501D02*
Y6390755D01*
X10407500Y6357500D02*
X10440500Y6390501D01*
X10407500Y6337500D02*
Y6357500D01*
X11087500Y4799059D02*
Y4937500D01*
X11080000Y4791559D02*
X11087500Y4799059D01*
X11755755Y5330500D02*
X11895127Y5469872D01*
Y5719127D01*
X11703225Y4936775D02*
X11797625D01*
X11798350Y4936051D01*
X11167500Y5472500D02*
X11170000Y5475000D01*
Y5555000D01*
X11621250Y5128750D02*
X11701250D01*
X11631559Y5717500D02*
X11697500D01*
X11624059Y5710000D02*
X11631559Y5717500D01*
X11171250Y4788750D02*
Y4936250D01*
X11170000Y4787500D02*
X11171250Y4788750D01*
X11702500Y6337500D02*
Y6402500D01*
X11002500Y4796559D02*
Y4937500D01*
Y4796559D02*
X11007500Y4791559D01*
X10837500Y5532500D02*
Y5637500D01*
X11427500Y4727500D02*
Y4937500D01*
X11170000Y5555000D02*
Y5635000D01*
Y5640000D02*
Y5720000D01*
X11167500Y5637500D02*
X11170000Y5640000D01*
X11621250Y5211250D02*
X11701250D01*
X11512500Y4797500D02*
Y4937500D01*
X11682500Y6147500D02*
X11702500D01*
X11630000Y6180000D02*
X11632870Y6177130D01*
X11652870D02*
X11682500Y6147500D01*
X11632870Y6177130D02*
X11652870D01*
X11004755Y5894500D02*
X11394500Y6284245D01*
X10758683Y5894500D02*
X11004755D01*
X11626317Y6062500D02*
X11702500D01*
X11616317Y6052500D02*
X11626317Y6062500D01*
X11602500Y6052500D02*
X11616317D01*
X11002500Y5472500D02*
Y5555000D01*
Y5637500D01*
X11702500Y5042500D02*
X11807500D01*
X11870000Y4980000D01*
X11600570Y4876930D02*
Y4934430D01*
X11727755Y5387500D02*
X11848127Y5507872D01*
X11702500Y5382500D02*
X11707500Y5387500D01*
X11727755D01*
X10835000Y5717500D02*
Y5800000D01*
X11649646Y5609850D02*
X11652516Y5612720D01*
X11682500Y5637500D02*
X11702500D01*
X11657720Y5612720D02*
X11682500Y5637500D01*
X11652516Y5612720D02*
X11657720D01*
X11697500Y5717500D02*
X11702500Y5722500D01*
Y4937500D02*
X11703225Y4936775D01*
X11337500Y6312500D02*
Y6332500D01*
X11342500Y6337500D01*
X11702500Y5297500D02*
X11722500D01*
X11755500Y5330500D01*
X11755755D01*
X10835000Y5800000D02*
X10837500Y5802500D01*
X11701250Y5128750D02*
X11702500Y5127500D01*
X11394500Y6284245D02*
Y6284500D01*
X11422500Y6312500D01*
Y6332500D01*
X11427500Y6337500D01*
X11171250Y4936250D02*
X11172500Y4937500D01*
X10837500Y5637500D02*
X10837500Y5637500D01*
X11597500Y4937500D02*
X11600570Y4934430D01*
X11167500Y5637500D02*
X11170000Y5635000D01*
X11701250Y5211250D02*
X11702500Y5212500D01*
X11890000Y6140000D02*
X12020000D01*
X11848127Y6098127D02*
X11890000Y6140000D01*
X11848127Y5507872D02*
Y6098127D01*
X12001000Y4476500D02*
X12028500D01*
X11600570Y4876930D02*
X12001000Y4476500D01*
X12181500Y4577500D02*
X12282500Y4476500D01*
X12064679Y4577500D02*
X12181500D01*
X11870000Y4772179D02*
X12064679Y4577500D01*
X11870000Y4772179D02*
Y4980000D01*
X11580000Y6030000D02*
X11602500Y6052500D01*
X11580000Y5780000D02*
Y6030000D01*
X10733183Y5920000D02*
X10758683Y5894500D01*
X10576800Y5920000D02*
X10733183D01*
X11512500Y4797500D02*
X12005539Y4304461D01*
Y4245461D02*
Y4304461D01*
Y4245461D02*
X12028500Y4222500D01*
X11427500Y4727500D02*
X11855000Y4300000D01*
Y4237500D02*
Y4300000D01*
Y4237500D02*
X11907619Y4184881D01*
Y4157381D02*
Y4184881D01*
Y4157381D02*
X11962500Y4102500D01*
X12187500D01*
X12225180Y4064820D01*
Y4025819D02*
Y4064820D01*
Y4025819D02*
X12282500Y3968500D01*
X11007500Y4787500D02*
Y4791559D01*
X11620000Y5710000D02*
X11624059D01*
X11903573Y5737573D02*
X12016000Y5850000D01*
X11903573Y5727573D02*
Y5737573D01*
X11895127Y5719127D02*
X11903573Y5727573D01*
X11080000Y4787500D02*
Y4791559D01*
X10955990Y6545990D02*
Y6670000D01*
X10900000Y6490000D02*
X10955990Y6545990D01*
X10539745Y6490000D02*
X10900000D01*
X10807500Y5952000D02*
X10977255D01*
X9715000Y5640000D02*
X9716250Y5638750D01*
X9768750D01*
X9770000Y5637500D01*
X10884500Y4772500D02*
X10938717D01*
X10490000Y4640000D02*
X10499830Y4630171D01*
Y4581470D02*
X10502700Y4578600D01*
X10499830Y4581470D02*
Y4630171D01*
X11740000Y4152500D02*
X11742500Y4155000D01*
X11802500D01*
X10882000Y4770000D02*
X10884500Y4772500D01*
X10160000Y4574500D02*
Y4640000D01*
Y4574500D02*
X10162500Y4572000D01*
X10711250Y6767250D02*
Y6821250D01*
X10712500Y6822500D01*
X10710000Y6766000D02*
X10711250Y6767250D01*
X10830000Y6671000D02*
X10841000Y6660000D01*
X10848500Y6652500D02*
Y6667500D01*
X10830000Y6671000D02*
X10841000Y6660000D01*
X10848500Y6652500D01*
Y6667500D02*
X10851000Y6670000D01*
X10947500D01*
X10952500Y6675000D01*
Y6682500D01*
X10967500D01*
X11420000Y5330000D02*
X11621250Y5128750D01*
X11210000Y7065000D02*
X11869000D01*
X11002500Y5637500D02*
Y5720000D01*
X9742092Y5348033D02*
X9756213D01*
X9714059Y5320000D02*
X9742092Y5348033D01*
X9710000Y5320000D02*
X9714059D01*
X9777426Y5369247D02*
Y5455073D01*
X9756213Y5348033D02*
X9777426Y5369247D01*
X11869000Y7065000D02*
X11995000Y6939000D01*
X11996750Y6940750D02*
X12280750D01*
X11995000Y6939000D02*
X11996750Y6940750D01*
X12280750D02*
X12282500Y6942500D01*
X9717500Y5515000D02*
X9777426Y5455073D01*
X10046000Y6670255D02*
X10072376Y6696630D01*
X10094320D01*
X10046000Y6602500D02*
Y6670255D01*
X10094320Y6696630D02*
X10097190Y6699500D01*
X9995176Y6535570D02*
Y6697419D01*
X9507500Y6662500D02*
X9510000Y6660000D01*
X9507500Y6662500D02*
Y6780000D01*
X9701750Y6515750D02*
Y6601750D01*
Y6515750D02*
X9702500Y6515000D01*
X9946000Y6602500D02*
Y6665278D01*
X9943000Y6668278D02*
X9946000Y6665278D01*
X10532000Y6660000D02*
X10537500Y6665500D01*
Y6777500D01*
X10532000Y7053000D02*
X10535000Y7056000D01*
Y7175000D01*
X9507500Y7055500D02*
Y7170000D01*
Y7055500D02*
X9510000Y7053000D01*
X10341750Y6520750D02*
Y6601750D01*
Y6520750D02*
X10342500Y6520000D01*
X9701000Y6602500D02*
X9701750Y6601750D01*
X10341000Y6602500D02*
X10341750Y6601750D01*
X10096000Y6534746D02*
Y6602500D01*
X10074255Y6513000D02*
X10096000Y6534746D01*
X10017745Y6513000D02*
X10074255D01*
X9995176Y6535570D02*
X10017745Y6513000D01*
X10041771Y6754919D02*
X10097190Y6699500D01*
X9971359Y6754919D02*
X10041771D01*
X9937676Y6721236D02*
X9971359Y6754919D01*
X9937676Y6678579D02*
Y6721236D01*
Y6678579D02*
X9943000Y6673255D01*
Y6668278D02*
Y6673255D01*
X10026250Y6270000D02*
X10090000D01*
X9815947Y5987870D02*
X9897130D01*
X9900000Y5985000D01*
X11757500Y3992500D02*
X11800500D01*
X11740000Y4010000D02*
X11757500Y3992500D01*
X11728972Y4271029D02*
X11731842Y4268159D01*
X11700000Y4271029D02*
X11728972D01*
X11692500Y4278529D02*
X11700000Y4271029D01*
X11692500Y4278529D02*
Y4282500D01*
X9498126Y5450000D02*
X9515700Y5467574D01*
X9392500Y5377500D02*
X9465000Y5450000D01*
X9515700Y5467574D02*
Y5709455D01*
X9342500Y5377500D02*
X9392500D01*
X9465000Y5450000D02*
X9498126D01*
X9440000Y5745774D02*
X9457574Y5728200D01*
X9496955D02*
X9515700Y5709455D01*
X9440000Y5745774D02*
Y5842500D01*
X9457574Y5728200D02*
X9496955D01*
X9355000Y3950000D02*
X9850000D01*
X9884500Y3984500D02*
Y4074755D01*
X9850000Y3950000D02*
X9884500Y3984500D01*
Y4074755D02*
X9912500Y4102755D01*
Y4137500D01*
X9205000Y4100000D02*
X9355000Y3950000D01*
X10884500Y6769500D02*
X10885000Y6770000D01*
X10830000Y6769000D02*
X10830500Y6769500D01*
X10884500D01*
X10780215Y6560000D02*
X10825000D01*
X9794169Y6317287D02*
X9794400Y6317056D01*
X9793938Y6367379D02*
X9794169Y6367148D01*
Y6317287D02*
Y6367148D01*
X9808938Y5994879D02*
X9815947Y5987870D01*
X9901250Y5986250D02*
X9958750D01*
X9960000Y5987500D01*
X9900000Y5985000D02*
X9901250Y5986250D01*
X9624469Y6325887D02*
Y6381848D01*
Y6325887D02*
X9625000Y6325356D01*
X9623938Y6382379D02*
X9624469Y6381848D01*
X9485000Y4087500D02*
Y4143000D01*
X9490000Y4148000D01*
X9338500Y4146500D02*
X9340000Y4148000D01*
X9267500Y4145000D02*
X9269000Y4146500D01*
X9338500D01*
X9205000Y4100000D02*
Y4274426D01*
X9222574Y4292000D01*
X9340000D01*
X10317500Y4057574D02*
Y4161317D01*
X10205000Y4135000D02*
X10206250Y4136250D01*
X10122427Y4197574D02*
X10281243D01*
X10317500Y4161317D01*
X10284926Y4025000D02*
X10317500Y4057574D01*
X10206250Y4136250D02*
X10258750D01*
X10260000Y4137500D01*
X9952500Y3967500D02*
Y4023500D01*
X10445500Y4767500D02*
X10448000Y4770000D01*
X10390000Y4767500D02*
X10445500D01*
X10287500Y4310000D02*
X10290000Y4307500D01*
X10248750Y4312500D02*
X10251250Y4310000D01*
X10287500D01*
X9715000Y5515000D02*
X9717500D01*
X10730000Y5330000D02*
X11420000D01*
X9902000Y4160000D02*
X9905000Y4157000D01*
X9890000Y4160000D02*
X9902000D01*
X9905000Y4145000D02*
Y4157000D01*
Y4145000D02*
X9912500Y4137500D01*
X9996124Y4199631D02*
Y4233876D01*
X10045755Y4150000D02*
X10079644D01*
X9996124Y4199631D02*
X10045755Y4150000D01*
X10079644D02*
X10098572Y4131072D01*
X9987500Y4242285D02*
X9987715D01*
X9996124Y4233876D01*
X9987285Y4242285D02*
X9987715D01*
X9969570Y4260000D02*
X9987285Y4242285D01*
X9890000Y4260000D02*
X9969570D01*
X10187856Y4025000D02*
X10284926D01*
X10072500Y4247500D02*
X10122427Y4197574D01*
X10098572Y4028572D02*
X10102144Y4025000D01*
X10098572Y4028572D02*
Y4131072D01*
X10699785Y6560000D02*
X10704893Y6565108D01*
Y6668893D01*
X10710000Y6674000D01*
X10726000Y6672500D02*
X10828500D01*
X10721750Y6668250D02*
X10726000Y6672500D01*
X10721750Y6663250D02*
Y6668250D01*
X10711000Y6674000D02*
X10721750Y6663250D01*
D45*
X11512500Y6317500D02*
X11530000Y6300000D01*
X11512500Y6317500D02*
Y6337500D01*
X11530000Y6080000D02*
Y6300000D01*
X9849250Y6605750D02*
Y6734250D01*
X9846000Y6602500D02*
X9849250Y6605750D01*
X10151000Y6607500D02*
Y6658716D01*
X10146000Y6602500D02*
X10151000Y6607500D01*
X10182500Y6725735D02*
Y6732500D01*
X10154000Y6697235D02*
X10182500Y6725735D01*
X10154000Y6661716D02*
Y6697235D01*
X10151000Y6658716D02*
X10154000Y6661716D01*
X9849250Y6734250D02*
X9852500Y6737500D01*
X9588284Y5742500D02*
Y5763284D01*
Y5742500D02*
X9598284Y5732500D01*
X9600000D01*
X9767500Y5888300D02*
X9769000Y5889800D01*
X9767500Y5846513D02*
Y5888300D01*
X9734835Y5813848D02*
X9767500Y5846513D01*
X9638848Y5813848D02*
X9734835D01*
X9588284Y5763284D02*
X9638848Y5813848D01*
X9585526Y5596974D02*
Y5647500D01*
X9595526Y5657500D01*
X9600000D01*
X9585526Y5596974D02*
X9616716Y5565784D01*
Y5518284D02*
X9620000Y5515000D01*
X9616716Y5518284D02*
Y5565784D01*
X9794400Y6170576D02*
Y6231343D01*
Y6170576D02*
X9807500Y6157476D01*
Y6101300D02*
Y6157476D01*
Y6101300D02*
X9809000Y6099800D01*
X9440000Y6002500D02*
X9460000Y6022500D01*
Y6070000D02*
X9470000Y6080000D01*
X9460000Y6022500D02*
Y6070000D01*
X9440000Y5937500D02*
Y6002500D01*
X9557500Y6072500D02*
X9675784D01*
X9550000Y6080000D02*
X9557500Y6072500D01*
X9675784D02*
X9678084Y6074800D01*
X9687500D01*
X9689000Y6076300D01*
Y6099800D01*
X9679018Y6173481D02*
X9697106D01*
X9727500Y6143087D01*
X9625000Y6227500D02*
Y6229644D01*
Y6227500D02*
X9679018Y6173481D01*
X9727500Y6101300D02*
Y6143087D01*
Y6101300D02*
X9729000Y6099800D01*
X9810500Y5833000D02*
Y5888300D01*
X9715000Y5737500D02*
X9810500Y5833000D01*
X9809000Y5889800D02*
X9810500Y5888300D01*
X9715000Y5735000D02*
Y5737500D01*
X9440000Y5937500D02*
X9445000Y5942500D01*
D46*
X9729000Y5889800D02*
Y5994817D01*
X9726438Y5997379D02*
X9729000Y5994817D01*
X9769000Y5994800D02*
Y6099800D01*
D47*
X9490000Y4148000D02*
X9502000D01*
X9528500Y4174500D02*
Y4186500D01*
X9552000Y4210000D02*
X9610000D01*
X9502000Y4148000D02*
X9528500Y4174500D01*
Y4186500D02*
X9552000Y4210000D01*
D48*
X11702500Y7189000D02*
D03*
X11995000Y6685000D02*
D03*
Y6939000D02*
D03*
Y7193000D02*
D03*
X12028500Y4765000D02*
D03*
X12282500Y5019000D02*
D03*
X12028500D02*
D03*
X12282500Y5273000D02*
D03*
X12028500D02*
D03*
X12270000Y5850000D02*
D03*
X12274000Y6140000D02*
D03*
Y5560000D02*
D03*
X12282500Y7196500D02*
D03*
Y6942500D02*
D03*
Y6688500D02*
D03*
X12028500Y3968500D02*
D03*
X12282500Y4222500D02*
D03*
X12028500D02*
D03*
X12282500Y4476500D02*
D03*
X12028500D02*
D03*
D49*
X11702500Y6935000D02*
D03*
X11995000Y6431000D02*
D03*
X12282500Y4765000D02*
D03*
Y6434500D02*
D03*
Y3968500D02*
D03*
D50*
X11002500Y5802500D02*
D03*
Y5637500D02*
D03*
D51*
X9732000Y6710000D02*
D03*
X10310000D02*
D03*
D52*
X12016000Y5850000D02*
D03*
X12020000Y6140000D02*
D03*
Y5560000D02*
D03*
D53*
X9342500Y5377500D02*
D03*
D54*
X9352500Y5620000D02*
D03*
D55*
X10665000Y4710000D02*
D03*
Y4767500D02*
D03*
X11392500Y6657500D02*
D03*
X10687500Y4882500D02*
D03*
X11255000Y4787500D02*
D03*
X11342500Y4880000D02*
D03*
X10386000Y5775000D02*
D03*
X9770000Y5637500D02*
D03*
X11170000Y4787500D02*
D03*
X10938717Y4772500D02*
D03*
X11080000Y4787500D02*
D03*
X11007500D02*
D03*
X10587912Y5142500D02*
D03*
X10502700Y4578600D02*
D03*
X11802500Y4155000D02*
D03*
X10160000Y4640000D02*
D03*
X10305000Y4637500D02*
D03*
X10055000Y4635000D02*
D03*
X10576800Y5920000D02*
D03*
X10807500Y5952000D02*
D03*
Y6150000D02*
D03*
X10712500Y6822500D02*
D03*
X10087500Y5302500D02*
D03*
X10117500Y5612500D02*
D03*
X12400007Y7000004D02*
D03*
Y6600004D02*
D03*
Y6200003D02*
D03*
Y5800003D02*
D03*
Y5400003D02*
D03*
Y4600002D02*
D03*
Y3800002D02*
D03*
X12300007Y6000003D02*
D03*
X12200007Y5400003D02*
D03*
Y3800002D02*
D03*
X12100007Y6000003D02*
D03*
X11900006Y5200003D02*
D03*
X11700006Y6800004D02*
D03*
X11600006Y5400003D02*
D03*
X11500006Y7200004D02*
D03*
X11400006Y4600002D02*
D03*
X11300006Y5200003D02*
D03*
X11200006Y4600002D02*
D03*
X11100006Y7200004D02*
D03*
X11000006Y7000004D02*
D03*
Y6200003D02*
D03*
Y4600002D02*
D03*
X11100006Y4400002D02*
D03*
X10800006Y5400003D02*
D03*
X10900006Y5200003D02*
D03*
X10800006Y3800002D02*
D03*
X10700006Y5600003D02*
D03*
X10600006Y4200002D02*
D03*
Y3800002D02*
D03*
X10400006Y4600002D02*
D03*
Y3800002D02*
D03*
X10300006Y7200004D02*
D03*
Y6800004D02*
D03*
X10200006Y6200003D02*
D03*
Y5800003D02*
D03*
Y3800002D02*
D03*
X10100005Y7200004D02*
D03*
X10000005Y7000004D02*
D03*
X10100005Y6800004D02*
D03*
Y6000003D02*
D03*
Y4800003D02*
D03*
X10000005Y3800002D02*
D03*
X9900005Y7200004D02*
D03*
X9800005Y5000003D02*
D03*
Y3800002D02*
D03*
X9700005Y7200004D02*
D03*
Y6800004D02*
D03*
X9600005Y3800002D02*
D03*
X9500005Y6400003D02*
D03*
X9400005Y6200003D02*
D03*
X9500005Y5200003D02*
D03*
Y4400002D02*
D03*
X9400005Y3800002D02*
D03*
X9300005Y7200004D02*
D03*
X9200005Y7000004D02*
D03*
X9300005Y6800004D02*
D03*
X9200005Y6600004D02*
D03*
X9300005Y6400003D02*
D03*
X9200005Y6200003D02*
D03*
X9300005Y6000003D02*
D03*
X9200005Y5800003D02*
D03*
Y5000003D02*
D03*
Y4600002D02*
D03*
Y3800002D02*
D03*
X10567500Y6152500D02*
D03*
X11649646Y5609850D02*
D03*
X10695000Y4155000D02*
D03*
Y4232500D02*
D03*
X10837500Y5532500D02*
D03*
X11002500Y5555000D02*
D03*
X11170000D02*
D03*
Y5720000D02*
D03*
X11002500D02*
D03*
X10835000Y5717500D02*
D03*
X11702500Y6402500D02*
D03*
X11798350Y4936051D02*
D03*
X10770000Y4605000D02*
D03*
X9710000Y5320000D02*
D03*
X10090000Y6270000D02*
D03*
X9995176Y6697419D02*
D03*
X10185000Y6965000D02*
D03*
X10097190Y6699500D02*
D03*
X10182500Y6732500D02*
D03*
X9852500Y6737500D02*
D03*
X9900000Y5985000D02*
D03*
X11800500Y3992500D02*
D03*
X11595000Y6112500D02*
D03*
X10186924Y5485908D02*
D03*
X10172795Y5370908D02*
D03*
X9688918Y4046710D02*
D03*
X9748918D02*
D03*
X9808917D02*
D03*
X9807227Y4636687D02*
D03*
X9747227D02*
D03*
X9687228D02*
D03*
X9807227Y4576687D02*
D03*
X9747227D02*
D03*
X9687228D02*
D03*
X11314646Y5537350D02*
D03*
X10770000Y4682500D02*
D03*
X10587500Y5665000D02*
D03*
X10548500Y5720000D02*
D03*
X10885000Y6770000D02*
D03*
X10930000Y7105000D02*
D03*
X10535000Y7175000D02*
D03*
X10537500Y6777500D02*
D03*
X10342500Y6520000D02*
D03*
X9702500Y6515000D02*
D03*
X9507500Y7170000D02*
D03*
Y6780000D02*
D03*
X11310000Y6805000D02*
D03*
X10825000Y6560000D02*
D03*
X9793938Y6367379D02*
D03*
X9623938Y6382379D02*
D03*
X9808938Y5994879D02*
D03*
X9726438Y5997379D02*
D03*
X9485000Y4087500D02*
D03*
X11731842Y4268159D02*
D03*
X9267500Y4145000D02*
D03*
X10680000Y4425000D02*
D03*
X10390000Y4767500D02*
D03*
X9952500Y3967500D02*
D03*
X10260000Y4137500D02*
D03*
X10290000Y4307500D02*
D03*
X11420000Y5938604D02*
D03*
Y6000000D02*
D03*
X11359904D02*
D03*
Y5938604D02*
D03*
X9865000Y5170000D02*
D03*
X9767500D02*
D03*
X10022500Y4360000D02*
D03*
X10157500Y4362500D02*
D03*
X10345000Y4370000D02*
D03*
X11580000Y5780000D02*
D03*
X10730000Y5330000D02*
D03*
X10728403Y5259618D02*
D03*
X10135000Y5157500D02*
D03*
X11120000Y6822500D02*
D03*
X10932500Y6947500D02*
D03*
X10755000Y6950000D02*
D03*
X10747500Y7180000D02*
D03*
X10932500Y7027500D02*
D03*
X11312500Y6905000D02*
D03*
X11370000Y6972500D02*
D03*
X10932500Y6870000D02*
D03*
X11210000Y7065000D02*
D03*
X11599634Y6281911D02*
D03*
X11621250Y5128750D02*
D03*
X11621250Y5211250D02*
D03*
X11620000Y5710000D02*
D03*
X11530000Y6080000D02*
D03*
X11367134Y6171911D02*
D03*
X11630000Y6180000D02*
D03*
X9850000Y6970000D02*
D03*
D56*
X10405000Y5345000D02*
D03*
Y5455000D02*
D03*
X10515000D02*
D03*
Y5345000D02*
D03*
%TF.MD5,5edee552131d7f231e2716660c7523d0*%
M02*
