%TF.GenerationSoftware,Altium Limited,Altium Designer,23.1.1 (15)*%
G04 Layer_Color=128*
%FSLAX45Y45*%
%MOMM*%
%TF.SameCoordinates,F9E8136A-E86D-4813-A5E9-63B8E08E304F*%
%TF.FilePolarity,Positive*%
%TF.FileFunction,Drillmap*%
%TF.Part,Single*%
G01*
G75*
%TA.AperFunction,NonConductor*%
%ADD74C,0.12700*%
D74*
X11657500Y7189000D02*
X11747500D01*
X11702500Y7144000D02*
Y7234000D01*
X11657500Y6935000D02*
X11747500D01*
X11702500Y6890000D02*
Y6980000D01*
X11950000Y6431000D02*
X12040000D01*
X11995000Y6386000D02*
Y6476000D01*
X11950000Y6685000D02*
X12040000D01*
X11995000Y6640000D02*
Y6730000D01*
X11950000Y6939000D02*
X12040000D01*
X11995000Y6894000D02*
Y6984000D01*
X11950000Y7193000D02*
X12040000D01*
X11995000Y7148000D02*
Y7238000D01*
X9699500Y6710000D02*
X9764500D01*
X9732000Y6677500D02*
Y6742500D01*
X10277500Y6710000D02*
X10342500D01*
X10310000Y6677500D02*
Y6742500D01*
X12237500Y4765000D02*
X12327500D01*
X12282500Y4720000D02*
Y4810000D01*
X11983500Y4765000D02*
X12073500D01*
X12028500Y4720000D02*
Y4810000D01*
X12237500Y5019000D02*
X12327500D01*
X12282500Y4974000D02*
Y5064000D01*
X11983500Y5019000D02*
X12073500D01*
X12028500Y4974000D02*
Y5064000D01*
X12237500Y5273000D02*
X12327500D01*
X12282500Y5228000D02*
Y5318000D01*
X11983500Y5273000D02*
X12073500D01*
X12028500Y5228000D02*
Y5318000D01*
X11971000Y5850000D02*
X12061000D01*
X12016000Y5805000D02*
Y5895000D01*
X12225000Y5850000D02*
X12315000D01*
X12270000Y5805000D02*
Y5895000D01*
X11975000Y6140000D02*
X12065000D01*
X12020000Y6095000D02*
Y6185000D01*
X12229000Y6140000D02*
X12319000D01*
X12274000Y6095000D02*
Y6185000D01*
X11975000Y5560000D02*
X12065000D01*
X12020000Y5515000D02*
Y5605000D01*
X12229000Y5560000D02*
X12319000D01*
X12274000Y5515000D02*
Y5605000D01*
X12237500Y7196500D02*
X12327500D01*
X12282500Y7151500D02*
Y7241500D01*
X12237500Y6942500D02*
X12327500D01*
X12282500Y6897500D02*
Y6987500D01*
X12237500Y6688500D02*
X12327500D01*
X12282500Y6643500D02*
Y6733500D01*
X12237500Y6434500D02*
X12327500D01*
X12282500Y6389500D02*
Y6479500D01*
X9304400Y5377500D02*
X9380600D01*
X9342500Y5339400D02*
Y5415600D01*
X9314400Y5620000D02*
X9390600D01*
X9352500Y5581900D02*
Y5658100D01*
X12237500Y3968500D02*
X12327500D01*
X12282500Y3923500D02*
Y4013500D01*
X11983500Y3968500D02*
X12073500D01*
X12028500Y3923500D02*
Y4013500D01*
X12237500Y4222500D02*
X12327500D01*
X12282500Y4177500D02*
Y4267500D01*
X11983500Y4222500D02*
X12073500D01*
X12028500Y4177500D02*
Y4267500D01*
X12237500Y4476500D02*
X12327500D01*
X12282500Y4431500D02*
Y4521500D01*
X11983500Y4476500D02*
X12073500D01*
X12028500Y4431500D02*
Y4521500D01*
X10650000Y4710000D02*
X10680000D01*
X10665000Y4695000D02*
Y4725000D01*
X10650000Y4767500D02*
X10680000D01*
X10665000Y4752500D02*
Y4782500D01*
X11377500Y6657500D02*
X11407500D01*
X11392500Y6642500D02*
Y6672500D01*
X10672500Y4882500D02*
X10702500D01*
X10687500Y4867500D02*
Y4897500D01*
X11240000Y4787500D02*
X11270000D01*
X11255000Y4772500D02*
Y4802500D01*
X11327500Y4880000D02*
X11357500D01*
X11342500Y4865000D02*
Y4895000D01*
X10371000Y5775000D02*
X10401000D01*
X10386000Y5760000D02*
Y5790000D01*
X9755000Y5637500D02*
X9785000D01*
X9770000Y5622500D02*
Y5652500D01*
X11155000Y4787500D02*
X11185000D01*
X11170000Y4772500D02*
Y4802500D01*
X10923717Y4772500D02*
X10953716D01*
X10938717Y4757500D02*
Y4787500D01*
X11065000D02*
X11095000D01*
X11080000Y4772500D02*
Y4802500D01*
X10992500Y4787500D02*
X11022500D01*
X11007500Y4772500D02*
Y4802500D01*
X10572912Y5142500D02*
X10602912D01*
X10587912Y5127500D02*
Y5157500D01*
X10487700Y4578600D02*
X10517700D01*
X10502700Y4563600D02*
Y4593600D01*
X11787500Y4155000D02*
X11817500D01*
X11802500Y4140000D02*
Y4170000D01*
X10145000Y4640000D02*
X10175000D01*
X10160000Y4625000D02*
Y4655000D01*
X10290000Y4637500D02*
X10320000D01*
X10305000Y4622500D02*
Y4652500D01*
X10040000Y4635000D02*
X10070000D01*
X10055000Y4620000D02*
Y4650000D01*
X10561800Y5920000D02*
X10591800D01*
X10576800Y5905000D02*
Y5935000D01*
X10792500Y5952000D02*
X10822500D01*
X10807500Y5937000D02*
Y5967000D01*
X10792500Y6150000D02*
X10822500D01*
X10807500Y6135000D02*
Y6165000D01*
X10697500Y6822500D02*
X10727500D01*
X10712500Y6807500D02*
Y6837500D01*
X10072500Y5302500D02*
X10102500D01*
X10087500Y5287500D02*
Y5317500D01*
X10102500Y5612500D02*
X10132500D01*
X10117500Y5597500D02*
Y5627500D01*
X12385007Y7000004D02*
X12415007D01*
X12400007Y6985004D02*
Y7015004D01*
X12385007Y6600004D02*
X12415007D01*
X12400007Y6585004D02*
Y6615004D01*
X12385007Y6200003D02*
X12415007D01*
X12400007Y6185003D02*
Y6215003D01*
X12385007Y5800003D02*
X12415007D01*
X12400007Y5785003D02*
Y5815003D01*
X12385007Y5400003D02*
X12415007D01*
X12400007Y5385003D02*
Y5415003D01*
X12385007Y4600002D02*
X12415007D01*
X12400007Y4585003D02*
Y4615002D01*
X12385007Y3800002D02*
X12415007D01*
X12400007Y3785002D02*
Y3815002D01*
X12285007Y6000003D02*
X12315007D01*
X12300007Y5985003D02*
Y6015003D01*
X12185007Y5400003D02*
X12215007D01*
X12200007Y5385003D02*
Y5415003D01*
X12185007Y3800002D02*
X12215007D01*
X12200007Y3785002D02*
Y3815002D01*
X12085007Y6000003D02*
X12115007D01*
X12100007Y5985003D02*
Y6015003D01*
X11885006Y5200003D02*
X11915006D01*
X11900006Y5185003D02*
Y5215003D01*
X11685006Y6800004D02*
X11715006D01*
X11700006Y6785004D02*
Y6815004D01*
X11585006Y5400003D02*
X11615006D01*
X11600006Y5385003D02*
Y5415003D01*
X11485006Y7200004D02*
X11515006D01*
X11500006Y7185004D02*
Y7215004D01*
X11385006Y4600002D02*
X11415006D01*
X11400006Y4585003D02*
Y4615002D01*
X11285006Y5200003D02*
X11315006D01*
X11300006Y5185003D02*
Y5215003D01*
X11185006Y4600002D02*
X11215006D01*
X11200006Y4585003D02*
Y4615002D01*
X11085006Y7200004D02*
X11115006D01*
X11100006Y7185004D02*
Y7215004D01*
X10985006Y7000004D02*
X11015006D01*
X11000006Y6985004D02*
Y7015004D01*
X10985006Y6200003D02*
X11015006D01*
X11000006Y6185003D02*
Y6215003D01*
X10985006Y4600002D02*
X11015006D01*
X11000006Y4585003D02*
Y4615002D01*
X11085006Y4400002D02*
X11115006D01*
X11100006Y4385002D02*
Y4415002D01*
X10785006Y5400003D02*
X10815006D01*
X10800006Y5385003D02*
Y5415003D01*
X10885006Y5200003D02*
X10915006D01*
X10900006Y5185003D02*
Y5215003D01*
X10785006Y3800002D02*
X10815006D01*
X10800006Y3785002D02*
Y3815002D01*
X10685006Y5600003D02*
X10715006D01*
X10700006Y5585003D02*
Y5615003D01*
X10585006Y4200002D02*
X10615006D01*
X10600006Y4185002D02*
Y4215002D01*
X10585006Y3800002D02*
X10615006D01*
X10600006Y3785002D02*
Y3815002D01*
X10385006Y4600002D02*
X10415006D01*
X10400006Y4585003D02*
Y4615002D01*
X10385006Y3800002D02*
X10415006D01*
X10400006Y3785002D02*
Y3815002D01*
X10285006Y7200004D02*
X10315006D01*
X10300006Y7185004D02*
Y7215004D01*
X10285006Y6800004D02*
X10315006D01*
X10300006Y6785004D02*
Y6815004D01*
X10185006Y6200003D02*
X10215005D01*
X10200006Y6185003D02*
Y6215003D01*
X10185006Y5800003D02*
X10215005D01*
X10200006Y5785003D02*
Y5815003D01*
X10185006Y3800002D02*
X10215005D01*
X10200006Y3785002D02*
Y3815002D01*
X10085005Y7200004D02*
X10115005D01*
X10100005Y7185004D02*
Y7215004D01*
X9985005Y7000004D02*
X10015005D01*
X10000005Y6985004D02*
Y7015004D01*
X10085005Y6800004D02*
X10115005D01*
X10100005Y6785004D02*
Y6815004D01*
X10085005Y6000003D02*
X10115005D01*
X10100005Y5985003D02*
Y6015003D01*
X10085005Y4800003D02*
X10115005D01*
X10100005Y4785003D02*
Y4815003D01*
X9985005Y3800002D02*
X10015005D01*
X10000005Y3785002D02*
Y3815002D01*
X9885005Y7200004D02*
X9915005D01*
X9900005Y7185004D02*
Y7215004D01*
X9785005Y5000003D02*
X9815005D01*
X9800005Y4985003D02*
Y5015003D01*
X9785005Y3800002D02*
X9815005D01*
X9800005Y3785002D02*
Y3815002D01*
X9685005Y7200004D02*
X9715005D01*
X9700005Y7185004D02*
Y7215004D01*
X9685005Y6800004D02*
X9715005D01*
X9700005Y6785004D02*
Y6815004D01*
X9585005Y3800002D02*
X9615005D01*
X9600005Y3785002D02*
Y3815002D01*
X9485005Y6400003D02*
X9515005D01*
X9500005Y6385003D02*
Y6415003D01*
X9385005Y6200003D02*
X9415005D01*
X9400005Y6185003D02*
Y6215003D01*
X9485005Y5200003D02*
X9515005D01*
X9500005Y5185003D02*
Y5215003D01*
X9485005Y4400002D02*
X9515005D01*
X9500005Y4385002D02*
Y4415002D01*
X9385005Y3800002D02*
X9415005D01*
X9400005Y3785002D02*
Y3815002D01*
X9285005Y7200004D02*
X9315005D01*
X9300005Y7185004D02*
Y7215004D01*
X9185005Y7000004D02*
X9215005D01*
X9200005Y6985004D02*
Y7015004D01*
X9285005Y6800004D02*
X9315005D01*
X9300005Y6785004D02*
Y6815004D01*
X9185005Y6600004D02*
X9215005D01*
X9200005Y6585004D02*
Y6615004D01*
X9285005Y6400003D02*
X9315005D01*
X9300005Y6385003D02*
Y6415003D01*
X9185005Y6200003D02*
X9215005D01*
X9200005Y6185003D02*
Y6215003D01*
X9285005Y6000003D02*
X9315005D01*
X9300005Y5985003D02*
Y6015003D01*
X9185005Y5800003D02*
X9215005D01*
X9200005Y5785003D02*
Y5815003D01*
X9185005Y5000003D02*
X9215005D01*
X9200005Y4985003D02*
Y5015003D01*
X9185005Y4600002D02*
X9215005D01*
X9200005Y4585003D02*
Y4615002D01*
X9185005Y3800002D02*
X9215005D01*
X9200005Y3785002D02*
Y3815002D01*
X10552500Y6152500D02*
X10582500D01*
X10567500Y6137500D02*
Y6167500D01*
X11634646Y5609850D02*
X11664646D01*
X11649646Y5594850D02*
Y5624850D01*
X10680000Y4155000D02*
X10710000D01*
X10695000Y4140000D02*
Y4170000D01*
X10680000Y4232500D02*
X10710000D01*
X10695000Y4217500D02*
Y4247500D01*
X10822500Y5532500D02*
X10852500D01*
X10837500Y5517500D02*
Y5547500D01*
X10987500Y5555000D02*
X11017500D01*
X11002500Y5540000D02*
Y5570000D01*
X11155000Y5555000D02*
X11185000D01*
X11170000Y5540000D02*
Y5570000D01*
X11155000Y5720000D02*
X11185000D01*
X11170000Y5705000D02*
Y5735000D01*
X10987500Y5720000D02*
X11017500D01*
X11002500Y5705000D02*
Y5735000D01*
X10820000Y5717500D02*
X10850000D01*
X10835000Y5702500D02*
Y5732500D01*
X11687500Y6402500D02*
X11717500D01*
X11702500Y6387500D02*
Y6417500D01*
X11783350Y4936051D02*
X11813350D01*
X11798350Y4921051D02*
Y4951051D01*
X10755000Y4605000D02*
X10785000D01*
X10770000Y4590000D02*
Y4620000D01*
X9695000Y5320000D02*
X9725000D01*
X9710000Y5305000D02*
Y5335000D01*
X10075000Y6270000D02*
X10105000D01*
X10090000Y6255000D02*
Y6285000D01*
X9980176Y6697419D02*
X10010176D01*
X9995176Y6682419D02*
Y6712419D01*
X10170000Y6965000D02*
X10200000D01*
X10185000Y6950000D02*
Y6980000D01*
X10082190Y6699500D02*
X10112190D01*
X10097190Y6684500D02*
Y6714500D01*
X10167500Y6732500D02*
X10197500D01*
X10182500Y6717500D02*
Y6747500D01*
X9837500Y6737500D02*
X9867500D01*
X9852500Y6722500D02*
Y6752500D01*
X9885000Y5985000D02*
X9915000D01*
X9900000Y5970000D02*
Y6000000D01*
X11785500Y3992500D02*
X11815500D01*
X11800500Y3977500D02*
Y4007500D01*
X11580000Y6112500D02*
X11610000D01*
X11595000Y6097500D02*
Y6127500D01*
X10171924Y5485908D02*
X10201924D01*
X10186924Y5470908D02*
Y5500908D01*
X10157795Y5370908D02*
X10187795D01*
X10172795Y5355908D02*
Y5385908D01*
X9673918Y4046710D02*
X9703918D01*
X9688918Y4031710D02*
Y4061710D01*
X9733918Y4046710D02*
X9763917D01*
X9748918Y4031710D02*
Y4061710D01*
X9793917Y4046710D02*
X9823917D01*
X9808917Y4031710D02*
Y4061710D01*
X9792227Y4636687D02*
X9822227D01*
X9807227Y4621687D02*
Y4651687D01*
X9732227Y4636687D02*
X9762227D01*
X9747227Y4621687D02*
Y4651687D01*
X9672228Y4636687D02*
X9702227D01*
X9687228Y4621687D02*
Y4651687D01*
X9792227Y4576687D02*
X9822227D01*
X9807227Y4561687D02*
Y4591687D01*
X9732227Y4576687D02*
X9762227D01*
X9747227Y4561687D02*
Y4591687D01*
X9672228Y4576687D02*
X9702227D01*
X9687228Y4561687D02*
Y4591687D01*
X11299646Y5537350D02*
X11329646D01*
X11314646Y5522350D02*
Y5552350D01*
X10755000Y4682500D02*
X10785000D01*
X10770000Y4667500D02*
Y4697500D01*
X10572500Y5665000D02*
X10602500D01*
X10587500Y5650000D02*
Y5680000D01*
X10533500Y5720000D02*
X10563500D01*
X10548500Y5705000D02*
Y5735000D01*
X10870000Y6770000D02*
X10900000D01*
X10885000Y6755000D02*
Y6785000D01*
X10915000Y7105000D02*
X10945000D01*
X10930000Y7090000D02*
Y7120000D01*
X10520000Y7175000D02*
X10550000D01*
X10535000Y7160000D02*
Y7190000D01*
X10522500Y6777500D02*
X10552500D01*
X10537500Y6762500D02*
Y6792500D01*
X10327500Y6520000D02*
X10357500D01*
X10342500Y6505000D02*
Y6535000D01*
X9687500Y6515000D02*
X9717500D01*
X9702500Y6500000D02*
Y6530000D01*
X9492500Y7170000D02*
X9522500D01*
X9507500Y7155000D02*
Y7185000D01*
X9492500Y6780000D02*
X9522500D01*
X9507500Y6765000D02*
Y6795000D01*
X11295000Y6805000D02*
X11325000D01*
X11310000Y6790000D02*
Y6820000D01*
X10810000Y6560000D02*
X10840000D01*
X10825000Y6545000D02*
Y6575000D01*
X9778938Y6367379D02*
X9808938D01*
X9793938Y6352379D02*
Y6382379D01*
X9608938D02*
X9638938D01*
X9623938Y6367379D02*
Y6397379D01*
X9793938Y5994879D02*
X9823938D01*
X9808938Y5979879D02*
Y6009879D01*
X9711438Y5997379D02*
X9741438D01*
X9726438Y5982379D02*
Y6012379D01*
X9470000Y4087500D02*
X9500000D01*
X9485000Y4072500D02*
Y4102500D01*
X11716842Y4268159D02*
X11746842D01*
X11731842Y4253159D02*
Y4283159D01*
X9252500Y4145000D02*
X9282500D01*
X9267500Y4130000D02*
Y4160000D01*
X10665000Y4425000D02*
X10695000D01*
X10680000Y4410000D02*
Y4440000D01*
X10375000Y4767500D02*
X10405000D01*
X10390000Y4752500D02*
Y4782500D01*
X9937500Y3967500D02*
X9967500D01*
X9952500Y3952500D02*
Y3982500D01*
X10245000Y4137500D02*
X10275000D01*
X10260000Y4122500D02*
Y4152500D01*
X10275000Y4307500D02*
X10305000D01*
X10290000Y4292500D02*
Y4322500D01*
X11405000Y5938604D02*
X11435000D01*
X11420000Y5923604D02*
Y5953604D01*
X11405000Y6000000D02*
X11435000D01*
X11420000Y5985000D02*
Y6015000D01*
X11344904Y6000000D02*
X11374904D01*
X11359904Y5985000D02*
Y6015000D01*
X11344904Y5938604D02*
X11374904D01*
X11359904Y5923604D02*
Y5953604D01*
X9850000Y5170000D02*
X9880000D01*
X9865000Y5155000D02*
Y5185000D01*
X9752500Y5170000D02*
X9782500D01*
X9767500Y5155000D02*
Y5185000D01*
X10007500Y4360000D02*
X10037500D01*
X10022500Y4345000D02*
Y4375000D01*
X10142500Y4362500D02*
X10172500D01*
X10157500Y4347500D02*
Y4377500D01*
X10330000Y4370000D02*
X10360000D01*
X10345000Y4355000D02*
Y4385000D01*
X11565000Y5780000D02*
X11595000D01*
X11580000Y5765000D02*
Y5795000D01*
X10715000Y5330000D02*
X10745000D01*
X10730000Y5315000D02*
Y5345000D01*
X10713404Y5259618D02*
X10743403D01*
X10728403Y5244618D02*
Y5274618D01*
X10120000Y5157500D02*
X10150000D01*
X10135000Y5142500D02*
Y5172500D01*
X10395000Y5345000D02*
X10415000D01*
X10405000Y5335000D02*
Y5355000D01*
X10395000Y5455000D02*
X10415000D01*
X10405000Y5445000D02*
Y5465000D01*
X10505000Y5455000D02*
X10525000D01*
X10515000Y5445000D02*
Y5465000D01*
X10505000Y5345000D02*
X10525000D01*
X10515000Y5335000D02*
Y5355000D01*
X11105000Y6822500D02*
X11135000D01*
X11120000Y6807500D02*
Y6837500D01*
X10917500Y6947500D02*
X10947500D01*
X10932500Y6932500D02*
Y6962500D01*
X10740000Y6950000D02*
X10770000D01*
X10755000Y6935000D02*
Y6965000D01*
X10732500Y7180000D02*
X10762500D01*
X10747500Y7165000D02*
Y7195000D01*
X10917500Y7027500D02*
X10947500D01*
X10932500Y7012500D02*
Y7042500D01*
X11297500Y6905000D02*
X11327500D01*
X11312500Y6890000D02*
Y6920000D01*
X11355000Y6972500D02*
X11385000D01*
X11370000Y6957500D02*
Y6987500D01*
X10917500Y6870000D02*
X10947500D01*
X10932500Y6855000D02*
Y6885000D01*
X11195000Y7065000D02*
X11225000D01*
X11210000Y7050000D02*
Y7080000D01*
X11584634Y6281911D02*
X11614634D01*
X11599634Y6266911D02*
Y6296911D01*
X11606250Y5128750D02*
X11636250D01*
X11621250Y5113750D02*
Y5143750D01*
X11606250Y5211250D02*
X11636250D01*
X11621250Y5196250D02*
Y5226250D01*
X11605000Y5710000D02*
X11635000D01*
X11620000Y5695000D02*
Y5725000D01*
X11515000Y6080000D02*
X11545000D01*
X11530000Y6065000D02*
Y6095000D01*
X11352134Y6171911D02*
X11382134D01*
X11367134Y6156911D02*
Y6186911D01*
X11615000Y6180000D02*
X11645000D01*
X11630000Y6165000D02*
Y6195000D01*
X9835000Y6970000D02*
X9865000D01*
X9850000Y6955000D02*
Y6985000D01*
%TF.MD5,16a463726174d9696c1ec3a007c08a65*%
M02*
