M48
;Layer_Color=9474304
;FILE_FORMAT=4:4
METRIC,LZ
;TYPE=PLATED
T1F00S00C0.2000
T2F00S00C0.3000
T3F00S00C0.7620
T4F00S00C0.9000
;TYPE=NON_PLATED
T5F00S00C0.6500
%
T01
X010405Y005345
Y005455
X010515
Y005345
T02
X00920001Y0038
X00940001
X00960001
X00980001
X01000001
X01020001
X01040001
X01060001
X01080001
X0099525Y0039675
X01220001Y0038
X01240001
Y0046
Y0054
X01220001
X01240001Y0058
X01230001Y006
X01210001
X01240001Y0062
Y0066
Y007
X01170001Y0068
X01131Y006805
X0113125Y006905
X01137Y0069725
X01121Y007065
X01110001Y0072
X01093Y007105
X0109325Y0070275
Y0069475
Y00687
X010885Y00677
X0107125Y0068225
X010755Y00695
X0107475Y00718
X010535Y007175
X01030001Y0072
X01010001
X00990001
X00970001
X0095075Y00717
X00930001Y0072
X00920001Y007
X00930001Y0068
X0095075Y00678
X00970001Y0068
X0098525Y0067375
X00999518Y00669742
X01009719Y0066995
X01010001Y0068
X0101825Y0067325
X01030001Y0068
X0105375Y0067775
X0103425Y00652
X01020001Y0062
X01009Y00627
X01010001Y006
X0099Y005985
X00980894Y00599488
X00972644Y00599738
X00977Y0056375
X0101175Y0056125
X01018692Y00548591
X0101728Y00537091
X0100875Y0053025
X010135Y0051575
X009865Y00517
X0097675
X00980001Y005
X00980723Y00463669
X00974723
X00968723
Y00457669
X00974723
X00980723
X010055Y004635
X01016Y00464
X010305Y0046375
X01040001Y0046
X0105027Y0045786
X010665Y00471
Y0047675
X0106875Y0048825
X01077Y0046825
Y004605
X01100001Y0046
X0110075Y0047875
X01108
X01117
X011255
X0113425Y00488
X01140001Y0046
X01120001
X01110001Y0044
X01068Y004425
X010695Y0042325
Y004155
X01060001Y0042
X01026Y0041375
X01029Y0043075
X010345Y00437
X0101575Y0043625
X0100225Y00436
X01010001Y0048
X01039Y0047675
X01093872Y0047725
X01090001Y0052
X0107284Y00525962
X01073Y00533
X01080001Y0054
X0108375Y0055325
X010835Y0057175
X0110025Y00572
Y005555
X01117
X01131465Y00553735
X01117Y00572
X0113599Y0059386
X01142
Y006
X0113599
X01136713Y00617191
X01153Y00608
X011595Y0061125
X01163Y00618
X01159963Y00628191
X0117025Y0064025
X0113925Y0066575
X01112Y0068225
X01100001Y007
X010825Y00656
X0108075Y00615
Y005952
X0105768Y00592
X0105485Y00572
X0105875Y005665
X01070001Y0056
X010386Y005775
X01020001Y0058
X0105675Y0061525
X01100001Y0062
X01158Y00578
X01162Y00571
X01164965Y00560985
X01160001Y0054
X01162125Y00521125
X01162125Y00512875
X01190001Y0052
X01179835Y00493605
X01173184Y00426816
X0118025Y004155
X0118005Y0039925
X01130001Y0052
X01058791Y0051425
X00971Y00532
X00950001Y0052
X00920001Y005
Y0046
X00950001Y0044
X009485Y0040875
X00968892Y00404671
X00974892
X00980892
X0092675Y004145
X00920001Y0058
X00930001Y006
X00940001Y0062
X00920001
X00930001Y0064
X00950001
X00962394Y00638238
X00979394Y00636738
X0097025Y006515
X00920001Y0066
X00985Y00697
X01000001Y007
X010185Y006965
X01150001Y0072
T03
X0093425Y0053775
X0093525Y00562
T04
X0120285Y0039685
X0122825
Y0042225
X0120285
Y0044765
X0122825
Y004765
X0120285
Y005019
X0122825
Y005273
X0120285
X01202Y00556
X012274
X01227Y00585
X012016
X01202Y00614
X012274
X0122825Y0064345
Y0066885
Y0069425
Y0071965
X011995Y007193
Y006939
Y006685
Y006431
X0117025Y006935
Y007189
T05
X009732Y00671
X01031
M30
