%TF.GenerationSoftware,Altium Limited,Altium Designer,23.1.1 (15)*%
G04 Layer_Physical_Order=4*
G04 Layer_Color=6736896*
%FSLAX45Y45*%
%MOMM*%
%TF.SameCoordinates,F9E8136A-E86D-4813-A5E9-63B8E08E304F*%
%TF.FilePolarity,Positive*%
%TF.FileFunction,Copper,L4,Inr,Signal*%
%TF.Part,Single*%
G01*
G75*
%TA.AperFunction,ComponentPad*%
%ADD48C,1.50000*%
%ADD49R,1.50000X1.50000*%
%TA.AperFunction,SMDPad,CuDef*%
%ADD50R,1.20000X1.20000*%
%TA.AperFunction,ComponentPad*%
%ADD51C,0.65000*%
%ADD52R,1.50000X1.50000*%
%TA.AperFunction,ViaPad*%
%ADD53R,2.52400X1.52400*%
%ADD54R,2.52400X1.52400*%
%ADD55C,0.45000*%
%ADD56C,0.50000*%
G36*
X12517500Y3702500D02*
X9131300D01*
Y7404100D01*
X12517500D01*
Y3702500D01*
D02*
G37*
%LPC*%
G36*
X11509256Y7246504D02*
X11490757D01*
X11473666Y7239425D01*
X11460585Y7226344D01*
X11453506Y7209253D01*
Y7190754D01*
X11460585Y7173664D01*
X11473666Y7160583D01*
X11490757Y7153504D01*
X11509256D01*
X11526346Y7160583D01*
X11539427Y7173664D01*
X11546506Y7190754D01*
Y7209253D01*
X11539427Y7226344D01*
X11526346Y7239425D01*
X11509256Y7246504D01*
D02*
G37*
G36*
X11109255D02*
X11090757D01*
X11073666Y7239425D01*
X11060585Y7226344D01*
X11053506Y7209253D01*
Y7190754D01*
X11060585Y7173664D01*
X11073666Y7160583D01*
X11090757Y7153504D01*
X11109255D01*
X11126346Y7160583D01*
X11139427Y7173664D01*
X11146506Y7190754D01*
Y7209253D01*
X11139427Y7226344D01*
X11126346Y7239425D01*
X11109255Y7246504D01*
D02*
G37*
G36*
X10309255D02*
X10290756D01*
X10273666Y7239425D01*
X10260585Y7226344D01*
X10253506Y7209253D01*
Y7190754D01*
X10260585Y7173664D01*
X10273666Y7160583D01*
X10290756Y7153504D01*
X10309255D01*
X10326346Y7160583D01*
X10339426Y7173664D01*
X10346505Y7190754D01*
Y7209253D01*
X10339426Y7226344D01*
X10326346Y7239425D01*
X10309255Y7246504D01*
D02*
G37*
G36*
X10109255D02*
X10090756D01*
X10073665Y7239425D01*
X10060585Y7226344D01*
X10053506Y7209253D01*
Y7190754D01*
X10060585Y7173664D01*
X10073665Y7160583D01*
X10090756Y7153504D01*
X10109255D01*
X10126346Y7160583D01*
X10139426Y7173664D01*
X10146505Y7190754D01*
Y7209253D01*
X10139426Y7226344D01*
X10126346Y7239425D01*
X10109255Y7246504D01*
D02*
G37*
G36*
X9909255D02*
X9890756D01*
X9873665Y7239425D01*
X9860585Y7226344D01*
X9853506Y7209253D01*
Y7190754D01*
X9860585Y7173664D01*
X9873665Y7160583D01*
X9890756Y7153504D01*
X9909255D01*
X9926345Y7160583D01*
X9939426Y7173664D01*
X9946505Y7190754D01*
Y7209253D01*
X9939426Y7226344D01*
X9926345Y7239425D01*
X9909255Y7246504D01*
D02*
G37*
G36*
X9709255D02*
X9690756D01*
X9673665Y7239425D01*
X9660584Y7226344D01*
X9653505Y7209253D01*
Y7190754D01*
X9660584Y7173664D01*
X9673665Y7160583D01*
X9690756Y7153504D01*
X9709255D01*
X9726345Y7160583D01*
X9739426Y7173664D01*
X9746505Y7190754D01*
Y7209253D01*
X9739426Y7226344D01*
X9726345Y7239425D01*
X9709255Y7246504D01*
D02*
G37*
G36*
X9309254D02*
X9290756D01*
X9273665Y7239425D01*
X9260584Y7226344D01*
X9253505Y7209253D01*
Y7190754D01*
X9260584Y7173664D01*
X9273665Y7160583D01*
X9290756Y7153504D01*
X9309254D01*
X9326345Y7160583D01*
X9339426Y7173664D01*
X9346505Y7190754D01*
Y7209253D01*
X9339426Y7226344D01*
X9326345Y7239425D01*
X9309254Y7246504D01*
D02*
G37*
G36*
X10544249Y7221500D02*
X10525751D01*
X10508660Y7214421D01*
X10495579Y7201340D01*
X10488500Y7184249D01*
Y7165750D01*
X10495579Y7148660D01*
X10508660Y7135579D01*
X10525751Y7128500D01*
X10544249D01*
X10561340Y7135579D01*
X10574421Y7148660D01*
X10581500Y7165750D01*
Y7184249D01*
X10574421Y7201340D01*
X10561340Y7214421D01*
X10544249Y7221500D01*
D02*
G37*
G36*
X9516750Y7216500D02*
X9498251D01*
X9481160Y7209421D01*
X9468079Y7196340D01*
X9461000Y7179250D01*
Y7160751D01*
X9468079Y7143660D01*
X9481160Y7130579D01*
X9498251Y7123500D01*
X9516750D01*
X9533840Y7130579D01*
X9546921Y7143660D01*
X9554000Y7160751D01*
Y7179250D01*
X9546921Y7196340D01*
X9533840Y7209421D01*
X9516750Y7216500D01*
D02*
G37*
G36*
X12295533Y7295500D02*
X12269466D01*
X12244287Y7288753D01*
X12221713Y7275720D01*
X12203280Y7257287D01*
X12190247Y7234712D01*
X12183500Y7209533D01*
Y7183466D01*
X12190247Y7158287D01*
X12203280Y7135713D01*
X12221713Y7117280D01*
X12244287Y7104247D01*
X12269466Y7097500D01*
X12295533D01*
X12320712Y7104247D01*
X12343287Y7117280D01*
X12361719Y7135713D01*
X12374753Y7158287D01*
X12381500Y7183466D01*
Y7209533D01*
X12374753Y7234712D01*
X12361719Y7257287D01*
X12343287Y7275720D01*
X12320712Y7288753D01*
X12295533Y7295500D01*
D02*
G37*
G36*
X12008033Y7292000D02*
X11981966D01*
X11956787Y7285253D01*
X11934213Y7272220D01*
X11915780Y7253787D01*
X11902747Y7231213D01*
X11896000Y7206034D01*
Y7179967D01*
X11902747Y7154788D01*
X11915780Y7132213D01*
X11934213Y7113781D01*
X11956787Y7100747D01*
X11981966Y7094000D01*
X12008033D01*
X12033212Y7100747D01*
X12055787Y7113781D01*
X12074219Y7132213D01*
X12087253Y7154788D01*
X12094000Y7179967D01*
Y7206034D01*
X12087253Y7231213D01*
X12074219Y7253787D01*
X12055787Y7272220D01*
X12033212Y7285253D01*
X12008033Y7292000D01*
D02*
G37*
G36*
X11715534Y7288000D02*
X11689467D01*
X11664288Y7281253D01*
X11641713Y7268220D01*
X11623281Y7249787D01*
X11610247Y7227213D01*
X11603500Y7202034D01*
Y7175967D01*
X11610247Y7150788D01*
X11623281Y7128213D01*
X11641713Y7109781D01*
X11664288Y7096747D01*
X11689467Y7090000D01*
X11715534D01*
X11740713Y7096747D01*
X11763287Y7109781D01*
X11781720Y7128213D01*
X11794753Y7150788D01*
X11801500Y7175967D01*
Y7202034D01*
X11794753Y7227213D01*
X11781720Y7249787D01*
X11763287Y7268220D01*
X11740713Y7281253D01*
X11715534Y7288000D01*
D02*
G37*
G36*
X10939249Y7151500D02*
X10920751D01*
X10903660Y7144421D01*
X10890579Y7131340D01*
X10883500Y7114249D01*
Y7095750D01*
X10890579Y7078660D01*
X10903660Y7065579D01*
X10920751Y7058500D01*
X10939249D01*
X10956340Y7065579D01*
X10969421Y7078660D01*
X10976500Y7095750D01*
Y7114249D01*
X10969421Y7131340D01*
X10956340Y7144421D01*
X10939249Y7151500D01*
D02*
G37*
G36*
X12409256Y7046504D02*
X12390757D01*
X12373667Y7039425D01*
X12360586Y7026344D01*
X12358539Y7021402D01*
X12346083Y7018924D01*
X12343287Y7021720D01*
X12320712Y7034753D01*
X12295533Y7041500D01*
X12269466D01*
X12244287Y7034753D01*
X12221713Y7021720D01*
X12203280Y7003287D01*
X12190247Y6980712D01*
X12183500Y6955533D01*
Y6929466D01*
X12190247Y6904287D01*
X12203280Y6881713D01*
X12221713Y6863280D01*
X12244287Y6850247D01*
X12269466Y6843500D01*
X12295533D01*
X12320712Y6850247D01*
X12343287Y6863280D01*
X12361719Y6881713D01*
X12374753Y6904287D01*
X12381500Y6929466D01*
Y6943592D01*
X12390758Y6953504D01*
X12409256D01*
X12426347Y6960583D01*
X12439427Y6973664D01*
X12446506Y6990754D01*
Y7009253D01*
X12439427Y7026344D01*
X12426347Y7039425D01*
X12409256Y7046504D01*
D02*
G37*
G36*
X11219249Y7111500D02*
X11200751D01*
X11183660Y7104421D01*
X11170579Y7091340D01*
X11163500Y7074250D01*
Y7055751D01*
X11170579Y7038660D01*
X11183660Y7025579D01*
X11200751Y7018500D01*
X11219249D01*
X11236340Y7025579D01*
X11249421Y7038660D01*
X11256500Y7055751D01*
Y7074250D01*
X11249421Y7091340D01*
X11236340Y7104421D01*
X11219249Y7111500D01*
D02*
G37*
G36*
X10009255Y7046504D02*
X9990756D01*
X9973665Y7039425D01*
X9960585Y7026344D01*
X9953506Y7009253D01*
Y6990754D01*
X9960585Y6973664D01*
X9973665Y6960583D01*
X9990756Y6953504D01*
X10009255D01*
X10026345Y6960583D01*
X10039426Y6973664D01*
X10046505Y6990754D01*
Y7009253D01*
X10039426Y7026344D01*
X10026345Y7039425D01*
X10009255Y7046504D01*
D02*
G37*
G36*
X9209254D02*
X9190756D01*
X9173665Y7039425D01*
X9160584Y7026344D01*
X9153505Y7009253D01*
Y6990754D01*
X9160584Y6973664D01*
X9173665Y6960583D01*
X9190756Y6953504D01*
X9209254D01*
X9226345Y6960583D01*
X9239426Y6973664D01*
X9246505Y6990754D01*
Y7009253D01*
X9239426Y7026344D01*
X9226345Y7039425D01*
X9209254Y7046504D01*
D02*
G37*
G36*
X9859250Y7016500D02*
X9840751D01*
X9823660Y7009421D01*
X9810579Y6996340D01*
X9803500Y6979249D01*
Y6960751D01*
X9810579Y6943660D01*
X9823660Y6930579D01*
X9840751Y6923500D01*
X9859250D01*
X9876340Y6930579D01*
X9889421Y6943660D01*
X9896500Y6960751D01*
Y6979249D01*
X9889421Y6996340D01*
X9876340Y7009421D01*
X9859250Y7016500D01*
D02*
G37*
G36*
X10194249Y7011500D02*
X10175751D01*
X10158660Y7004421D01*
X10145579Y6991340D01*
X10138500Y6974249D01*
Y6955751D01*
X10145579Y6938660D01*
X10158660Y6925579D01*
X10175751Y6918500D01*
X10194249D01*
X10211340Y6925579D01*
X10224421Y6938660D01*
X10231500Y6955751D01*
Y6974249D01*
X10224421Y6991340D01*
X10211340Y7004421D01*
X10194249Y7011500D01*
D02*
G37*
G36*
X10764249Y6996500D02*
X10745751D01*
X10728660Y6989421D01*
X10715579Y6976340D01*
X10708500Y6959249D01*
Y6940751D01*
X10715579Y6923660D01*
X10728660Y6910579D01*
X10745751Y6903500D01*
X10764249D01*
X10781340Y6910579D01*
X10794421Y6923660D01*
X10801500Y6940751D01*
Y6959249D01*
X10794421Y6976340D01*
X10781340Y6989421D01*
X10764249Y6996500D01*
D02*
G37*
G36*
X11009255Y7046504D02*
X10990757D01*
X10973666Y7039425D01*
X10960585Y7026344D01*
X10953506Y7009253D01*
Y7002877D01*
X10941749Y6994000D01*
X10923251D01*
X10906160Y6986921D01*
X10893079Y6973840D01*
X10886000Y6956749D01*
Y6938251D01*
X10893079Y6921160D01*
X10906160Y6908079D01*
X10923251Y6901000D01*
X10941750D01*
X10958840Y6908079D01*
X10971921Y6921160D01*
X10979000Y6938251D01*
Y6944627D01*
X10990757Y6953504D01*
X11009255D01*
X11026346Y6960583D01*
X11039427Y6973664D01*
X11046506Y6990754D01*
Y7009253D01*
X11039427Y7026344D01*
X11026346Y7039425D01*
X11009255Y7046504D01*
D02*
G37*
G36*
X12008033Y7038000D02*
X11981966D01*
X11956787Y7031253D01*
X11934213Y7018220D01*
X11915780Y6999787D01*
X11902747Y6977213D01*
X11896000Y6952034D01*
Y6925967D01*
X11902747Y6900788D01*
X11915780Y6878213D01*
X11934213Y6859781D01*
X11956787Y6846747D01*
X11981966Y6840000D01*
X12008033D01*
X12033212Y6846747D01*
X12055787Y6859781D01*
X12074219Y6878213D01*
X12087253Y6900788D01*
X12094000Y6925967D01*
Y6952034D01*
X12087253Y6977213D01*
X12074219Y6999787D01*
X12055787Y7018220D01*
X12033212Y7031253D01*
X12008033Y7038000D01*
D02*
G37*
G36*
X11129250Y6869000D02*
X11110751D01*
X11093660Y6861921D01*
X11080579Y6848840D01*
X11073500Y6831749D01*
Y6813251D01*
X11080579Y6796160D01*
X11093660Y6783079D01*
X11110751Y6776000D01*
X11129250D01*
X11146340Y6783079D01*
X11159421Y6796160D01*
X11166500Y6813251D01*
Y6831749D01*
X11159421Y6848840D01*
X11146340Y6861921D01*
X11129250Y6869000D01*
D02*
G37*
G36*
X10721749D02*
X10703251D01*
X10686160Y6861921D01*
X10673079Y6848840D01*
X10666000Y6831749D01*
Y6813251D01*
X10673079Y6796160D01*
X10686160Y6783079D01*
X10703251Y6776000D01*
X10721749D01*
X10738840Y6783079D01*
X10751921Y6796160D01*
X10759000Y6813251D01*
Y6831749D01*
X10751921Y6848840D01*
X10738840Y6861921D01*
X10721749Y6869000D01*
D02*
G37*
G36*
X11319249Y6851500D02*
X11300751D01*
X11283660Y6844421D01*
X11270579Y6831340D01*
X11263500Y6814249D01*
Y6795750D01*
X11270579Y6778660D01*
X11283660Y6765579D01*
X11300751Y6758500D01*
X11319249D01*
X11336340Y6765579D01*
X11349421Y6778660D01*
X11356500Y6795750D01*
Y6814249D01*
X11349421Y6831340D01*
X11336340Y6844421D01*
X11319249Y6851500D01*
D02*
G37*
G36*
X11801500Y7034000D02*
X11603500D01*
Y6836000D01*
X11653649D01*
X11659325Y6823300D01*
X11653507Y6809253D01*
Y6790754D01*
X11660586Y6773664D01*
X11673666Y6760583D01*
X11690757Y6753504D01*
X11709256D01*
X11726346Y6760583D01*
X11739427Y6773664D01*
X11746506Y6790754D01*
Y6809253D01*
X11740688Y6823300D01*
X11746364Y6836000D01*
X11801500D01*
Y7034000D01*
D02*
G37*
G36*
X9309254Y6846503D02*
X9290756D01*
X9273665Y6839424D01*
X9260584Y6826344D01*
X9253505Y6809253D01*
Y6790754D01*
X9260584Y6773664D01*
X9273665Y6760583D01*
X9290756Y6753504D01*
X9309254D01*
X9326345Y6760583D01*
X9339426Y6773664D01*
X9346505Y6790754D01*
Y6809253D01*
X9339426Y6826344D01*
X9326345Y6839424D01*
X9309254Y6846503D01*
D02*
G37*
G36*
X9516750Y6826500D02*
X9498251D01*
X9481160Y6819421D01*
X9468079Y6806340D01*
X9461000Y6789250D01*
Y6770751D01*
X9468079Y6753660D01*
X9481160Y6740579D01*
X9498251Y6733500D01*
X9516750D01*
X9533840Y6740579D01*
X9546921Y6753660D01*
X9554000Y6770751D01*
Y6789250D01*
X9546921Y6806340D01*
X9533840Y6819421D01*
X9516750Y6826500D01*
D02*
G37*
G36*
X10546749Y6824000D02*
X10528250D01*
X10511160Y6816921D01*
X10498079Y6803840D01*
X10491000Y6786749D01*
Y6768251D01*
X10498079Y6751160D01*
X10511160Y6738079D01*
X10528250Y6731000D01*
X10546749D01*
X10563840Y6738079D01*
X10576921Y6751160D01*
X10584000Y6768251D01*
Y6786749D01*
X10576921Y6803840D01*
X10563840Y6816921D01*
X10546749Y6824000D01*
D02*
G37*
G36*
X10894250Y6816500D02*
X10875751D01*
X10858660Y6809421D01*
X10845580Y6796340D01*
X10838501Y6779249D01*
Y6760751D01*
X10845580Y6743660D01*
X10858660Y6730579D01*
X10875751Y6723500D01*
X10894250D01*
X10911340Y6730579D01*
X10924421Y6743660D01*
X10931500Y6760751D01*
Y6779249D01*
X10924421Y6796340D01*
X10911340Y6809421D01*
X10894250Y6816500D01*
D02*
G37*
G36*
X10109255Y6846503D02*
X10090756D01*
X10073665Y6839424D01*
X10060585Y6826344D01*
X10053506Y6809253D01*
Y6790754D01*
X10060585Y6773664D01*
X10073665Y6760583D01*
X10081813Y6757208D01*
Y6743462D01*
X10070850Y6738921D01*
X10057769Y6725840D01*
X10052625Y6713421D01*
X10038957Y6713232D01*
X10034596Y6723759D01*
X10021516Y6736840D01*
X10004425Y6743919D01*
X9985926D01*
X9968836Y6736840D01*
X9955755Y6723759D01*
X9948676Y6706669D01*
Y6688170D01*
X9955755Y6671079D01*
X9968836Y6657999D01*
X9985926Y6650920D01*
X10004425D01*
X10021516Y6657999D01*
X10034596Y6671079D01*
X10039740Y6683498D01*
X10053409Y6683687D01*
X10057769Y6673160D01*
X10070850Y6660079D01*
X10087940Y6653000D01*
X10106439D01*
X10123530Y6660079D01*
X10136611Y6673160D01*
X10142910Y6688369D01*
X10155423Y6693816D01*
X10156160Y6693079D01*
X10173251Y6686000D01*
X10191749D01*
X10208840Y6693079D01*
X10221921Y6706160D01*
X10229000Y6723251D01*
Y6741750D01*
X10221921Y6758840D01*
X10208840Y6771921D01*
X10191749Y6779000D01*
X10173251D01*
X10156160Y6771921D01*
X10143079Y6758840D01*
X10137321Y6744937D01*
X10125047Y6740337D01*
X10118115Y6744309D01*
X10118446Y6757311D01*
X10126346Y6760583D01*
X10139426Y6773664D01*
X10146505Y6790754D01*
Y6809253D01*
X10139426Y6826344D01*
X10126346Y6839424D01*
X10109255Y6846503D01*
D02*
G37*
G36*
X12295718Y6788900D02*
X12295200D01*
Y6701199D01*
X12382900D01*
Y6701718D01*
X12376058Y6727253D01*
X12362840Y6750147D01*
X12344147Y6768840D01*
X12321253Y6782058D01*
X12295718Y6788900D01*
D02*
G37*
G36*
X12269800D02*
X12269282D01*
X12243747Y6782058D01*
X12220853Y6768840D01*
X12202160Y6750147D01*
X12188942Y6727253D01*
X12182100Y6701718D01*
Y6701199D01*
X12269800D01*
Y6788900D01*
D02*
G37*
G36*
X12008218Y6785400D02*
X12007700D01*
Y6697700D01*
X12095400D01*
Y6698218D01*
X12088558Y6723753D01*
X12075340Y6746647D01*
X12056647Y6765340D01*
X12033753Y6778558D01*
X12008218Y6785400D01*
D02*
G37*
G36*
X11982300D02*
X11981782D01*
X11956247Y6778558D01*
X11933353Y6765340D01*
X11914660Y6746647D01*
X11901442Y6723753D01*
X11894600Y6698218D01*
Y6697700D01*
X11982300D01*
Y6785400D01*
D02*
G37*
G36*
X9861749Y6784000D02*
X9843251D01*
X9826160Y6776921D01*
X9813079Y6763840D01*
X9806000Y6746750D01*
Y6728251D01*
X9813079Y6711160D01*
X9826160Y6698079D01*
X9843251Y6691000D01*
X9861749D01*
X9878840Y6698079D01*
X9891921Y6711160D01*
X9899000Y6728251D01*
Y6746750D01*
X9891921Y6763840D01*
X9878840Y6776921D01*
X9861749Y6784000D01*
D02*
G37*
G36*
X10309255Y6846503D02*
X10290756D01*
X10273666Y6839424D01*
X10260585Y6826344D01*
X10253506Y6809253D01*
Y6790754D01*
X10260585Y6773664D01*
X10268876Y6765373D01*
X10273665Y6760583D01*
X10268905Y6748808D01*
X10262102Y6742005D01*
X10253500Y6721239D01*
Y6698762D01*
X10262102Y6677995D01*
X10277995Y6662102D01*
X10298761Y6653500D01*
X10321238D01*
X10342005Y6662102D01*
X10357898Y6677995D01*
X10366500Y6698762D01*
Y6721239D01*
X10357898Y6742005D01*
X10342005Y6757898D01*
X10339593Y6758897D01*
X10337116Y6771353D01*
X10339426Y6773664D01*
X10346505Y6790754D01*
Y6809253D01*
X10339426Y6826344D01*
X10326346Y6839424D01*
X10309255Y6846503D01*
D02*
G37*
G36*
X9709255D02*
X9690756D01*
X9673665Y6839424D01*
X9660584Y6826344D01*
X9653505Y6809253D01*
Y6790754D01*
X9660584Y6773664D01*
X9673665Y6760583D01*
X9681482Y6757345D01*
X9684461Y6742364D01*
X9684102Y6742005D01*
X9675500Y6721239D01*
Y6698762D01*
X9684102Y6677995D01*
X9699995Y6662102D01*
X9720762Y6653500D01*
X9743239D01*
X9764005Y6662102D01*
X9779898Y6677995D01*
X9788500Y6698762D01*
Y6721239D01*
X9779898Y6742005D01*
X9764005Y6757898D01*
X9748177Y6764454D01*
X9742807Y6770106D01*
X9741719Y6779200D01*
X9746505Y6790754D01*
Y6809253D01*
X9739426Y6826344D01*
X9726345Y6839424D01*
X9709255Y6846503D01*
D02*
G37*
G36*
X11401749Y6704000D02*
X11383251D01*
X11366160Y6696921D01*
X11353079Y6683840D01*
X11346000Y6666749D01*
Y6648251D01*
X11353079Y6631160D01*
X11366160Y6618079D01*
X11383251Y6611000D01*
X11401749D01*
X11418840Y6618079D01*
X11431921Y6631160D01*
X11439000Y6648251D01*
Y6666749D01*
X11431921Y6683840D01*
X11418840Y6696921D01*
X11401749Y6704000D01*
D02*
G37*
G36*
X12269800Y6675799D02*
X12182100D01*
Y6675282D01*
X12188942Y6649747D01*
X12202160Y6626853D01*
X12220853Y6608160D01*
X12243747Y6594942D01*
X12269282Y6588100D01*
X12269800D01*
Y6675799D01*
D02*
G37*
G36*
X12095400Y6672300D02*
X12007700D01*
Y6584600D01*
X12008218D01*
X12033753Y6591442D01*
X12056647Y6604660D01*
X12075340Y6623353D01*
X12088558Y6646247D01*
X12095400Y6671782D01*
Y6672300D01*
D02*
G37*
G36*
X11982300D02*
X11894600D01*
Y6671782D01*
X11901442Y6646247D01*
X11914660Y6623353D01*
X11933353Y6604660D01*
X11956247Y6591442D01*
X11981782Y6584600D01*
X11982300D01*
Y6672300D01*
D02*
G37*
G36*
X12382900Y6675799D02*
X12295200D01*
Y6588100D01*
X12295718D01*
X12321253Y6594942D01*
X12340807Y6606232D01*
X12350538Y6602287D01*
X12353507Y6599559D01*
Y6590754D01*
X12360586Y6573664D01*
X12373667Y6560583D01*
X12390757Y6553504D01*
X12409256D01*
X12426347Y6560583D01*
X12439427Y6573664D01*
X12446506Y6590754D01*
Y6609253D01*
X12439427Y6626344D01*
X12426347Y6639424D01*
X12409256Y6646503D01*
X12390757D01*
X12387275Y6645061D01*
X12387190Y6645097D01*
X12377388Y6654712D01*
X12382900Y6675282D01*
Y6675799D01*
D02*
G37*
G36*
X9209254Y6646503D02*
X9190756D01*
X9173665Y6639424D01*
X9160584Y6626344D01*
X9153505Y6609253D01*
Y6590754D01*
X9160584Y6573664D01*
X9173665Y6560583D01*
X9190756Y6553504D01*
X9209254D01*
X9226345Y6560583D01*
X9239426Y6573664D01*
X9246505Y6590754D01*
Y6609253D01*
X9239426Y6626344D01*
X9226345Y6639424D01*
X9209254Y6646503D01*
D02*
G37*
G36*
X10351749Y6566500D02*
X10333251D01*
X10316160Y6559421D01*
X10303079Y6546340D01*
X10296000Y6529249D01*
Y6510751D01*
X10303079Y6493660D01*
X10316160Y6480579D01*
X10333251Y6473500D01*
X10351749D01*
X10368840Y6480579D01*
X10381921Y6493660D01*
X10389000Y6510751D01*
Y6529249D01*
X10381921Y6546340D01*
X10368840Y6559421D01*
X10351749Y6566500D01*
D02*
G37*
G36*
X9711749Y6561500D02*
X9693251D01*
X9676160Y6554421D01*
X9663079Y6541340D01*
X9656000Y6524249D01*
Y6505751D01*
X9663079Y6488660D01*
X9676160Y6475579D01*
X9693251Y6468500D01*
X9711749D01*
X9728840Y6475579D01*
X9741921Y6488660D01*
X9749000Y6505751D01*
Y6524249D01*
X9741921Y6541340D01*
X9728840Y6554421D01*
X9711749Y6561500D01*
D02*
G37*
G36*
X11711749Y6449000D02*
X11693251D01*
X11676160Y6441921D01*
X11663079Y6428840D01*
X11656000Y6411749D01*
Y6393251D01*
X11663079Y6376160D01*
X11676160Y6363079D01*
X11693251Y6356000D01*
X11711749D01*
X11728840Y6363079D01*
X11741921Y6376160D01*
X11749000Y6393251D01*
Y6411749D01*
X11741921Y6428840D01*
X11728840Y6441921D01*
X11711749Y6449000D01*
D02*
G37*
G36*
X9509255Y6446503D02*
X9490756D01*
X9473665Y6439424D01*
X9460584Y6426344D01*
X9453505Y6409253D01*
Y6390754D01*
X9460584Y6373663D01*
X9473665Y6360583D01*
X9490756Y6353504D01*
X9509255D01*
X9526345Y6360583D01*
X9539426Y6373663D01*
X9546505Y6390754D01*
Y6409253D01*
X9539426Y6426344D01*
X9526345Y6439424D01*
X9509255Y6446503D01*
D02*
G37*
G36*
X9309254D02*
X9290756D01*
X9273665Y6439424D01*
X9260584Y6426344D01*
X9253505Y6409253D01*
Y6390754D01*
X9260584Y6373663D01*
X9273665Y6360583D01*
X9290756Y6353504D01*
X9309254D01*
X9326345Y6360583D01*
X9339426Y6373663D01*
X9346505Y6390754D01*
Y6409253D01*
X9339426Y6426344D01*
X9326345Y6439424D01*
X9309254Y6446503D01*
D02*
G37*
G36*
X9633188Y6428879D02*
X9614689D01*
X9597598Y6421800D01*
X9584518Y6408719D01*
X9577439Y6391628D01*
Y6373129D01*
X9584518Y6356039D01*
X9597598Y6342958D01*
X9614689Y6335879D01*
X9633188D01*
X9650278Y6342958D01*
X9663359Y6356039D01*
X9670438Y6373129D01*
Y6391628D01*
X9663359Y6408719D01*
X9650278Y6421800D01*
X9633188Y6428879D01*
D02*
G37*
G36*
X12381500Y6533500D02*
X12183500D01*
Y6335500D01*
X12381500D01*
Y6533500D01*
D02*
G37*
G36*
X12094000Y6530000D02*
X11896000D01*
Y6332000D01*
X12094000D01*
Y6530000D01*
D02*
G37*
G36*
X9803188Y6413879D02*
X9784689D01*
X9767598Y6406800D01*
X9754517Y6393719D01*
X9747438Y6376628D01*
Y6358130D01*
X9754517Y6341039D01*
X9767598Y6327958D01*
X9784689Y6320879D01*
X9803188D01*
X9820278Y6327958D01*
X9833359Y6341039D01*
X9840438Y6358130D01*
Y6376628D01*
X9833359Y6393719D01*
X9820278Y6406800D01*
X9803188Y6413879D01*
D02*
G37*
G36*
X11608883Y6328411D02*
X11590384D01*
X11573294Y6321332D01*
X11560213Y6308251D01*
X11553134Y6291160D01*
Y6272662D01*
X11560213Y6255571D01*
X11573294Y6242490D01*
X11590384Y6235411D01*
X11608883D01*
X11625974Y6242490D01*
X11639054Y6255571D01*
X11646133Y6272662D01*
Y6291160D01*
X11639054Y6308251D01*
X11625974Y6321332D01*
X11608883Y6328411D01*
D02*
G37*
G36*
X10099249Y6316500D02*
X10080750D01*
X10063660Y6309421D01*
X10050579Y6296340D01*
X10043500Y6279249D01*
Y6260750D01*
X10050579Y6243660D01*
X10063660Y6230579D01*
X10080750Y6223500D01*
X10099249D01*
X10116340Y6230579D01*
X10129421Y6243660D01*
X10136500Y6260750D01*
Y6279249D01*
X10129421Y6296340D01*
X10116340Y6309421D01*
X10099249Y6316500D01*
D02*
G37*
G36*
X12409256Y6246503D02*
X12390757D01*
X12373667Y6239424D01*
X12360586Y6226343D01*
X12356204Y6215764D01*
X12341774Y6212233D01*
X12334787Y6219219D01*
X12312213Y6232253D01*
X12287034Y6239000D01*
X12260967D01*
X12235788Y6232253D01*
X12213213Y6219219D01*
X12194781Y6200787D01*
X12181747Y6178212D01*
X12175000Y6153033D01*
Y6126966D01*
X12181747Y6101787D01*
X12194781Y6079213D01*
X12213213Y6060780D01*
X12235788Y6047747D01*
X12258061Y6041779D01*
X12261887Y6033586D01*
X12262543Y6028300D01*
X12260586Y6026343D01*
X12253507Y6009253D01*
Y5990754D01*
X12260586Y5973663D01*
X12272549Y5961700D01*
X12271903Y5956506D01*
X12268656Y5949000D01*
X12256967D01*
X12231788Y5942253D01*
X12209213Y5929220D01*
X12190781Y5910787D01*
X12177747Y5888213D01*
X12171000Y5863033D01*
Y5836966D01*
X12177747Y5811787D01*
X12190781Y5789213D01*
X12209213Y5770780D01*
X12231788Y5757747D01*
X12256967Y5751000D01*
X12283034D01*
X12308213Y5757747D01*
X12330787Y5770780D01*
X12342982Y5782975D01*
X12357963Y5779995D01*
X12360586Y5773663D01*
X12373667Y5760582D01*
X12390757Y5753503D01*
X12409256D01*
X12426347Y5760582D01*
X12439427Y5773663D01*
X12446506Y5790754D01*
Y5809253D01*
X12439427Y5826343D01*
X12426347Y5839424D01*
X12409256Y5846503D01*
X12390757D01*
X12381700Y5842751D01*
X12369000Y5851237D01*
Y5863033D01*
X12362253Y5888213D01*
X12349220Y5910787D01*
X12330787Y5929220D01*
X12310111Y5941157D01*
X12309669Y5947542D01*
X12311574Y5954464D01*
X12326347Y5960582D01*
X12339427Y5973663D01*
X12346506Y5990754D01*
Y6009253D01*
X12339427Y6026343D01*
X12326347Y6039424D01*
X12324513Y6040183D01*
X12323587Y6054314D01*
X12334787Y6060780D01*
X12353220Y6079213D01*
X12366253Y6101787D01*
X12373000Y6126966D01*
Y6147112D01*
X12383526Y6155425D01*
X12385200Y6155806D01*
X12390757Y6153504D01*
X12409256D01*
X12426347Y6160583D01*
X12439427Y6173663D01*
X12446506Y6190754D01*
Y6209253D01*
X12439427Y6226343D01*
X12426347Y6239424D01*
X12409256Y6246503D01*
D02*
G37*
G36*
X11009255D02*
X10990757D01*
X10973666Y6239424D01*
X10960585Y6226343D01*
X10953506Y6209253D01*
Y6190754D01*
X10960585Y6173663D01*
X10973666Y6160583D01*
X10990757Y6153504D01*
X11009255D01*
X11026346Y6160583D01*
X11039427Y6173663D01*
X11046506Y6190754D01*
Y6209253D01*
X11039427Y6226343D01*
X11026346Y6239424D01*
X11009255Y6246503D01*
D02*
G37*
G36*
X10209255D02*
X10190756D01*
X10173665Y6239424D01*
X10160585Y6226343D01*
X10153506Y6209253D01*
Y6190754D01*
X10160585Y6173663D01*
X10173665Y6160583D01*
X10190756Y6153504D01*
X10209255D01*
X10226346Y6160583D01*
X10239426Y6173663D01*
X10246505Y6190754D01*
Y6209253D01*
X10239426Y6226343D01*
X10226346Y6239424D01*
X10209255Y6246503D01*
D02*
G37*
G36*
X9409254D02*
X9390756D01*
X9373665Y6239424D01*
X9360584Y6226343D01*
X9353505Y6209253D01*
Y6190754D01*
X9360584Y6173663D01*
X9373665Y6160583D01*
X9390756Y6153504D01*
X9409254D01*
X9426345Y6160583D01*
X9439426Y6173663D01*
X9446505Y6190754D01*
Y6209253D01*
X9439426Y6226343D01*
X9426345Y6239424D01*
X9409254Y6246503D01*
D02*
G37*
G36*
X9209254D02*
X9190756D01*
X9173665Y6239424D01*
X9160584Y6226343D01*
X9153505Y6209253D01*
Y6190754D01*
X9160584Y6173663D01*
X9173665Y6160583D01*
X9190756Y6153504D01*
X9209254D01*
X9226345Y6160583D01*
X9239426Y6173663D01*
X9246505Y6190754D01*
Y6209253D01*
X9239426Y6226343D01*
X9226345Y6239424D01*
X9209254Y6246503D01*
D02*
G37*
G36*
X11376383Y6218411D02*
X11357884D01*
X11340794Y6211332D01*
X11327713Y6198251D01*
X11320634Y6181160D01*
Y6162662D01*
X11327713Y6145571D01*
X11340794Y6132490D01*
X11357884Y6125411D01*
X11376383D01*
X11393474Y6132490D01*
X11406555Y6145571D01*
X11413634Y6162662D01*
Y6181160D01*
X11406555Y6198251D01*
X11393474Y6211332D01*
X11376383Y6218411D01*
D02*
G37*
G36*
X11639250Y6226500D02*
X11620751D01*
X11603660Y6219421D01*
X11590579Y6206340D01*
X11583500Y6189249D01*
Y6170751D01*
X11583507Y6170733D01*
X11576251Y6155065D01*
X11568660Y6151921D01*
X11555579Y6138840D01*
X11548825Y6122534D01*
X11539249Y6126500D01*
X11520751D01*
X11503660Y6119421D01*
X11490579Y6106340D01*
X11483500Y6089249D01*
Y6070751D01*
X11490579Y6053660D01*
X11503660Y6040579D01*
X11520751Y6033500D01*
X11539249D01*
X11556340Y6040579D01*
X11569421Y6053660D01*
X11576175Y6069967D01*
X11585751Y6066000D01*
X11604249D01*
X11621340Y6073079D01*
X11634421Y6086160D01*
X11641500Y6103251D01*
Y6121750D01*
X11641493Y6121767D01*
X11648749Y6137435D01*
X11656340Y6140579D01*
X11669421Y6153660D01*
X11676500Y6170751D01*
Y6189249D01*
X11669421Y6206340D01*
X11656340Y6219421D01*
X11639250Y6226500D01*
D02*
G37*
G36*
X10576749Y6199000D02*
X10558250D01*
X10541160Y6191921D01*
X10528079Y6178840D01*
X10521000Y6161749D01*
Y6143251D01*
X10528079Y6126160D01*
X10541160Y6113079D01*
X10558250Y6106000D01*
X10576749D01*
X10593840Y6113079D01*
X10606921Y6126160D01*
X10614000Y6143251D01*
Y6161749D01*
X10606921Y6178840D01*
X10593840Y6191921D01*
X10576749Y6199000D01*
D02*
G37*
G36*
X11429249Y6046500D02*
X11410751D01*
X11393660Y6039421D01*
X11389952Y6035713D01*
X11386244Y6039421D01*
X11369153Y6046500D01*
X11350654D01*
X11333564Y6039421D01*
X11320483Y6026340D01*
X11313404Y6009249D01*
Y5990751D01*
X11320483Y5973660D01*
X11324841Y5969302D01*
X11320483Y5964944D01*
X11313404Y5947854D01*
Y5929355D01*
X11320483Y5912264D01*
X11333564Y5899184D01*
X11350654Y5892105D01*
X11369153D01*
X11386244Y5899184D01*
X11389952Y5902891D01*
X11393660Y5899184D01*
X11410751Y5892105D01*
X11429249D01*
X11446340Y5899184D01*
X11459421Y5912264D01*
X11466500Y5929355D01*
Y5947854D01*
X11459421Y5964944D01*
X11455063Y5969302D01*
X11459421Y5973660D01*
X11466500Y5990751D01*
Y6009249D01*
X11459421Y6026340D01*
X11446340Y6039421D01*
X11429249Y6046500D01*
D02*
G37*
G36*
X10109255Y6046503D02*
X10090756D01*
X10073665Y6039424D01*
X10060585Y6026343D01*
X10053506Y6009253D01*
Y5990754D01*
X10060585Y5973663D01*
X10073665Y5960582D01*
X10090756Y5953503D01*
X10109255D01*
X10126346Y5960582D01*
X10139426Y5973663D01*
X10146505Y5990754D01*
Y6009253D01*
X10139426Y6026343D01*
X10126346Y6039424D01*
X10109255Y6046503D01*
D02*
G37*
G36*
X9309254D02*
X9290756D01*
X9273665Y6039424D01*
X9260584Y6026343D01*
X9253505Y6009253D01*
Y5990754D01*
X9260584Y5973663D01*
X9273665Y5960582D01*
X9290756Y5953503D01*
X9309254D01*
X9326345Y5960582D01*
X9339426Y5973663D01*
X9346505Y5990754D01*
Y6009253D01*
X9339426Y6026343D01*
X9326345Y6039424D01*
X9309254Y6046503D01*
D02*
G37*
G36*
X9735688Y6043879D02*
X9717189D01*
X9700098Y6036800D01*
X9687017Y6023719D01*
X9679938Y6006629D01*
Y5988130D01*
X9687017Y5971039D01*
X9700098Y5957958D01*
X9717189Y5950879D01*
X9735688D01*
X9752778Y5957958D01*
X9758142Y5963322D01*
X9769005Y5968304D01*
X9774735Y5963322D01*
X9782598Y5955458D01*
X9799689Y5948379D01*
X9818188D01*
X9835278Y5955458D01*
X9844386Y5964566D01*
X9857990Y5963104D01*
X9858967Y5962553D01*
X9860579Y5958660D01*
X9873660Y5945579D01*
X9890751Y5938500D01*
X9909249D01*
X9926340Y5945579D01*
X9939421Y5958660D01*
X9946500Y5975751D01*
Y5994249D01*
X9939421Y6011340D01*
X9926340Y6024421D01*
X9909249Y6031500D01*
X9890751D01*
X9873660Y6024421D01*
X9864552Y6015313D01*
X9850949Y6016775D01*
X9849972Y6017326D01*
X9848359Y6021219D01*
X9835278Y6034300D01*
X9818188Y6041379D01*
X9799689D01*
X9782598Y6034300D01*
X9777235Y6028937D01*
X9766372Y6023954D01*
X9760642Y6028937D01*
X9752778Y6036800D01*
X9735688Y6043879D01*
D02*
G37*
G36*
X10816750Y5998500D02*
X10798251D01*
X10781160Y5991421D01*
X10768079Y5978340D01*
X10761000Y5961249D01*
Y5942751D01*
X10768079Y5925660D01*
X10781160Y5912579D01*
X10798251Y5905500D01*
X10816750D01*
X10833840Y5912579D01*
X10846921Y5925660D01*
X10854000Y5942751D01*
Y5961249D01*
X10846921Y5978340D01*
X10833840Y5991421D01*
X10816750Y5998500D01*
D02*
G37*
G36*
X10586049Y5966500D02*
X10567551D01*
X10550460Y5959421D01*
X10537379Y5946340D01*
X10530300Y5929250D01*
Y5910751D01*
X10537379Y5893660D01*
X10550460Y5880579D01*
X10567551Y5873500D01*
X10586049D01*
X10603140Y5880579D01*
X10616221Y5893660D01*
X10623300Y5910751D01*
Y5929250D01*
X10616221Y5946340D01*
X10603140Y5959421D01*
X10586049Y5966500D01*
D02*
G37*
G36*
X10209255Y5846503D02*
X10190756D01*
X10173665Y5839424D01*
X10160585Y5826343D01*
X10153506Y5809253D01*
Y5790754D01*
X10160585Y5773663D01*
X10173665Y5760582D01*
X10190756Y5753503D01*
X10209255D01*
X10226346Y5760582D01*
X10239426Y5773663D01*
X10246505Y5790754D01*
Y5809253D01*
X10239426Y5826343D01*
X10226346Y5839424D01*
X10209255Y5846503D01*
D02*
G37*
G36*
X9209254D02*
X9190756D01*
X9173665Y5839424D01*
X9160584Y5826343D01*
X9153505Y5809253D01*
Y5790754D01*
X9160584Y5773663D01*
X9173665Y5760582D01*
X9190756Y5753503D01*
X9209254D01*
X9226345Y5760582D01*
X9239426Y5773663D01*
X9246505Y5790754D01*
Y5809253D01*
X9239426Y5826343D01*
X9226345Y5839424D01*
X9209254Y5846503D01*
D02*
G37*
G36*
X12119000Y6239000D02*
X11921000D01*
Y6041000D01*
X12057282D01*
X12062543Y6028300D01*
X12060586Y6026343D01*
X12053507Y6009253D01*
Y5990754D01*
X12060586Y5973663D01*
X12072549Y5961700D01*
X12071903Y5956506D01*
X12068656Y5949000D01*
X11917000D01*
Y5751000D01*
X12115000D01*
Y5942136D01*
X12115000Y5949000D01*
X12122022Y5958791D01*
X12126347Y5960582D01*
X12139427Y5973663D01*
X12146506Y5990754D01*
Y6009253D01*
X12139427Y6026343D01*
X12126347Y6039424D01*
X12119000Y6042467D01*
Y6239000D01*
D02*
G37*
G36*
X11179249Y5766500D02*
X11160751D01*
X11143660Y5759421D01*
X11130579Y5746340D01*
X11123500Y5729249D01*
Y5710751D01*
X11130579Y5693660D01*
X11143660Y5680579D01*
X11160751Y5673500D01*
X11179249D01*
X11196340Y5680579D01*
X11209421Y5693660D01*
X11216500Y5710751D01*
Y5729249D01*
X11209421Y5746340D01*
X11196340Y5759421D01*
X11179249Y5766500D01*
D02*
G37*
G36*
X10844249Y5764000D02*
X10825751D01*
X10808660Y5756921D01*
X10795579Y5743840D01*
X10788500Y5726750D01*
Y5708251D01*
X10795579Y5691160D01*
X10808660Y5678079D01*
X10825751Y5671000D01*
X10844249D01*
X10861340Y5678079D01*
X10874421Y5691160D01*
X10881500Y5708251D01*
Y5726750D01*
X10874421Y5743840D01*
X10861340Y5756921D01*
X10844249Y5764000D01*
D02*
G37*
G36*
X10557749Y5766500D02*
X10539250D01*
X10522160Y5759421D01*
X10509079Y5746340D01*
X10502000Y5729249D01*
Y5710750D01*
X10509079Y5693660D01*
X10522160Y5680579D01*
X10539250Y5673500D01*
X10541000D01*
Y5655751D01*
X10548079Y5638660D01*
X10561160Y5625579D01*
X10578251Y5618500D01*
X10596749D01*
X10613840Y5625579D01*
X10626921Y5638660D01*
X10634000Y5655751D01*
Y5674250D01*
X10626921Y5691340D01*
X10613840Y5704421D01*
X10596749Y5711500D01*
X10595000D01*
Y5729249D01*
X10587921Y5746340D01*
X10574840Y5759421D01*
X10557749Y5766500D01*
D02*
G37*
G36*
X9779249Y5684000D02*
X9760751D01*
X9743660Y5676921D01*
X9730579Y5663840D01*
X9723500Y5646749D01*
Y5628251D01*
X9730579Y5611160D01*
X9743660Y5598079D01*
X9760751Y5591000D01*
X9779249D01*
X9796340Y5598079D01*
X9809421Y5611160D01*
X9816500Y5628251D01*
Y5646749D01*
X9809421Y5663840D01*
X9796340Y5676921D01*
X9779249Y5684000D01*
D02*
G37*
G36*
X10126749Y5659000D02*
X10108251D01*
X10091160Y5651921D01*
X10078079Y5638840D01*
X10071000Y5621749D01*
Y5603251D01*
X10078079Y5586160D01*
X10091160Y5573079D01*
X10108251Y5566000D01*
X10126749D01*
X10143840Y5573079D01*
X10156921Y5586160D01*
X10164000Y5603251D01*
Y5621749D01*
X10156921Y5638840D01*
X10143840Y5651921D01*
X10126749Y5659000D01*
D02*
G37*
G36*
X11589249Y5826500D02*
X11570751D01*
X11553660Y5819421D01*
X11540579Y5806340D01*
X11533500Y5789250D01*
Y5770751D01*
X11540579Y5753660D01*
X11553660Y5740579D01*
X11568447Y5734455D01*
X11574543Y5721767D01*
X11573500Y5719249D01*
Y5700751D01*
X11580579Y5683660D01*
X11593660Y5670579D01*
X11610750Y5663500D01*
X11624472D01*
X11626998Y5650800D01*
X11623306Y5649271D01*
X11610225Y5636190D01*
X11603146Y5619100D01*
Y5600601D01*
X11610225Y5583510D01*
X11623306Y5570429D01*
X11640397Y5563350D01*
X11658896D01*
X11675986Y5570429D01*
X11689067Y5583510D01*
X11696146Y5600601D01*
Y5619100D01*
X11689067Y5636190D01*
X11675986Y5649271D01*
X11658896Y5656350D01*
X11645174D01*
X11642648Y5669050D01*
X11646340Y5670579D01*
X11659421Y5683660D01*
X11666500Y5700751D01*
Y5719249D01*
X11659421Y5736340D01*
X11646340Y5749421D01*
X11631553Y5755546D01*
X11625457Y5768233D01*
X11626500Y5770751D01*
Y5789250D01*
X11619421Y5806340D01*
X11606340Y5819421D01*
X11589249Y5826500D01*
D02*
G37*
G36*
X10709255Y5646503D02*
X10690756D01*
X10673666Y5639424D01*
X10660585Y5626343D01*
X10653506Y5609252D01*
Y5590754D01*
X10660585Y5573663D01*
X10673666Y5560582D01*
X10690756Y5553503D01*
X10709255D01*
X10726346Y5560582D01*
X10739427Y5573663D01*
X10746506Y5590754D01*
Y5609252D01*
X10739427Y5626343D01*
X10726346Y5639424D01*
X10709255Y5646503D01*
D02*
G37*
G36*
X9502700Y5720200D02*
X9202300D01*
Y5519800D01*
X9502700D01*
Y5720200D01*
D02*
G37*
G36*
X11179249Y5601500D02*
X11160751D01*
X11143660Y5594421D01*
X11130579Y5581340D01*
X11123500Y5564249D01*
Y5545751D01*
X11130579Y5528660D01*
X11143660Y5515579D01*
X11160751Y5508500D01*
X11179249D01*
X11196340Y5515579D01*
X11209421Y5528660D01*
X11216500Y5545751D01*
Y5564249D01*
X11209421Y5581340D01*
X11196340Y5594421D01*
X11179249Y5601500D01*
D02*
G37*
G36*
X11086500Y5886500D02*
X10918500D01*
Y5718500D01*
Y5553500D01*
X10956000D01*
Y5545751D01*
X10963079Y5528660D01*
X10976160Y5515579D01*
X10993251Y5508500D01*
X11011749D01*
X11028840Y5515579D01*
X11041921Y5528660D01*
X11049000Y5545751D01*
Y5553500D01*
X11086500D01*
Y5718500D01*
Y5886500D01*
D02*
G37*
G36*
X11323896Y5583850D02*
X11305397D01*
X11288306Y5576771D01*
X11275226Y5563690D01*
X11268147Y5546600D01*
Y5528101D01*
X11275226Y5511010D01*
X11288306Y5497929D01*
X11305397Y5490850D01*
X11323896D01*
X11340986Y5497929D01*
X11354067Y5511010D01*
X11361146Y5528101D01*
Y5546600D01*
X11354067Y5563690D01*
X11340986Y5576771D01*
X11323896Y5583850D01*
D02*
G37*
G36*
X10846749Y5579000D02*
X10828250D01*
X10811160Y5571921D01*
X10798079Y5558840D01*
X10791000Y5541749D01*
Y5523251D01*
X10798079Y5506160D01*
X10811160Y5493079D01*
X10828250Y5486000D01*
X10846749D01*
X10863840Y5493079D01*
X10876921Y5506160D01*
X10884000Y5523251D01*
Y5541749D01*
X10876921Y5558840D01*
X10863840Y5571921D01*
X10846749Y5579000D01*
D02*
G37*
G36*
X10524747Y5504000D02*
X10505253D01*
X10487244Y5496540D01*
X10473460Y5482756D01*
X10466000Y5464747D01*
X10454000D01*
X10446540Y5482756D01*
X10432756Y5496540D01*
X10414747Y5504000D01*
X10395253D01*
X10377244Y5496540D01*
X10363460Y5482756D01*
X10356000Y5464747D01*
Y5445253D01*
X10363460Y5427244D01*
X10377244Y5413460D01*
X10395253Y5406000D01*
Y5394000D01*
X10377244Y5386540D01*
X10363460Y5372756D01*
X10356000Y5354747D01*
Y5335253D01*
X10363460Y5317244D01*
X10377244Y5303460D01*
X10395253Y5296000D01*
X10414747D01*
X10432756Y5303460D01*
X10446540Y5317244D01*
X10454000Y5335253D01*
X10466000D01*
X10473460Y5317244D01*
X10487244Y5303460D01*
X10505253Y5296000D01*
X10524747D01*
X10542756Y5303460D01*
X10556540Y5317244D01*
X10564000Y5335253D01*
Y5354747D01*
X10556540Y5372756D01*
X10542756Y5386540D01*
X10524747Y5394000D01*
Y5406000D01*
X10542756Y5413460D01*
X10556540Y5427244D01*
X10564000Y5445253D01*
Y5464747D01*
X10556540Y5482756D01*
X10542756Y5496540D01*
X10524747Y5504000D01*
D02*
G37*
G36*
X12287034Y5659000D02*
X12260967D01*
X12235788Y5652253D01*
X12213213Y5639220D01*
X12194781Y5620787D01*
X12181747Y5598213D01*
X12175000Y5573034D01*
Y5546967D01*
X12181747Y5521788D01*
X12194781Y5499213D01*
X12213213Y5480781D01*
X12235788Y5467747D01*
X12260967Y5461000D01*
X12287034D01*
X12312213Y5467747D01*
X12334787Y5480781D01*
X12353220Y5499213D01*
X12366253Y5521788D01*
X12373000Y5546967D01*
Y5573034D01*
X12366253Y5598213D01*
X12353220Y5620787D01*
X12334787Y5639220D01*
X12312213Y5652253D01*
X12287034Y5659000D01*
D02*
G37*
G36*
X12119000D02*
X11921000D01*
Y5461000D01*
X12119000D01*
Y5659000D01*
D02*
G37*
G36*
X10196173Y5532408D02*
X10177674D01*
X10160584Y5525329D01*
X10147503Y5512248D01*
X10140424Y5495157D01*
Y5476658D01*
X10147503Y5459568D01*
X10160584Y5446487D01*
X10177674Y5439408D01*
X10196173D01*
X10213264Y5446487D01*
X10226345Y5459568D01*
X10233424Y5476658D01*
Y5495157D01*
X10226345Y5512248D01*
X10213264Y5525329D01*
X10196173Y5532408D01*
D02*
G37*
G36*
X10809255Y5446503D02*
X10790756D01*
X10773666Y5439424D01*
X10760585Y5426343D01*
X10753506Y5409252D01*
Y5390754D01*
X10756712Y5383013D01*
X10746992Y5373293D01*
X10739249Y5376500D01*
X10720750D01*
X10703660Y5369421D01*
X10690579Y5356340D01*
X10683500Y5339249D01*
Y5320751D01*
X10690579Y5303660D01*
X10698632Y5295607D01*
X10688983Y5285958D01*
X10681904Y5268868D01*
Y5250369D01*
X10688983Y5233278D01*
X10702063Y5220197D01*
X10719154Y5213118D01*
X10737653D01*
X10754744Y5220197D01*
X10767824Y5233278D01*
X10774903Y5250369D01*
Y5268868D01*
X10767824Y5285958D01*
X10759772Y5294011D01*
X10769421Y5303660D01*
X10776500Y5320751D01*
Y5339249D01*
X10773294Y5346990D01*
X10783014Y5356710D01*
X10790756Y5353503D01*
X10809255D01*
X10826346Y5360582D01*
X10839427Y5373663D01*
X10846506Y5390754D01*
Y5409252D01*
X10839427Y5426343D01*
X10826346Y5439424D01*
X10809255Y5446503D01*
D02*
G37*
G36*
X12409256D02*
X12390757D01*
X12373667Y5439424D01*
X12360586Y5426343D01*
X12353507Y5409252D01*
Y5390754D01*
X12360586Y5373663D01*
X12373667Y5360582D01*
X12390757Y5353503D01*
X12409256D01*
X12426347Y5360582D01*
X12439427Y5373663D01*
X12446506Y5390754D01*
Y5409252D01*
X12439427Y5426343D01*
X12426347Y5439424D01*
X12409256Y5446503D01*
D02*
G37*
G36*
X11609256D02*
X11590757D01*
X11573666Y5439424D01*
X11560585Y5426343D01*
X11553506Y5409252D01*
Y5390754D01*
X11560585Y5373663D01*
X11573666Y5360582D01*
X11590757Y5353503D01*
X11609256D01*
X11626346Y5360582D01*
X11639427Y5373663D01*
X11646506Y5390754D01*
Y5409252D01*
X11639427Y5426343D01*
X11626346Y5439424D01*
X11609256Y5446503D01*
D02*
G37*
G36*
X10182045Y5417408D02*
X10163546D01*
X10146455Y5410329D01*
X10133374Y5397248D01*
X10126295Y5380157D01*
Y5361658D01*
X10133374Y5344568D01*
X10146455Y5331487D01*
X10163546Y5324408D01*
X10182045D01*
X10199135Y5331487D01*
X10212216Y5344568D01*
X10219295Y5361658D01*
Y5380157D01*
X10212216Y5397248D01*
X10199135Y5410329D01*
X10182045Y5417408D01*
D02*
G37*
G36*
X12295718Y5373400D02*
X12295200D01*
Y5285700D01*
X12382900D01*
Y5286218D01*
X12376058Y5311753D01*
X12362840Y5334647D01*
X12344147Y5353340D01*
X12321253Y5366558D01*
X12295718Y5373400D01*
D02*
G37*
G36*
X12209256Y5446503D02*
X12190757D01*
X12173667Y5439424D01*
X12160586Y5426343D01*
X12153507Y5409252D01*
Y5390754D01*
X12160586Y5373663D01*
X12173667Y5360582D01*
X12190757Y5353503D01*
X12203056D01*
X12208316Y5340803D01*
X12202160Y5334647D01*
X12188942Y5311753D01*
X12182100Y5286218D01*
Y5285700D01*
X12269800D01*
Y5373400D01*
X12269282D01*
X12250808Y5368450D01*
X12241704Y5379158D01*
X12246506Y5390754D01*
Y5409252D01*
X12239427Y5426343D01*
X12226347Y5439424D01*
X12209256Y5446503D01*
D02*
G37*
G36*
X9492700Y5477700D02*
X9192300D01*
Y5277300D01*
X9492700D01*
Y5477700D01*
D02*
G37*
G36*
X9719249Y5366500D02*
X9700750D01*
X9683660Y5359421D01*
X9670579Y5346340D01*
X9663500Y5329249D01*
Y5310751D01*
X9670579Y5293660D01*
X9683660Y5280579D01*
X9700750Y5273500D01*
X9719249D01*
X9736340Y5280579D01*
X9749421Y5293660D01*
X9756500Y5310751D01*
Y5329249D01*
X9749421Y5346340D01*
X9736340Y5359421D01*
X9719249Y5366500D01*
D02*
G37*
G36*
X12041533Y5372000D02*
X12015466D01*
X11990287Y5365253D01*
X11967713Y5352219D01*
X11949280Y5333787D01*
X11936247Y5311212D01*
X11929500Y5286033D01*
Y5259966D01*
X11932100Y5250264D01*
X11921296Y5241516D01*
X11909256Y5246503D01*
X11890757D01*
X11873666Y5239424D01*
X11860586Y5226343D01*
X11853507Y5209252D01*
Y5190753D01*
X11860586Y5173663D01*
X11873666Y5160582D01*
X11890757Y5153503D01*
X11909256D01*
X11926346Y5160582D01*
X11939427Y5173663D01*
X11946506Y5190753D01*
Y5197026D01*
X11959206Y5202287D01*
X11967713Y5193780D01*
X11990287Y5180747D01*
X12015466Y5174000D01*
X12041533D01*
X12066712Y5180747D01*
X12089287Y5193780D01*
X12107719Y5212213D01*
X12120753Y5234787D01*
X12127500Y5259966D01*
Y5286033D01*
X12120753Y5311212D01*
X12107719Y5333787D01*
X12089287Y5352219D01*
X12066712Y5365253D01*
X12041533Y5372000D01*
D02*
G37*
G36*
X9874249Y5216500D02*
X9855751D01*
X9838660Y5209421D01*
X9825579Y5196340D01*
X9823123Y5190410D01*
X9809377D01*
X9806921Y5196340D01*
X9793840Y5209421D01*
X9776749Y5216500D01*
X9758250D01*
X9741160Y5209421D01*
X9728079Y5196340D01*
X9721000Y5179249D01*
Y5160751D01*
X9728079Y5143660D01*
X9741160Y5130579D01*
X9758250Y5123500D01*
X9776749D01*
X9793840Y5130579D01*
X9806921Y5143660D01*
X9809377Y5149590D01*
X9823123D01*
X9825579Y5143660D01*
X9838660Y5130579D01*
X9855751Y5123500D01*
X9874249D01*
X9891340Y5130579D01*
X9904421Y5143660D01*
X9911500Y5160751D01*
Y5179249D01*
X9904421Y5196340D01*
X9891340Y5209421D01*
X9874249Y5216500D01*
D02*
G37*
G36*
X12382900Y5260300D02*
X12295200D01*
Y5172600D01*
X12295718D01*
X12321253Y5179442D01*
X12344147Y5192660D01*
X12362840Y5211353D01*
X12376058Y5234247D01*
X12382900Y5259782D01*
Y5260300D01*
D02*
G37*
G36*
X12269800D02*
X12182100D01*
Y5259782D01*
X12188942Y5234247D01*
X12202160Y5211353D01*
X12220853Y5192660D01*
X12243747Y5179442D01*
X12269282Y5172600D01*
X12269800D01*
Y5260300D01*
D02*
G37*
G36*
X11309256Y5246503D02*
X11290757D01*
X11273666Y5239424D01*
X11260585Y5226343D01*
X11253506Y5209252D01*
Y5190753D01*
X11260585Y5173663D01*
X11273666Y5160582D01*
X11290757Y5153503D01*
X11309256D01*
X11326346Y5160582D01*
X11339427Y5173663D01*
X11346506Y5190753D01*
Y5209252D01*
X11339427Y5226343D01*
X11326346Y5239424D01*
X11309256Y5246503D01*
D02*
G37*
G36*
X10909255D02*
X10890756D01*
X10873666Y5239424D01*
X10860585Y5226343D01*
X10853506Y5209252D01*
Y5190753D01*
X10860585Y5173663D01*
X10873666Y5160582D01*
X10890756Y5153503D01*
X10909255D01*
X10926346Y5160582D01*
X10939427Y5173663D01*
X10946506Y5190753D01*
Y5209252D01*
X10939427Y5226343D01*
X10926346Y5239424D01*
X10909255Y5246503D01*
D02*
G37*
G36*
X9509255D02*
X9490756D01*
X9473665Y5239424D01*
X9460584Y5226343D01*
X9453505Y5209252D01*
Y5190753D01*
X9460584Y5173663D01*
X9473665Y5160582D01*
X9490756Y5153503D01*
X9509255D01*
X9526345Y5160582D01*
X9539426Y5173663D01*
X9546505Y5190753D01*
Y5209252D01*
X9539426Y5226343D01*
X9526345Y5239424D01*
X9509255Y5246503D01*
D02*
G37*
G36*
X10144249Y5204000D02*
X10125751D01*
X10108660Y5196921D01*
X10095579Y5183840D01*
X10088500Y5166749D01*
Y5148251D01*
X10095579Y5131160D01*
X10108660Y5118079D01*
X10125751Y5111000D01*
X10144249D01*
X10161340Y5118079D01*
X10174421Y5131160D01*
X10181500Y5148251D01*
Y5166749D01*
X10174421Y5183840D01*
X10161340Y5196921D01*
X10144249Y5204000D01*
D02*
G37*
G36*
X10597161Y5189000D02*
X10578663D01*
X10561572Y5181921D01*
X10548491Y5168840D01*
X10541412Y5151749D01*
Y5133251D01*
X10548491Y5116160D01*
X10561572Y5103079D01*
X10578663Y5096000D01*
X10597161D01*
X10614252Y5103079D01*
X10627333Y5116160D01*
X10634412Y5133251D01*
Y5151749D01*
X10627333Y5168840D01*
X10614252Y5181921D01*
X10597161Y5189000D01*
D02*
G37*
G36*
X11630499Y5257750D02*
X11612001D01*
X11594910Y5250671D01*
X11581829Y5237590D01*
X11574750Y5220500D01*
Y5202001D01*
X11581829Y5184910D01*
X11588442Y5178297D01*
X11593741Y5170000D01*
X11588442Y5161704D01*
X11581829Y5155090D01*
X11574750Y5138000D01*
Y5119501D01*
X11581829Y5102410D01*
X11594910Y5089329D01*
X11612000Y5082250D01*
X11630499D01*
X11647590Y5089329D01*
X11660671Y5102410D01*
X11667750Y5119501D01*
Y5138000D01*
X11660671Y5155090D01*
X11654057Y5161703D01*
X11648759Y5170000D01*
X11654057Y5178297D01*
X11660671Y5184910D01*
X11667750Y5202001D01*
Y5220500D01*
X11660671Y5237590D01*
X11647590Y5250671D01*
X11630499Y5257750D01*
D02*
G37*
G36*
X9809255Y5046502D02*
X9790756D01*
X9773665Y5039423D01*
X9760584Y5026343D01*
X9753506Y5009252D01*
Y4990753D01*
X9760584Y4973663D01*
X9773665Y4960582D01*
X9790756Y4953503D01*
X9809255D01*
X9826345Y4960582D01*
X9839426Y4973663D01*
X9846505Y4990753D01*
Y5009252D01*
X9839426Y5026343D01*
X9826345Y5039423D01*
X9809255Y5046502D01*
D02*
G37*
G36*
X9209254D02*
X9190756D01*
X9173665Y5039423D01*
X9160584Y5026343D01*
X9153505Y5009252D01*
Y4990753D01*
X9160584Y4973663D01*
X9173665Y4960582D01*
X9190756Y4953503D01*
X9209254D01*
X9226345Y4960582D01*
X9239426Y4973663D01*
X9246505Y4990753D01*
Y5009252D01*
X9239426Y5026343D01*
X9226345Y5039423D01*
X9209254Y5046502D01*
D02*
G37*
G36*
X12295533Y5118000D02*
X12269466D01*
X12244287Y5111253D01*
X12221713Y5098219D01*
X12203280Y5079787D01*
X12190247Y5057212D01*
X12183500Y5032033D01*
Y5005966D01*
X12190247Y4980787D01*
X12203280Y4958213D01*
X12221713Y4939780D01*
X12244287Y4926747D01*
X12269466Y4920000D01*
X12295533D01*
X12320712Y4926747D01*
X12343287Y4939780D01*
X12361719Y4958213D01*
X12374753Y4980787D01*
X12381500Y5005966D01*
Y5032033D01*
X12374753Y5057212D01*
X12361719Y5079787D01*
X12343287Y5098219D01*
X12320712Y5111253D01*
X12295533Y5118000D01*
D02*
G37*
G36*
X12041533D02*
X12015466D01*
X11990287Y5111253D01*
X11967713Y5098219D01*
X11949280Y5079787D01*
X11936247Y5057212D01*
X11929500Y5032033D01*
Y5005966D01*
X11936247Y4980787D01*
X11949280Y4958213D01*
X11967713Y4939780D01*
X11990287Y4926747D01*
X12015466Y4920000D01*
X12041533D01*
X12066712Y4926747D01*
X12089287Y4939780D01*
X12107719Y4958213D01*
X12120753Y4980787D01*
X12127500Y5005966D01*
Y5032033D01*
X12120753Y5057212D01*
X12107719Y5079787D01*
X12089287Y5098219D01*
X12066712Y5111253D01*
X12041533Y5118000D01*
D02*
G37*
G36*
X11807599Y4982550D02*
X11789100D01*
X11772010Y4975471D01*
X11758929Y4962391D01*
X11751850Y4945300D01*
Y4926801D01*
X11758929Y4909711D01*
X11772010Y4896630D01*
X11789100Y4889551D01*
X11807599D01*
X11824690Y4896630D01*
X11837771Y4909711D01*
X11844850Y4926801D01*
Y4945300D01*
X11837771Y4962391D01*
X11824690Y4975471D01*
X11807599Y4982550D01*
D02*
G37*
G36*
X10696749Y4929000D02*
X10678251D01*
X10661160Y4921921D01*
X10648079Y4908840D01*
X10641000Y4891749D01*
Y4873251D01*
X10648079Y4856160D01*
X10661160Y4843079D01*
X10678251Y4836000D01*
X10696749D01*
X10713840Y4843079D01*
X10726921Y4856160D01*
X10734000Y4873251D01*
Y4891749D01*
X10726921Y4908840D01*
X10713840Y4921921D01*
X10696749Y4929000D01*
D02*
G37*
G36*
X11351749Y4926500D02*
X11333251D01*
X11316160Y4919421D01*
X11303079Y4906340D01*
X11296000Y4889249D01*
Y4870750D01*
X11303079Y4853660D01*
X11316160Y4840579D01*
X11333251Y4833500D01*
X11351749D01*
X11368840Y4840579D01*
X11381921Y4853660D01*
X11389000Y4870750D01*
Y4889249D01*
X11381921Y4906340D01*
X11368840Y4919421D01*
X11351749Y4926500D01*
D02*
G37*
G36*
X11264250Y4834000D02*
X11245751D01*
X11228660Y4826921D01*
X11220797Y4819057D01*
X11212500Y4815252D01*
X11204203Y4819057D01*
X11196340Y4826921D01*
X11179249Y4834000D01*
X11160751D01*
X11143660Y4826921D01*
X11132409Y4815670D01*
X11125000Y4814626D01*
X11117591Y4815670D01*
X11106340Y4826921D01*
X11089249Y4834000D01*
X11070751D01*
X11053660Y4826921D01*
X11043750Y4817011D01*
X11033840Y4826921D01*
X11016749Y4834000D01*
X10998251D01*
X10981160Y4826921D01*
X10968079Y4813840D01*
X10955224Y4815993D01*
X10947966Y4819000D01*
X10929467D01*
X10912376Y4811921D01*
X10899296Y4798840D01*
X10892217Y4781749D01*
Y4763251D01*
X10899296Y4746160D01*
X10912376Y4733079D01*
X10929467Y4726000D01*
X10947966D01*
X10965057Y4733079D01*
X10978137Y4746160D01*
X10990992Y4744007D01*
X10998251Y4741000D01*
X11016749D01*
X11033840Y4748079D01*
X11043750Y4757989D01*
X11053660Y4748079D01*
X11070751Y4741000D01*
X11089249D01*
X11106340Y4748079D01*
X11117591Y4759330D01*
X11125000Y4760374D01*
X11132409Y4759330D01*
X11143660Y4748079D01*
X11160751Y4741000D01*
X11179249D01*
X11196340Y4748079D01*
X11204203Y4755942D01*
X11212500Y4759747D01*
X11220797Y4755942D01*
X11228660Y4748079D01*
X11245751Y4741000D01*
X11264250D01*
X11281340Y4748079D01*
X11294421Y4761160D01*
X11301500Y4778251D01*
Y4796749D01*
X11294421Y4813840D01*
X11281340Y4826921D01*
X11264250Y4834000D01*
D02*
G37*
G36*
X10109255Y4846502D02*
X10090756D01*
X10073665Y4839423D01*
X10060585Y4826343D01*
X10053506Y4809252D01*
Y4790753D01*
X10060585Y4773663D01*
X10073665Y4760582D01*
X10090756Y4753503D01*
X10109255D01*
X10126346Y4760582D01*
X10139426Y4773663D01*
X10146505Y4790753D01*
Y4809252D01*
X10139426Y4826343D01*
X10126346Y4839423D01*
X10109255Y4846502D01*
D02*
G37*
G36*
X10399249Y4814000D02*
X10380751D01*
X10363660Y4806921D01*
X10350579Y4793840D01*
X10343500Y4776749D01*
Y4758250D01*
X10350579Y4741160D01*
X10363660Y4728079D01*
X10380751Y4721000D01*
X10399249D01*
X10416340Y4728079D01*
X10429421Y4741160D01*
X10436500Y4758250D01*
Y4776749D01*
X10429421Y4793840D01*
X10416340Y4806921D01*
X10399249Y4814000D01*
D02*
G37*
G36*
X9816477Y4683187D02*
X9797978D01*
X9780887Y4676108D01*
X9777227Y4672448D01*
X9773567Y4676108D01*
X9756477Y4683187D01*
X9737978D01*
X9720887Y4676108D01*
X9717227Y4672448D01*
X9713568Y4676108D01*
X9696477Y4683187D01*
X9677978D01*
X9660887Y4676108D01*
X9647807Y4663027D01*
X9640728Y4645936D01*
Y4627438D01*
X9647807Y4610347D01*
X9651467Y4606687D01*
X9647807Y4603027D01*
X9640728Y4585936D01*
Y4567438D01*
X9647807Y4550347D01*
X9660887Y4537266D01*
X9677978Y4530187D01*
X9696477D01*
X9713568Y4537266D01*
X9717227Y4540926D01*
X9720887Y4537266D01*
X9737978Y4530187D01*
X9756477D01*
X9773567Y4537266D01*
X9777227Y4540926D01*
X9780887Y4537266D01*
X9797978Y4530187D01*
X9816477D01*
X9833567Y4537266D01*
X9846648Y4550347D01*
X9853727Y4567438D01*
Y4585936D01*
X9846648Y4603027D01*
X9842988Y4606687D01*
X9846648Y4610347D01*
X9853727Y4627438D01*
Y4645936D01*
X9846648Y4663027D01*
X9833567Y4676108D01*
X9816477Y4683187D01*
D02*
G37*
G36*
X12381500Y4864000D02*
X12183500D01*
Y4666000D01*
X12381500D01*
Y4864000D01*
D02*
G37*
G36*
X12041533D02*
X12015466D01*
X11990287Y4857253D01*
X11967713Y4844219D01*
X11949280Y4825787D01*
X11936247Y4803212D01*
X11929500Y4778033D01*
Y4751966D01*
X11936247Y4726787D01*
X11949280Y4704213D01*
X11967713Y4685780D01*
X11990287Y4672747D01*
X12015466Y4666000D01*
X12041533D01*
X12066712Y4672747D01*
X12089287Y4685780D01*
X12107719Y4704213D01*
X12120753Y4726787D01*
X12127500Y4751966D01*
Y4778033D01*
X12120753Y4803212D01*
X12107719Y4825787D01*
X12089287Y4844219D01*
X12066712Y4857253D01*
X12041533Y4864000D01*
D02*
G37*
G36*
X10169249Y4686500D02*
X10150751D01*
X10133660Y4679421D01*
X10120579Y4666340D01*
X10113500Y4649250D01*
Y4645938D01*
X10101500Y4644250D01*
X10094421Y4661340D01*
X10081340Y4674421D01*
X10064249Y4681500D01*
X10045751D01*
X10028660Y4674421D01*
X10015579Y4661340D01*
X10008500Y4644249D01*
Y4625750D01*
X10015579Y4608660D01*
X10028660Y4595579D01*
X10045751Y4588500D01*
X10064249D01*
X10081340Y4595579D01*
X10094421Y4608660D01*
X10101500Y4625750D01*
Y4629062D01*
X10113500Y4630750D01*
X10120579Y4613660D01*
X10133660Y4600579D01*
X10150751Y4593500D01*
X10169249D01*
X10186340Y4600579D01*
X10199421Y4613660D01*
X10206500Y4630751D01*
Y4649250D01*
X10199421Y4666340D01*
X10186340Y4679421D01*
X10169249Y4686500D01*
D02*
G37*
G36*
X12409256Y4646502D02*
X12390757D01*
X12373667Y4639423D01*
X12360586Y4626343D01*
X12353507Y4609252D01*
Y4590753D01*
X12360586Y4573662D01*
X12373667Y4560582D01*
X12390757Y4553503D01*
X12409256D01*
X12426347Y4560582D01*
X12439427Y4573662D01*
X12446506Y4590753D01*
Y4609252D01*
X12439427Y4626343D01*
X12426347Y4639423D01*
X12409256Y4646502D01*
D02*
G37*
G36*
X11409256D02*
X11390757D01*
X11373666Y4639423D01*
X11360585Y4626343D01*
X11353506Y4609252D01*
Y4590753D01*
X11360585Y4573662D01*
X11373666Y4560582D01*
X11390757Y4553503D01*
X11409256D01*
X11426346Y4560582D01*
X11439427Y4573662D01*
X11446506Y4590753D01*
Y4609252D01*
X11439427Y4626343D01*
X11426346Y4639423D01*
X11409256Y4646502D01*
D02*
G37*
G36*
X11209255D02*
X11190757D01*
X11173666Y4639423D01*
X11160585Y4626343D01*
X11153506Y4609252D01*
Y4590753D01*
X11160585Y4573662D01*
X11173666Y4560582D01*
X11190757Y4553503D01*
X11209255D01*
X11226346Y4560582D01*
X11239427Y4573662D01*
X11246506Y4590753D01*
Y4609252D01*
X11239427Y4626343D01*
X11226346Y4639423D01*
X11209255Y4646502D01*
D02*
G37*
G36*
X11009255D02*
X10990757D01*
X10973666Y4639423D01*
X10960585Y4626343D01*
X10953506Y4609252D01*
Y4590753D01*
X10960585Y4573662D01*
X10973666Y4560582D01*
X10990757Y4553503D01*
X11009255D01*
X11026346Y4560582D01*
X11039427Y4573662D01*
X11046506Y4590753D01*
Y4609252D01*
X11039427Y4626343D01*
X11026346Y4639423D01*
X11009255Y4646502D01*
D02*
G37*
G36*
X9209254D02*
X9190756D01*
X9173665Y4639423D01*
X9160584Y4626343D01*
X9153505Y4609252D01*
Y4590753D01*
X9160584Y4573662D01*
X9173665Y4560582D01*
X9190756Y4553503D01*
X9209254D01*
X9226345Y4560582D01*
X9239426Y4573662D01*
X9246505Y4590753D01*
Y4609252D01*
X9239426Y4626343D01*
X9226345Y4639423D01*
X9209254Y4646502D01*
D02*
G37*
G36*
X10314249Y4684000D02*
X10295751D01*
X10278660Y4676921D01*
X10265579Y4663840D01*
X10258500Y4646749D01*
Y4628251D01*
X10265579Y4611160D01*
X10278660Y4598079D01*
X10295751Y4591000D01*
X10314249D01*
X10331340Y4598079D01*
X10340806Y4607545D01*
X10353506Y4602433D01*
Y4590753D01*
X10360585Y4573662D01*
X10373666Y4560582D01*
X10390756Y4553503D01*
X10409255D01*
X10426346Y4560582D01*
X10439426Y4573662D01*
X10443500Y4583497D01*
X10456200Y4580971D01*
Y4569351D01*
X10463279Y4552260D01*
X10476360Y4539179D01*
X10493450Y4532100D01*
X10511949D01*
X10529040Y4539179D01*
X10542120Y4552260D01*
X10549199Y4569351D01*
Y4587850D01*
X10542120Y4604940D01*
X10529040Y4618021D01*
X10511949Y4625100D01*
X10493450D01*
X10476360Y4618021D01*
X10463279Y4604940D01*
X10459205Y4595106D01*
X10446505Y4597632D01*
Y4609252D01*
X10439426Y4626343D01*
X10426346Y4639423D01*
X10409255Y4646502D01*
X10390756D01*
X10373666Y4639423D01*
X10364200Y4629957D01*
X10351500Y4635070D01*
Y4646749D01*
X10344421Y4663840D01*
X10331340Y4676921D01*
X10314249Y4684000D01*
D02*
G37*
G36*
X10689249Y4471500D02*
X10670751D01*
X10653660Y4464421D01*
X10640579Y4451340D01*
X10633500Y4434249D01*
Y4415751D01*
X10640579Y4398660D01*
X10653660Y4385579D01*
X10670751Y4378500D01*
X10689249D01*
X10706340Y4385579D01*
X10719421Y4398660D01*
X10726500Y4415751D01*
Y4434249D01*
X10719421Y4451340D01*
X10706340Y4464421D01*
X10689249Y4471500D01*
D02*
G37*
G36*
X12295533Y4575500D02*
X12269466D01*
X12244287Y4568753D01*
X12221713Y4555719D01*
X12203280Y4537287D01*
X12190247Y4514712D01*
X12183500Y4489533D01*
Y4463466D01*
X12190247Y4438287D01*
X12203280Y4415713D01*
X12221713Y4397280D01*
X12244287Y4384247D01*
X12269466Y4377500D01*
X12295533D01*
X12320712Y4384247D01*
X12343287Y4397280D01*
X12361719Y4415713D01*
X12374753Y4438287D01*
X12381500Y4463466D01*
Y4489533D01*
X12374753Y4514712D01*
X12361719Y4537287D01*
X12343287Y4555719D01*
X12320712Y4568753D01*
X12295533Y4575500D01*
D02*
G37*
G36*
X12041533D02*
X12015466D01*
X11990287Y4568753D01*
X11967713Y4555719D01*
X11949280Y4537287D01*
X11936247Y4514712D01*
X11929500Y4489533D01*
Y4463466D01*
X11936247Y4438287D01*
X11949280Y4415713D01*
X11967713Y4397280D01*
X11990287Y4384247D01*
X12015466Y4377500D01*
X12041533D01*
X12066712Y4384247D01*
X12089287Y4397280D01*
X12107719Y4415713D01*
X12120753Y4438287D01*
X12127500Y4463466D01*
Y4489533D01*
X12120753Y4514712D01*
X12107719Y4537287D01*
X12089287Y4555719D01*
X12066712Y4568753D01*
X12041533Y4575500D01*
D02*
G37*
G36*
X11109255Y4446502D02*
X11090757D01*
X11073666Y4439423D01*
X11060585Y4426342D01*
X11053506Y4409252D01*
Y4390753D01*
X11060585Y4373662D01*
X11073666Y4360582D01*
X11090757Y4353503D01*
X11109255D01*
X11126346Y4360582D01*
X11139427Y4373662D01*
X11146506Y4390753D01*
Y4409252D01*
X11139427Y4426342D01*
X11126346Y4439423D01*
X11109255Y4446502D01*
D02*
G37*
G36*
X9509255D02*
X9490756D01*
X9473665Y4439423D01*
X9460584Y4426342D01*
X9453505Y4409252D01*
Y4390753D01*
X9460584Y4373662D01*
X9473665Y4360582D01*
X9490756Y4353503D01*
X9509255D01*
X9526345Y4360582D01*
X9539426Y4373662D01*
X9546505Y4390753D01*
Y4409252D01*
X9539426Y4426342D01*
X9526345Y4439423D01*
X9509255Y4446502D01*
D02*
G37*
G36*
X10166749Y4409000D02*
X10148250D01*
X10131160Y4401921D01*
X10118079Y4388840D01*
X10111000Y4371749D01*
Y4353251D01*
X10118079Y4336160D01*
X10131160Y4323079D01*
X10148250Y4316000D01*
X10166749D01*
X10183840Y4323079D01*
X10196921Y4336160D01*
X10204000Y4353251D01*
Y4371749D01*
X10196921Y4388840D01*
X10183840Y4401921D01*
X10166749Y4409000D01*
D02*
G37*
G36*
X10031749Y4406500D02*
X10013250D01*
X9996160Y4399421D01*
X9983079Y4386340D01*
X9976000Y4369249D01*
Y4350751D01*
X9983079Y4333660D01*
X9996160Y4320579D01*
X10013250Y4313500D01*
X10031749D01*
X10048840Y4320579D01*
X10061921Y4333660D01*
X10069000Y4350751D01*
Y4369249D01*
X10061921Y4386340D01*
X10048840Y4399421D01*
X10031749Y4406500D01*
D02*
G37*
G36*
X10354249Y4416500D02*
X10335750D01*
X10318660Y4409421D01*
X10305579Y4396340D01*
X10298500Y4379249D01*
Y4360751D01*
X10287550Y4354000D01*
X10280751D01*
X10263660Y4346921D01*
X10250579Y4333840D01*
X10243500Y4316749D01*
Y4298250D01*
X10250579Y4281160D01*
X10263660Y4268079D01*
X10280751Y4261000D01*
X10299249D01*
X10316340Y4268079D01*
X10329421Y4281160D01*
X10336500Y4298250D01*
Y4316749D01*
X10347450Y4323500D01*
X10354249D01*
X10371340Y4330579D01*
X10384421Y4343660D01*
X10391500Y4360750D01*
Y4379249D01*
X10384421Y4396340D01*
X10371340Y4409421D01*
X10354249Y4416500D01*
D02*
G37*
G36*
X11741091Y4314658D02*
X11722592D01*
X11705502Y4307579D01*
X11692421Y4294499D01*
X11685342Y4277408D01*
Y4258909D01*
X11692421Y4241819D01*
X11705502Y4228738D01*
X11722592Y4221659D01*
X11741091D01*
X11758182Y4228738D01*
X11771262Y4241819D01*
X11778341Y4258909D01*
Y4277408D01*
X11771262Y4294499D01*
X11758182Y4307579D01*
X11741091Y4314658D01*
D02*
G37*
G36*
X10609255Y4246502D02*
X10590756D01*
X10573666Y4239423D01*
X10560585Y4226342D01*
X10553506Y4209252D01*
Y4190753D01*
X10560585Y4173662D01*
X10573666Y4160581D01*
X10590756Y4153502D01*
X10609255D01*
X10626346Y4160581D01*
X10639427Y4173662D01*
X10646506Y4190753D01*
Y4209252D01*
X10639427Y4226342D01*
X10626346Y4239423D01*
X10609255Y4246502D01*
D02*
G37*
G36*
X12295533Y4321500D02*
X12269466D01*
X12244287Y4314753D01*
X12221713Y4301719D01*
X12203280Y4283287D01*
X12190247Y4260712D01*
X12183500Y4235533D01*
Y4209466D01*
X12190247Y4184287D01*
X12203280Y4161713D01*
X12221713Y4143280D01*
X12244287Y4130247D01*
X12269466Y4123500D01*
X12295533D01*
X12320712Y4130247D01*
X12343287Y4143280D01*
X12361719Y4161713D01*
X12374753Y4184287D01*
X12381500Y4209466D01*
Y4235533D01*
X12374753Y4260712D01*
X12361719Y4283287D01*
X12343287Y4301719D01*
X12320712Y4314753D01*
X12295533Y4321500D01*
D02*
G37*
G36*
X12041533D02*
X12015466D01*
X11990287Y4314753D01*
X11967713Y4301719D01*
X11949280Y4283287D01*
X11936247Y4260712D01*
X11929500Y4235533D01*
Y4209466D01*
X11936247Y4184287D01*
X11949280Y4161713D01*
X11967713Y4143280D01*
X11990287Y4130247D01*
X12015466Y4123500D01*
X12041533D01*
X12066712Y4130247D01*
X12089287Y4143280D01*
X12107719Y4161713D01*
X12120753Y4184287D01*
X12127500Y4209466D01*
Y4235533D01*
X12120753Y4260712D01*
X12107719Y4283287D01*
X12089287Y4301719D01*
X12066712Y4314753D01*
X12041533Y4321500D01*
D02*
G37*
G36*
X11811749Y4201500D02*
X11793250D01*
X11776160Y4194421D01*
X11763079Y4181340D01*
X11756000Y4164249D01*
Y4145751D01*
X11763079Y4128660D01*
X11776160Y4115579D01*
X11793250Y4108500D01*
X11811749D01*
X11828840Y4115579D01*
X11841921Y4128660D01*
X11849000Y4145751D01*
Y4164249D01*
X11841921Y4181340D01*
X11828840Y4194421D01*
X11811749Y4201500D01*
D02*
G37*
G36*
X9276749Y4191500D02*
X9258250D01*
X9241160Y4184421D01*
X9228079Y4171340D01*
X9221000Y4154250D01*
Y4135751D01*
X9228079Y4118660D01*
X9241160Y4105579D01*
X9258250Y4098500D01*
X9276749D01*
X9293840Y4105579D01*
X9306921Y4118660D01*
X9314000Y4135751D01*
Y4154250D01*
X9306921Y4171340D01*
X9293840Y4184421D01*
X9276749Y4191500D01*
D02*
G37*
G36*
X10269249Y4184000D02*
X10250751D01*
X10233660Y4176921D01*
X10220579Y4163840D01*
X10213500Y4146749D01*
Y4128250D01*
X10220579Y4111160D01*
X10233660Y4098079D01*
X10250751Y4091000D01*
X10269249D01*
X10286340Y4098079D01*
X10299421Y4111160D01*
X10306500Y4128250D01*
Y4146749D01*
X10299421Y4163840D01*
X10286340Y4176921D01*
X10269249Y4184000D01*
D02*
G37*
G36*
X9818167Y4093210D02*
X9799668D01*
X9782577Y4086131D01*
X9778917Y4082471D01*
X9775258Y4086131D01*
X9758167Y4093210D01*
X9739668D01*
X9722577Y4086131D01*
X9718918Y4082471D01*
X9715258Y4086131D01*
X9698167Y4093210D01*
X9679668D01*
X9662578Y4086131D01*
X9649497Y4073050D01*
X9642418Y4055959D01*
Y4037461D01*
X9649497Y4020370D01*
X9662578Y4007289D01*
X9679668Y4000210D01*
X9698167D01*
X9715258Y4007289D01*
X9718918Y4010949D01*
X9722577Y4007289D01*
X9739668Y4000210D01*
X9758167D01*
X9775258Y4007289D01*
X9778917Y4010949D01*
X9782577Y4007289D01*
X9799668Y4000210D01*
X9818167D01*
X9835257Y4007289D01*
X9848338Y4020370D01*
X9855417Y4037461D01*
Y4055959D01*
X9848338Y4073050D01*
X9835257Y4086131D01*
X9818167Y4093210D01*
D02*
G37*
G36*
X9494249Y4134000D02*
X9475750D01*
X9458660Y4126921D01*
X9445579Y4113840D01*
X9438500Y4096749D01*
Y4078251D01*
X9445579Y4061160D01*
X9458660Y4048079D01*
X9475750Y4041000D01*
X9494249D01*
X9511340Y4048079D01*
X9524421Y4061160D01*
X9531500Y4078251D01*
Y4096749D01*
X9524421Y4113840D01*
X9511340Y4126921D01*
X9494249Y4134000D01*
D02*
G37*
G36*
X11809749Y4039000D02*
X11791250D01*
X11774160Y4031921D01*
X11761079Y4018840D01*
X11754000Y4001749D01*
Y3983251D01*
X11761079Y3966160D01*
X11774160Y3953079D01*
X11791250Y3946000D01*
X11809749D01*
X11826840Y3953079D01*
X11839921Y3966160D01*
X11847000Y3983251D01*
Y4001749D01*
X11839921Y4018840D01*
X11826840Y4031921D01*
X11809749Y4039000D01*
D02*
G37*
G36*
X9961749Y4014000D02*
X9943251D01*
X9926160Y4006921D01*
X9913079Y3993840D01*
X9906000Y3976749D01*
Y3958250D01*
X9913079Y3941160D01*
X9926160Y3928079D01*
X9943251Y3921000D01*
X9961749D01*
X9978840Y3928079D01*
X9991921Y3941160D01*
X9999000Y3958250D01*
Y3976749D01*
X9991921Y3993840D01*
X9978840Y4006921D01*
X9961749Y4014000D01*
D02*
G37*
G36*
X12381500Y4067500D02*
X12183500D01*
Y3869500D01*
X12381500D01*
Y4067500D01*
D02*
G37*
G36*
X12041533D02*
X12015466D01*
X11990287Y4060753D01*
X11967713Y4047719D01*
X11949280Y4029287D01*
X11936247Y4006712D01*
X11929500Y3981533D01*
Y3955466D01*
X11936247Y3930287D01*
X11949280Y3907713D01*
X11967713Y3889280D01*
X11990287Y3876247D01*
X12015466Y3869500D01*
X12041533D01*
X12066712Y3876247D01*
X12089287Y3889280D01*
X12107719Y3907713D01*
X12120753Y3930287D01*
X12127500Y3955466D01*
Y3981533D01*
X12120753Y4006712D01*
X12107719Y4029287D01*
X12089287Y4047719D01*
X12066712Y4060753D01*
X12041533Y4067500D01*
D02*
G37*
G36*
X12409256Y3846502D02*
X12390757D01*
X12373667Y3839423D01*
X12360586Y3826342D01*
X12353507Y3809251D01*
Y3790753D01*
X12360586Y3773662D01*
X12373667Y3760581D01*
X12390757Y3753502D01*
X12409256D01*
X12426347Y3760581D01*
X12439427Y3773662D01*
X12446506Y3790753D01*
Y3809251D01*
X12439427Y3826342D01*
X12426347Y3839423D01*
X12409256Y3846502D01*
D02*
G37*
G36*
X12209256D02*
X12190757D01*
X12173667Y3839423D01*
X12160586Y3826342D01*
X12153507Y3809251D01*
Y3790753D01*
X12160586Y3773662D01*
X12173667Y3760581D01*
X12190757Y3753502D01*
X12209256D01*
X12226347Y3760581D01*
X12239427Y3773662D01*
X12246506Y3790753D01*
Y3809251D01*
X12239427Y3826342D01*
X12226347Y3839423D01*
X12209256Y3846502D01*
D02*
G37*
G36*
X10809255D02*
X10790756D01*
X10773666Y3839423D01*
X10760585Y3826342D01*
X10753506Y3809251D01*
Y3790753D01*
X10760585Y3773662D01*
X10773666Y3760581D01*
X10790756Y3753502D01*
X10809255D01*
X10826346Y3760581D01*
X10839427Y3773662D01*
X10846506Y3790753D01*
Y3809251D01*
X10839427Y3826342D01*
X10826346Y3839423D01*
X10809255Y3846502D01*
D02*
G37*
G36*
X10609255D02*
X10590756D01*
X10573666Y3839423D01*
X10560585Y3826342D01*
X10553506Y3809251D01*
Y3790753D01*
X10560585Y3773662D01*
X10573666Y3760581D01*
X10590756Y3753502D01*
X10609255D01*
X10626346Y3760581D01*
X10639427Y3773662D01*
X10646506Y3790753D01*
Y3809251D01*
X10639427Y3826342D01*
X10626346Y3839423D01*
X10609255Y3846502D01*
D02*
G37*
G36*
X10409255D02*
X10390756D01*
X10373666Y3839423D01*
X10360585Y3826342D01*
X10353506Y3809251D01*
Y3790753D01*
X10360585Y3773662D01*
X10373666Y3760581D01*
X10390756Y3753502D01*
X10409255D01*
X10426346Y3760581D01*
X10439426Y3773662D01*
X10446505Y3790753D01*
Y3809251D01*
X10439426Y3826342D01*
X10426346Y3839423D01*
X10409255Y3846502D01*
D02*
G37*
G36*
X10209255D02*
X10190756D01*
X10173665Y3839423D01*
X10160585Y3826342D01*
X10153506Y3809251D01*
Y3790753D01*
X10160585Y3773662D01*
X10173665Y3760581D01*
X10190756Y3753502D01*
X10209255D01*
X10226346Y3760581D01*
X10239426Y3773662D01*
X10246505Y3790753D01*
Y3809251D01*
X10239426Y3826342D01*
X10226346Y3839423D01*
X10209255Y3846502D01*
D02*
G37*
G36*
X10009255D02*
X9990756D01*
X9973665Y3839423D01*
X9960585Y3826342D01*
X9953506Y3809251D01*
Y3790753D01*
X9960585Y3773662D01*
X9973665Y3760581D01*
X9990756Y3753502D01*
X10009255D01*
X10026345Y3760581D01*
X10039426Y3773662D01*
X10046505Y3790753D01*
Y3809251D01*
X10039426Y3826342D01*
X10026345Y3839423D01*
X10009255Y3846502D01*
D02*
G37*
G36*
X9809255D02*
X9790756D01*
X9773665Y3839423D01*
X9760584Y3826342D01*
X9753506Y3809251D01*
Y3790753D01*
X9760584Y3773662D01*
X9773665Y3760581D01*
X9790756Y3753502D01*
X9809255D01*
X9826345Y3760581D01*
X9839426Y3773662D01*
X9846505Y3790753D01*
Y3809251D01*
X9839426Y3826342D01*
X9826345Y3839423D01*
X9809255Y3846502D01*
D02*
G37*
G36*
X9609255D02*
X9590756D01*
X9573665Y3839423D01*
X9560584Y3826342D01*
X9553505Y3809251D01*
Y3790753D01*
X9560584Y3773662D01*
X9573665Y3760581D01*
X9590756Y3753502D01*
X9609255D01*
X9626345Y3760581D01*
X9639426Y3773662D01*
X9646505Y3790753D01*
Y3809251D01*
X9639426Y3826342D01*
X9626345Y3839423D01*
X9609255Y3846502D01*
D02*
G37*
G36*
X9409254D02*
X9390756D01*
X9373665Y3839423D01*
X9360584Y3826342D01*
X9353505Y3809251D01*
Y3790753D01*
X9360584Y3773662D01*
X9373665Y3760581D01*
X9390756Y3753502D01*
X9409254D01*
X9426345Y3760581D01*
X9439426Y3773662D01*
X9446505Y3790753D01*
Y3809251D01*
X9439426Y3826342D01*
X9426345Y3839423D01*
X9409254Y3846502D01*
D02*
G37*
G36*
X9209254D02*
X9190756D01*
X9173665Y3839423D01*
X9160584Y3826342D01*
X9153505Y3809251D01*
Y3790753D01*
X9160584Y3773662D01*
X9173665Y3760581D01*
X9190756Y3753502D01*
X9209254D01*
X9226345Y3760581D01*
X9239426Y3773662D01*
X9246505Y3790753D01*
Y3809251D01*
X9239426Y3826342D01*
X9226345Y3839423D01*
X9209254Y3846502D01*
D02*
G37*
%LPD*%
D48*
X11702500Y7189000D02*
D03*
X11995000Y6685000D02*
D03*
Y6939000D02*
D03*
Y7193000D02*
D03*
X12028500Y4765000D02*
D03*
X12282500Y5019000D02*
D03*
X12028500D02*
D03*
X12282500Y5273000D02*
D03*
X12028500D02*
D03*
X12270000Y5850000D02*
D03*
X12274000Y6140000D02*
D03*
Y5560000D02*
D03*
X12282500Y7196500D02*
D03*
Y6942500D02*
D03*
Y6688500D02*
D03*
X12028500Y3968500D02*
D03*
X12282500Y4222500D02*
D03*
X12028500D02*
D03*
X12282500Y4476500D02*
D03*
X12028500D02*
D03*
D49*
X11702500Y6935000D02*
D03*
X11995000Y6431000D02*
D03*
X12282500Y4765000D02*
D03*
Y6434500D02*
D03*
Y3968500D02*
D03*
D50*
X11002500Y5802500D02*
D03*
Y5637500D02*
D03*
D51*
X9732000Y6710000D02*
D03*
X10310000D02*
D03*
D52*
X12016000Y5850000D02*
D03*
X12020000Y6140000D02*
D03*
Y5560000D02*
D03*
D53*
X9342500Y5377500D02*
D03*
D54*
X9352500Y5620000D02*
D03*
D55*
X10665000Y4710000D02*
D03*
Y4767500D02*
D03*
X11392500Y6657500D02*
D03*
X10687500Y4882500D02*
D03*
X11255000Y4787500D02*
D03*
X11342500Y4880000D02*
D03*
X10386000Y5775000D02*
D03*
X9770000Y5637500D02*
D03*
X11170000Y4787500D02*
D03*
X10938717Y4772500D02*
D03*
X11080000Y4787500D02*
D03*
X11007500D02*
D03*
X10587912Y5142500D02*
D03*
X10502700Y4578600D02*
D03*
X11802500Y4155000D02*
D03*
X10160000Y4640000D02*
D03*
X10305000Y4637500D02*
D03*
X10055000Y4635000D02*
D03*
X10576800Y5920000D02*
D03*
X10807500Y5952000D02*
D03*
Y6150000D02*
D03*
X10712500Y6822500D02*
D03*
X10087500Y5302500D02*
D03*
X10117500Y5612500D02*
D03*
X12400007Y7000004D02*
D03*
Y6600004D02*
D03*
Y6200003D02*
D03*
Y5800003D02*
D03*
Y5400003D02*
D03*
Y4600002D02*
D03*
Y3800002D02*
D03*
X12300007Y6000003D02*
D03*
X12200007Y5400003D02*
D03*
Y3800002D02*
D03*
X12100007Y6000003D02*
D03*
X11900006Y5200003D02*
D03*
X11700006Y6800004D02*
D03*
X11600006Y5400003D02*
D03*
X11500006Y7200004D02*
D03*
X11400006Y4600002D02*
D03*
X11300006Y5200003D02*
D03*
X11200006Y4600002D02*
D03*
X11100006Y7200004D02*
D03*
X11000006Y7000004D02*
D03*
Y6200003D02*
D03*
Y4600002D02*
D03*
X11100006Y4400002D02*
D03*
X10800006Y5400003D02*
D03*
X10900006Y5200003D02*
D03*
X10800006Y3800002D02*
D03*
X10700006Y5600003D02*
D03*
X10600006Y4200002D02*
D03*
Y3800002D02*
D03*
X10400006Y4600002D02*
D03*
Y3800002D02*
D03*
X10300006Y7200004D02*
D03*
Y6800004D02*
D03*
X10200006Y6200003D02*
D03*
Y5800003D02*
D03*
Y3800002D02*
D03*
X10100005Y7200004D02*
D03*
X10000005Y7000004D02*
D03*
X10100005Y6800004D02*
D03*
Y6000003D02*
D03*
Y4800003D02*
D03*
X10000005Y3800002D02*
D03*
X9900005Y7200004D02*
D03*
X9800005Y5000003D02*
D03*
Y3800002D02*
D03*
X9700005Y7200004D02*
D03*
Y6800004D02*
D03*
X9600005Y3800002D02*
D03*
X9500005Y6400003D02*
D03*
X9400005Y6200003D02*
D03*
X9500005Y5200003D02*
D03*
Y4400002D02*
D03*
X9400005Y3800002D02*
D03*
X9300005Y7200004D02*
D03*
X9200005Y7000004D02*
D03*
X9300005Y6800004D02*
D03*
X9200005Y6600004D02*
D03*
X9300005Y6400003D02*
D03*
X9200005Y6200003D02*
D03*
X9300005Y6000003D02*
D03*
X9200005Y5800003D02*
D03*
Y5000003D02*
D03*
Y4600002D02*
D03*
Y3800002D02*
D03*
X10567500Y6152500D02*
D03*
X11649646Y5609850D02*
D03*
X10695000Y4155000D02*
D03*
Y4232500D02*
D03*
X10837500Y5532500D02*
D03*
X11002500Y5555000D02*
D03*
X11170000D02*
D03*
Y5720000D02*
D03*
X11002500D02*
D03*
X10835000Y5717500D02*
D03*
X11702500Y6402500D02*
D03*
X11798350Y4936051D02*
D03*
X10770000Y4605000D02*
D03*
X9710000Y5320000D02*
D03*
X10090000Y6270000D02*
D03*
X9995176Y6697419D02*
D03*
X10185000Y6965000D02*
D03*
X10097190Y6699500D02*
D03*
X10182500Y6732500D02*
D03*
X9852500Y6737500D02*
D03*
X9900000Y5985000D02*
D03*
X11800500Y3992500D02*
D03*
X11595000Y6112500D02*
D03*
X10186924Y5485908D02*
D03*
X10172795Y5370908D02*
D03*
X9688918Y4046710D02*
D03*
X9748918D02*
D03*
X9808917D02*
D03*
X9807227Y4636687D02*
D03*
X9747227D02*
D03*
X9687228D02*
D03*
X9807227Y4576687D02*
D03*
X9747227D02*
D03*
X9687228D02*
D03*
X11314646Y5537350D02*
D03*
X10770000Y4682500D02*
D03*
X10587500Y5665000D02*
D03*
X10548500Y5720000D02*
D03*
X10885000Y6770000D02*
D03*
X10930000Y7105000D02*
D03*
X10535000Y7175000D02*
D03*
X10537500Y6777500D02*
D03*
X10342500Y6520000D02*
D03*
X9702500Y6515000D02*
D03*
X9507500Y7170000D02*
D03*
Y6780000D02*
D03*
X11310000Y6805000D02*
D03*
X10825000Y6560000D02*
D03*
X9793938Y6367379D02*
D03*
X9623938Y6382379D02*
D03*
X9808938Y5994879D02*
D03*
X9726438Y5997379D02*
D03*
X9485000Y4087500D02*
D03*
X11731842Y4268159D02*
D03*
X9267500Y4145000D02*
D03*
X10680000Y4425000D02*
D03*
X10390000Y4767500D02*
D03*
X9952500Y3967500D02*
D03*
X10260000Y4137500D02*
D03*
X10290000Y4307500D02*
D03*
X11420000Y5938604D02*
D03*
Y6000000D02*
D03*
X11359904D02*
D03*
Y5938604D02*
D03*
X9865000Y5170000D02*
D03*
X9767500D02*
D03*
X10022500Y4360000D02*
D03*
X10157500Y4362500D02*
D03*
X10345000Y4370000D02*
D03*
X11580000Y5780000D02*
D03*
X10730000Y5330000D02*
D03*
X10728403Y5259618D02*
D03*
X10135000Y5157500D02*
D03*
X11120000Y6822500D02*
D03*
X10932500Y6947500D02*
D03*
X10755000Y6950000D02*
D03*
X10747500Y7180000D02*
D03*
X10932500Y7027500D02*
D03*
X11312500Y6905000D02*
D03*
X11370000Y6972500D02*
D03*
X10932500Y6870000D02*
D03*
X11210000Y7065000D02*
D03*
X11599634Y6281911D02*
D03*
X11621250Y5128750D02*
D03*
X11621250Y5211250D02*
D03*
X11620000Y5710000D02*
D03*
X11530000Y6080000D02*
D03*
X11367134Y6171911D02*
D03*
X11630000Y6180000D02*
D03*
X9850000Y6970000D02*
D03*
D56*
X10405000Y5345000D02*
D03*
Y5455000D02*
D03*
X10515000D02*
D03*
Y5345000D02*
D03*
%TF.MD5,d4e9c7ee19488fb638befd5bad0d8177*%
M02*
