%TF.GenerationSoftware,Altium Limited,Altium Designer,23.1.1 (15)*%
G04 Layer_Color=128*
%FSLAX45Y45*%
%MOMM*%
%TF.SameCoordinates,F9E8136A-E86D-4813-A5E9-63B8E08E304F*%
%TF.FilePolarity,Positive*%
%TF.FileFunction,Paste,Bot*%
%TF.Part,Single*%
G01*
G75*
%TA.AperFunction,SMDPad,CuDef*%
%ADD13R,1.07000X0.83000*%
%ADD31R,0.72000X0.76000*%
%ADD38R,0.67500X0.45000*%
%ADD43R,0.76000X0.72000*%
%ADD57R,0.70000X0.75000*%
%ADD58R,0.75000X0.70000*%
%ADD59R,0.55000X0.60000*%
%TA.AperFunction,BGAPad,CuDef*%
%ADD60R,0.40000X0.40000*%
%TA.AperFunction,SMDPad,CuDef*%
%ADD61R,1.23000X1.23000*%
%ADD62R,0.30000X0.80000*%
%ADD63R,0.80000X0.30000*%
%ADD64R,0.50000X0.50000*%
%ADD65R,1.52400X1.82400*%
%ADD66R,0.60000X0.60000*%
%ADD67R,0.35000X0.80000*%
%ADD68R,0.85000X0.35000*%
%ADD69R,2.60000X2.70000*%
%ADD70R,0.50000X0.50000*%
D13*
X10020000Y4428000D02*
D03*
Y4572000D02*
D03*
X10302500D02*
D03*
Y4428000D02*
D03*
X10162500Y4574500D02*
D03*
Y4430500D02*
D03*
D31*
X10747500Y7114000D02*
D03*
Y7016000D02*
D03*
X11252500Y6904000D02*
D03*
Y6806000D02*
D03*
X11315000Y5694000D02*
D03*
Y5596000D02*
D03*
X10110000Y5549000D02*
D03*
Y5451000D02*
D03*
D38*
X11440000Y5706250D02*
D03*
Y5613750D02*
D03*
D43*
X10391000Y5712500D02*
D03*
X10489000D02*
D03*
D57*
X9850000Y6897500D02*
D03*
Y6802500D02*
D03*
X10182500Y6897500D02*
D03*
Y6802500D02*
D03*
D58*
X11272500Y7155000D02*
D03*
X11367500D02*
D03*
X11275000Y7032500D02*
D03*
X11370000D02*
D03*
X9770000Y5317500D02*
D03*
X9767500Y5225000D02*
D03*
X9865000Y5317500D02*
D03*
X9862500Y5225000D02*
D03*
D59*
X11640000Y6097500D02*
D03*
Y6012500D02*
D03*
D60*
X11120000Y6867500D02*
D03*
Y6947500D02*
D03*
Y7027500D02*
D03*
Y7107500D02*
D03*
X10880000D02*
D03*
Y7027500D02*
D03*
Y6947500D02*
D03*
Y6867500D02*
D03*
D61*
X11390000Y5967500D02*
D03*
D62*
X11465000Y6110000D02*
D03*
X11415000D02*
D03*
X11365000D02*
D03*
X11315000D02*
D03*
Y5825000D02*
D03*
X11365000D02*
D03*
X11415000D02*
D03*
X11465000D02*
D03*
D63*
X11247500Y6042500D02*
D03*
Y5992500D02*
D03*
Y5942500D02*
D03*
Y5892500D02*
D03*
X11532500D02*
D03*
Y5942500D02*
D03*
Y5992500D02*
D03*
Y6042500D02*
D03*
D64*
X10770000Y5480000D02*
D03*
X10870000D02*
D03*
D65*
X10692500Y5915000D02*
D03*
X10478750Y5918750D02*
D03*
X10695834Y6152500D02*
D03*
X10477500Y6152500D02*
D03*
D66*
X11652500Y5887500D02*
D03*
Y5782500D02*
D03*
D67*
X10585000Y5200000D02*
D03*
X10535000D02*
D03*
X10485000D02*
D03*
X10435000D02*
D03*
X10385000D02*
D03*
X10335000D02*
D03*
X10585000Y5600000D02*
D03*
X10535000D02*
D03*
X10485000D02*
D03*
X10435000D02*
D03*
X10385000D02*
D03*
X10335000D02*
D03*
D68*
X10262500Y5275000D02*
D03*
Y5325000D02*
D03*
Y5375000D02*
D03*
Y5425000D02*
D03*
Y5475000D02*
D03*
Y5525000D02*
D03*
X10657500Y5275000D02*
D03*
Y5325000D02*
D03*
Y5375000D02*
D03*
Y5425000D02*
D03*
Y5475000D02*
D03*
Y5525000D02*
D03*
D69*
X10460000Y5400000D02*
D03*
D70*
X10135000Y5202500D02*
D03*
Y5302500D02*
D03*
%TF.MD5,c27b140e65447a36c1d50dd47fac5a78*%
M02*
