%TF.GenerationSoftware,Altium Limited,Altium Designer,23.1.1 (15)*%
G04 Layer_Physical_Order=6*
G04 Layer_Color=16711680*
%FSLAX45Y45*%
%MOMM*%
%TF.SameCoordinates,F9E8136A-E86D-4813-A5E9-63B8E08E304F*%
%TF.FilePolarity,Positive*%
%TF.FileFunction,Copper,L6,Bot,Signal*%
%TF.Part,Single*%
G01*
G75*
%TA.AperFunction,SMDPad,CuDef*%
%ADD13R,1.07000X0.83000*%
%ADD31R,0.72000X0.76000*%
%ADD38R,0.67500X0.45000*%
%ADD43R,0.76000X0.72000*%
%TA.AperFunction,Conductor*%
%ADD44C,0.30000*%
%ADD45C,0.20000*%
%TA.AperFunction,ComponentPad*%
%ADD48C,1.50000*%
%ADD49R,1.50000X1.50000*%
%TA.AperFunction,SMDPad,CuDef*%
%ADD50R,1.20000X1.20000*%
%TA.AperFunction,ComponentPad*%
%ADD51C,0.65000*%
%ADD52R,1.50000X1.50000*%
%TA.AperFunction,ViaPad*%
%ADD53R,2.52400X1.52400*%
%ADD54R,2.52400X1.52400*%
%ADD55C,0.45000*%
%ADD56C,0.50000*%
%TA.AperFunction,SMDPad,CuDef*%
%ADD57R,0.70000X0.75000*%
%ADD58R,0.75000X0.70000*%
%ADD59R,0.55000X0.60000*%
%TA.AperFunction,BGAPad,CuDef*%
%ADD60R,0.40000X0.40000*%
%TA.AperFunction,SMDPad,CuDef*%
%ADD61R,1.23000X1.23000*%
%ADD62R,0.30000X0.80000*%
%ADD63R,0.80000X0.30000*%
%ADD64R,0.50000X0.50000*%
%ADD65R,1.52400X1.82400*%
%ADD66R,0.60000X0.60000*%
%ADD67R,0.35000X0.80000*%
%ADD68R,0.85000X0.35000*%
%ADD69R,2.60000X2.70000*%
%ADD70R,0.50000X0.50000*%
G36*
X10522500Y4435000D02*
Y4365000D01*
X10495000Y4337500D01*
X10325761D01*
X10316340Y4346921D01*
X10299249Y4354000D01*
X10280751D01*
X10263660Y4346921D01*
X10254239Y4337500D01*
X9992500D01*
X9962500Y4367500D01*
Y4467500D01*
X9967500Y4472500D01*
X10485000D01*
X10522500Y4435000D01*
D02*
G37*
G36*
X11376000Y5761000D02*
X11399000D01*
X11410000Y5750000D01*
Y5740000D01*
X11470000D01*
X11480000Y5730000D01*
Y5690000D01*
X11470000Y5680000D01*
X11410000D01*
X11393574Y5663574D01*
X11382250Y5660250D01*
X11374999Y5658001D01*
Y5658000D01*
X11272000D01*
X11270000Y5660000D01*
Y5730000D01*
X11290000Y5750000D01*
Y5853500D01*
X11311500D01*
Y5870000D01*
X11376000D01*
Y5761000D01*
D02*
G37*
D13*
X10020000Y4428000D02*
D03*
Y4572000D02*
D03*
X10302500D02*
D03*
Y4428000D02*
D03*
X10162500Y4574500D02*
D03*
Y4430500D02*
D03*
D31*
X10747500Y7114000D02*
D03*
Y7016000D02*
D03*
X11252500Y6904000D02*
D03*
Y6806000D02*
D03*
X11315000Y5694000D02*
D03*
Y5596000D02*
D03*
X10110000Y5549000D02*
D03*
Y5451000D02*
D03*
D38*
X11440000Y5706250D02*
D03*
Y5613750D02*
D03*
D43*
X10391000Y5712500D02*
D03*
X10489000D02*
D03*
D44*
X10028500Y4572000D02*
X10302500D01*
X10020000D02*
X10028500D01*
X10302500D02*
X10305000Y4574500D01*
X10335500Y5600500D02*
Y5659000D01*
X10389000Y5712500D01*
X10391000D01*
X10335000Y5600000D02*
X10335500Y5600500D01*
X10210000Y4825000D02*
X10810608D01*
X10962534Y4830000D02*
X11005034Y4787500D01*
X10810608Y4825000D02*
X10815608Y4830000D01*
X9865000Y5170000D02*
X10210000Y4825000D01*
X10815608Y4830000D02*
X10962534D01*
X11397500Y4825000D02*
X11834500D01*
X11255000Y4787500D02*
X11257870Y4784630D01*
X11317870D01*
X11342500Y4880000D02*
X11397500Y4825000D01*
X10386000Y5775000D02*
X10388500Y5772500D01*
Y5715000D02*
X10391000Y5712500D01*
X10388500Y5715000D02*
Y5772500D01*
X11170000Y4791559D02*
X11207694Y4829253D01*
Y4866479D02*
X11215837Y4874622D01*
X11170000Y4787500D02*
Y4791559D01*
X11337501Y4765000D02*
X12028500D01*
X11209500Y4658000D02*
X12072821D01*
X11005034Y4787500D02*
X11007500D01*
X11317870Y4784630D02*
X11337501Y4765000D01*
X11207694Y4829253D02*
Y4866479D01*
X11080000Y4787500D02*
X11209500Y4658000D01*
X11834500Y4825000D02*
X12028500Y5019000D01*
X11215837Y4874622D02*
Y4895837D01*
X10585000Y5200000D02*
X10586456Y5198544D01*
Y5143956D02*
Y5198544D01*
Y5143956D02*
X10587912Y5142500D01*
X11215837Y4895837D02*
X11310450Y4990450D01*
X10160000Y4577000D02*
Y4640000D01*
X10305000Y4574500D02*
Y4637500D01*
X10055000Y4598500D02*
Y4635000D01*
X10028500Y4572000D02*
X10055000Y4598500D01*
X10480000Y5920000D02*
X10576800D01*
X10478750Y5918750D02*
X10480000Y5920000D01*
X10729500Y5952000D02*
X10807500D01*
X10692500Y5915000D02*
X10729500Y5952000D01*
X10695834Y6152500D02*
X10698334Y6150000D01*
X10807500D01*
X10087500Y5302500D02*
X10135000D01*
X10114630Y5609630D02*
X10117500Y5612500D01*
X10114630Y5553630D02*
Y5609630D01*
X10110000Y5549000D02*
X10114630Y5553630D01*
X10840370Y5509630D02*
X10870000Y5480000D01*
X10837500Y5532500D02*
X10840370Y5529630D01*
Y5509630D02*
Y5529630D01*
X10477500Y6152500D02*
X10567500D01*
X11840000Y6830000D02*
Y7051500D01*
X11479999Y6587499D02*
X11597500D01*
X11840000Y6830000D01*
X11117500Y5955777D02*
Y6467500D01*
X11585000Y6935000D01*
X11702500D01*
X11117500Y5955777D02*
X11177777Y5895500D01*
X11170000Y5969745D02*
Y6277500D01*
X11479999Y6587499D01*
X11370000Y7320000D02*
X11868000D01*
X11995000Y7193000D01*
X11285000Y7235000D02*
X11370000Y7320000D01*
X11702500Y7189000D02*
X11840000Y7051500D01*
X11213713Y5892500D02*
X11247500D01*
X11210712Y5895500D02*
X11213713Y5892500D01*
X11177777Y5895500D02*
X11210712D01*
X11219500Y5945500D02*
X11222500Y5942500D01*
X11247500D01*
X11170000Y5969745D02*
X11194245Y5945500D01*
X11219500D01*
X11310450Y4990450D02*
X11564266D01*
X9768750Y5318750D02*
X9770000Y5317500D01*
X9711250Y5318750D02*
X9768750D01*
X9710000Y5320000D02*
X9711250Y5318750D01*
X11996750Y7194750D02*
X12280750D01*
X11995000Y7193000D02*
X11996750Y7194750D01*
X11285000Y7167500D02*
Y7235000D01*
X11272500Y7155000D02*
X11285000Y7167500D01*
X12280750Y7194750D02*
X12282500Y7196500D01*
X9862500Y5225000D02*
X9863750Y5226250D01*
Y5316250D01*
X9865000Y5317500D01*
X10182500Y6897500D02*
X10183750Y6898750D01*
Y6963750D02*
X10185000Y6965000D01*
X10183750Y6898750D02*
Y6963750D01*
X11597870Y6109630D02*
X11627870D01*
X11640000Y6097500D01*
X11595000Y6112500D02*
X11597870Y6109630D01*
X10206745Y5475500D02*
X10262000D01*
X10199207Y5483038D02*
X10206745Y5475500D01*
X10189794Y5483038D02*
X10199207D01*
X10186924Y5485908D02*
X10189794Y5483038D01*
X10262000Y5475500D02*
X10262500Y5475000D01*
X10199520Y5425500D02*
X10262000D01*
X10262500Y5425000D01*
X10196612Y5428408D02*
X10199520Y5425500D01*
X10110000Y5449408D02*
Y5451000D01*
X10131000Y5428408D02*
X10196612D01*
X10110000Y5449408D02*
X10131000Y5428408D01*
X10180447Y5374500D02*
X10262000D01*
X10172795Y5370908D02*
X10176854D01*
X10180447Y5374500D01*
X11314823Y5537527D02*
Y5595823D01*
X11314646Y5537350D02*
X11314823Y5537527D01*
Y5595823D02*
X11315000Y5596000D01*
X11325249Y5606250D02*
X11432500D01*
X11315000Y5596000D02*
X11325249Y5606250D01*
X11432500D02*
X11440000Y5613750D01*
X10586250Y5601250D02*
Y5663750D01*
X10585000Y5600000D02*
X10586250Y5601250D01*
Y5663750D02*
X10587500Y5665000D01*
X10489000Y5712500D02*
X10493630Y5717130D01*
X10545630D02*
X10548500Y5720000D01*
X10493630Y5717130D02*
X10545630D01*
X10881250Y7106250D02*
X10928750D01*
X10880000Y7107500D02*
X10881250Y7106250D01*
X10928750D02*
X10930000Y7105000D01*
X11352404Y5992500D02*
X11359904Y6000000D01*
X11247500Y5992500D02*
X11352404D01*
X11415000Y6005000D02*
Y6110000D01*
Y6005000D02*
X11420000Y6000000D01*
Y5938604D02*
X11423896Y5942500D01*
X11532500D01*
X11368750Y7033750D02*
Y7153750D01*
X11367500Y7155000D02*
X11368750Y7153750D01*
Y7033750D02*
X11370000Y7032500D01*
X11253000Y6805500D02*
X11309500D01*
X11252500Y6806000D02*
X11253000Y6805500D01*
X11309500D02*
X11310000Y6805000D01*
X9863750Y5171250D02*
Y5223750D01*
Y5171250D02*
X9865000Y5170000D01*
X9862500Y5225000D02*
X9863750Y5223750D01*
X9767500Y5170000D02*
Y5225000D01*
X10022500Y4360000D02*
Y4425500D01*
X10020000Y4428000D02*
X10022500Y4425500D01*
X10157500Y4362500D02*
Y4425500D01*
X10162500Y4430500D01*
X10302500Y4428000D02*
X10314500D01*
X10341000Y4401500D01*
Y4378059D02*
Y4401500D01*
Y4378059D02*
X10345000Y4374059D01*
Y4370000D02*
Y4374059D01*
X11651250Y5781250D02*
X11652500Y5782500D01*
X11580000Y5780000D02*
X11581250Y5781250D01*
X11651250D01*
X10721441Y5325500D02*
X10725941Y5330000D01*
X10730000D01*
X10728403Y5259618D02*
X11572882D01*
X10658000Y5325500D02*
X10721441D01*
X10135000Y5157500D02*
Y5202500D01*
Y5302500D02*
X10145000Y5312500D01*
X10194745D02*
X10206745Y5324500D01*
X10145000Y5312500D02*
X10194745D01*
X10262000Y5374500D02*
X10262500Y5375000D01*
X10206745Y5324500D02*
X10262000D01*
X10660000Y5272500D02*
X10711462D01*
X10657500Y5325000D02*
X10658000Y5325500D01*
X10657500Y5275000D02*
X10660000Y5272500D01*
X10262000Y5324500D02*
X10262500Y5325000D01*
X10764500Y5474500D02*
X10770000Y5480000D01*
X10658000Y5474500D02*
X10764500D01*
X10657500Y5475000D02*
X10658000Y5474500D01*
X11547723Y6230000D02*
X11599634Y6281911D01*
X11425223Y6230000D02*
X11547723D01*
X11367134Y6171911D02*
X11425223Y6230000D01*
X11120000Y6822500D02*
Y6867500D01*
X10880000Y6947500D02*
X10880000Y6947500D01*
X10932500D01*
X10752130Y6952870D02*
Y7011370D01*
X10747500Y7016000D02*
X10752130Y7011370D01*
Y6952870D02*
X10755000Y6950000D01*
X10747500Y7114000D02*
Y7180000D01*
X10880000Y7027500D02*
X10932500D01*
X10881250Y6868750D02*
X10931250D01*
X10880000Y6867500D02*
X10881250Y6868750D01*
X10931250D02*
X10932500Y6870000D01*
X11312000Y6904500D02*
X11312500Y6905000D01*
X11253000Y6904500D02*
X11312000D01*
X11252500Y6904000D02*
X11253000Y6904500D01*
X11370000Y6972500D02*
Y7032500D01*
X11209000Y6947500D02*
X11229500Y6927000D01*
X11231500D02*
X11252500Y6906000D01*
X11120000Y6947500D02*
X11209000D01*
X11229500Y6927000D02*
X11231500D01*
X11252500Y6904000D02*
Y6906000D01*
X11699817Y5126000D02*
X12175500D01*
X12282500Y5019000D01*
X11564266Y4990450D02*
X11699817Y5126000D01*
X12072821Y4658000D02*
X12179821Y4765000D01*
X12282500D01*
X11572882Y5259618D02*
X11621250Y5211250D01*
X11118750Y7108750D02*
X11120000Y7107500D01*
X11255000Y7052500D02*
X11275000Y7032500D01*
X11231559Y7052500D02*
X11255000D01*
X11365000Y6110000D02*
Y6169777D01*
X11367134Y6171911D01*
X9850000Y6897500D02*
Y6970000D01*
D45*
X10182500Y6732500D02*
Y6802500D01*
X9852500Y6737500D02*
Y6800000D01*
X9850000Y6802500D02*
X9852500Y6800000D01*
X11530000Y6045000D02*
Y6080000D01*
Y6045000D02*
X11532500Y6042500D01*
X11465000Y6110000D02*
Y6135000D01*
X11510000Y6180000D02*
X11630000D01*
X11465000Y6135000D02*
X11510000Y6180000D01*
X11120000Y7027500D02*
X11270000D01*
X11275000Y7032500D01*
X11120000Y7107500D02*
X11167500Y7155000D01*
X11272500D01*
X11647500Y5892500D02*
X11652500Y5887500D01*
X11532500Y5892500D02*
X11647500D01*
X11532500Y5992500D02*
X11622500D01*
X11640000Y6010000D02*
Y6012500D01*
X11622500Y5992500D02*
X11640000Y6010000D01*
D48*
X11702500Y7189000D02*
D03*
X11995000Y6685000D02*
D03*
Y6939000D02*
D03*
Y7193000D02*
D03*
X12028500Y4765000D02*
D03*
X12282500Y5019000D02*
D03*
X12028500D02*
D03*
X12282500Y5273000D02*
D03*
X12028500D02*
D03*
X12270000Y5850000D02*
D03*
X12274000Y6140000D02*
D03*
Y5560000D02*
D03*
X12282500Y7196500D02*
D03*
Y6942500D02*
D03*
Y6688500D02*
D03*
X12028500Y3968500D02*
D03*
X12282500Y4222500D02*
D03*
X12028500D02*
D03*
X12282500Y4476500D02*
D03*
X12028500D02*
D03*
D49*
X11702500Y6935000D02*
D03*
X11995000Y6431000D02*
D03*
X12282500Y4765000D02*
D03*
Y6434500D02*
D03*
Y3968500D02*
D03*
D50*
X11002500Y5802500D02*
D03*
Y5637500D02*
D03*
D51*
X9732000Y6710000D02*
D03*
X10310000D02*
D03*
D52*
X12016000Y5850000D02*
D03*
X12020000Y6140000D02*
D03*
Y5560000D02*
D03*
D53*
X9342500Y5377500D02*
D03*
D54*
X9352500Y5620000D02*
D03*
D55*
X10665000Y4710000D02*
D03*
Y4767500D02*
D03*
X11392500Y6657500D02*
D03*
X10687500Y4882500D02*
D03*
X11255000Y4787500D02*
D03*
X11342500Y4880000D02*
D03*
X10386000Y5775000D02*
D03*
X9770000Y5637500D02*
D03*
X11170000Y4787500D02*
D03*
X10938717Y4772500D02*
D03*
X11080000Y4787500D02*
D03*
X11007500D02*
D03*
X10587912Y5142500D02*
D03*
X10502700Y4578600D02*
D03*
X11802500Y4155000D02*
D03*
X10160000Y4640000D02*
D03*
X10305000Y4637500D02*
D03*
X10055000Y4635000D02*
D03*
X10576800Y5920000D02*
D03*
X10807500Y5952000D02*
D03*
Y6150000D02*
D03*
X10712500Y6822500D02*
D03*
X10087500Y5302500D02*
D03*
X10117500Y5612500D02*
D03*
X12400007Y7000004D02*
D03*
Y6600004D02*
D03*
Y6200003D02*
D03*
Y5800003D02*
D03*
Y5400003D02*
D03*
Y4600002D02*
D03*
Y3800002D02*
D03*
X12300007Y6000003D02*
D03*
X12200007Y5400003D02*
D03*
Y3800002D02*
D03*
X12100007Y6000003D02*
D03*
X11900006Y5200003D02*
D03*
X11700006Y6800004D02*
D03*
X11600006Y5400003D02*
D03*
X11500006Y7200004D02*
D03*
X11400006Y4600002D02*
D03*
X11300006Y5200003D02*
D03*
X11200006Y4600002D02*
D03*
X11100006Y7200004D02*
D03*
X11000006Y7000004D02*
D03*
Y6200003D02*
D03*
Y4600002D02*
D03*
X11100006Y4400002D02*
D03*
X10800006Y5400003D02*
D03*
X10900006Y5200003D02*
D03*
X10800006Y3800002D02*
D03*
X10700006Y5600003D02*
D03*
X10600006Y4200002D02*
D03*
Y3800002D02*
D03*
X10400006Y4600002D02*
D03*
Y3800002D02*
D03*
X10300006Y7200004D02*
D03*
Y6800004D02*
D03*
X10200006Y6200003D02*
D03*
Y5800003D02*
D03*
Y3800002D02*
D03*
X10100005Y7200004D02*
D03*
X10000005Y7000004D02*
D03*
X10100005Y6800004D02*
D03*
Y6000003D02*
D03*
Y4800003D02*
D03*
X10000005Y3800002D02*
D03*
X9900005Y7200004D02*
D03*
X9800005Y5000003D02*
D03*
Y3800002D02*
D03*
X9700005Y7200004D02*
D03*
Y6800004D02*
D03*
X9600005Y3800002D02*
D03*
X9500005Y6400003D02*
D03*
X9400005Y6200003D02*
D03*
X9500005Y5200003D02*
D03*
Y4400002D02*
D03*
X9400005Y3800002D02*
D03*
X9300005Y7200004D02*
D03*
X9200005Y7000004D02*
D03*
X9300005Y6800004D02*
D03*
X9200005Y6600004D02*
D03*
X9300005Y6400003D02*
D03*
X9200005Y6200003D02*
D03*
X9300005Y6000003D02*
D03*
X9200005Y5800003D02*
D03*
Y5000003D02*
D03*
Y4600002D02*
D03*
Y3800002D02*
D03*
X10567500Y6152500D02*
D03*
X11649646Y5609850D02*
D03*
X10695000Y4155000D02*
D03*
Y4232500D02*
D03*
X10837500Y5532500D02*
D03*
X11002500Y5555000D02*
D03*
X11170000D02*
D03*
Y5720000D02*
D03*
X11002500D02*
D03*
X10835000Y5717500D02*
D03*
X11702500Y6402500D02*
D03*
X11798350Y4936051D02*
D03*
X10770000Y4605000D02*
D03*
X9710000Y5320000D02*
D03*
X10090000Y6270000D02*
D03*
X9995176Y6697419D02*
D03*
X10185000Y6965000D02*
D03*
X10097190Y6699500D02*
D03*
X10182500Y6732500D02*
D03*
X9852500Y6737500D02*
D03*
X9900000Y5985000D02*
D03*
X11800500Y3992500D02*
D03*
X11595000Y6112500D02*
D03*
X10186924Y5485908D02*
D03*
X10172795Y5370908D02*
D03*
X9688918Y4046710D02*
D03*
X9748918D02*
D03*
X9808917D02*
D03*
X9807227Y4636687D02*
D03*
X9747227D02*
D03*
X9687228D02*
D03*
X9807227Y4576687D02*
D03*
X9747227D02*
D03*
X9687228D02*
D03*
X11314646Y5537350D02*
D03*
X10770000Y4682500D02*
D03*
X10587500Y5665000D02*
D03*
X10548500Y5720000D02*
D03*
X10885000Y6770000D02*
D03*
X10930000Y7105000D02*
D03*
X10535000Y7175000D02*
D03*
X10537500Y6777500D02*
D03*
X10342500Y6520000D02*
D03*
X9702500Y6515000D02*
D03*
X9507500Y7170000D02*
D03*
Y6780000D02*
D03*
X11310000Y6805000D02*
D03*
X10825000Y6560000D02*
D03*
X9793938Y6367379D02*
D03*
X9623938Y6382379D02*
D03*
X9808938Y5994879D02*
D03*
X9726438Y5997379D02*
D03*
X9485000Y4087500D02*
D03*
X11731842Y4268159D02*
D03*
X9267500Y4145000D02*
D03*
X10680000Y4425000D02*
D03*
X10390000Y4767500D02*
D03*
X9952500Y3967500D02*
D03*
X10260000Y4137500D02*
D03*
X10290000Y4307500D02*
D03*
X11420000Y5938604D02*
D03*
Y6000000D02*
D03*
X11359904D02*
D03*
Y5938604D02*
D03*
X9865000Y5170000D02*
D03*
X9767500D02*
D03*
X10022500Y4360000D02*
D03*
X10157500Y4362500D02*
D03*
X10345000Y4370000D02*
D03*
X11580000Y5780000D02*
D03*
X10730000Y5330000D02*
D03*
X10728403Y5259618D02*
D03*
X10135000Y5157500D02*
D03*
X11120000Y6822500D02*
D03*
X10932500Y6947500D02*
D03*
X10755000Y6950000D02*
D03*
X10747500Y7180000D02*
D03*
X10932500Y7027500D02*
D03*
X11312500Y6905000D02*
D03*
X11370000Y6972500D02*
D03*
X10932500Y6870000D02*
D03*
X11210000Y7065000D02*
D03*
X11599634Y6281911D02*
D03*
X11621250Y5128750D02*
D03*
X11621250Y5211250D02*
D03*
X11620000Y5710000D02*
D03*
X11530000Y6080000D02*
D03*
X11367134Y6171911D02*
D03*
X11630000Y6180000D02*
D03*
X9850000Y6970000D02*
D03*
D56*
X10405000Y5345000D02*
D03*
Y5455000D02*
D03*
X10515000D02*
D03*
Y5345000D02*
D03*
D57*
X9850000Y6897500D02*
D03*
Y6802500D02*
D03*
X10182500Y6897500D02*
D03*
Y6802500D02*
D03*
D58*
X11272500Y7155000D02*
D03*
X11367500D02*
D03*
X11275000Y7032500D02*
D03*
X11370000D02*
D03*
X9770000Y5317500D02*
D03*
X9767500Y5225000D02*
D03*
X9865000Y5317500D02*
D03*
X9862500Y5225000D02*
D03*
D59*
X11640000Y6097500D02*
D03*
Y6012500D02*
D03*
D60*
X11120000Y6867500D02*
D03*
Y6947500D02*
D03*
Y7027500D02*
D03*
Y7107500D02*
D03*
X10880000D02*
D03*
Y7027500D02*
D03*
Y6947500D02*
D03*
Y6867500D02*
D03*
D61*
X11390000Y5967500D02*
D03*
D62*
X11465000Y6110000D02*
D03*
X11415000D02*
D03*
X11365000D02*
D03*
X11315000D02*
D03*
Y5825000D02*
D03*
X11365000D02*
D03*
X11415000D02*
D03*
X11465000D02*
D03*
D63*
X11247500Y6042500D02*
D03*
Y5992500D02*
D03*
Y5942500D02*
D03*
Y5892500D02*
D03*
X11532500D02*
D03*
Y5942500D02*
D03*
Y5992500D02*
D03*
Y6042500D02*
D03*
D64*
X10770000Y5480000D02*
D03*
X10870000D02*
D03*
D65*
X10692500Y5915000D02*
D03*
X10478750Y5918750D02*
D03*
X10695834Y6152500D02*
D03*
X10477500Y6152500D02*
D03*
D66*
X11652500Y5887500D02*
D03*
Y5782500D02*
D03*
D67*
X10585000Y5200000D02*
D03*
X10535000D02*
D03*
X10485000D02*
D03*
X10435000D02*
D03*
X10385000D02*
D03*
X10335000D02*
D03*
X10585000Y5600000D02*
D03*
X10535000D02*
D03*
X10485000D02*
D03*
X10435000D02*
D03*
X10385000D02*
D03*
X10335000D02*
D03*
D68*
X10262500Y5275000D02*
D03*
Y5325000D02*
D03*
Y5375000D02*
D03*
Y5425000D02*
D03*
Y5475000D02*
D03*
Y5525000D02*
D03*
X10657500Y5275000D02*
D03*
Y5325000D02*
D03*
Y5375000D02*
D03*
Y5425000D02*
D03*
Y5475000D02*
D03*
Y5525000D02*
D03*
D69*
X10460000Y5400000D02*
D03*
D70*
X10135000Y5202500D02*
D03*
Y5302500D02*
D03*
%TF.MD5,d51819caeb8448e0f432c5927e5fba0d*%
M02*
