%TF.GenerationSoftware,Altium Limited,Altium Designer,23.1.1 (15)*%
G04 Layer_Color=16711935*
%FSLAX45Y45*%
%MOMM*%
%TF.SameCoordinates,F9E8136A-E86D-4813-A5E9-63B8E08E304F*%
%TF.FilePolarity,Negative*%
%TF.FileFunction,Soldermask,Bot*%
%TF.Part,Single*%
G01*
G75*
%TA.AperFunction,SMDPad,CuDef*%
%ADD38R,0.67500X0.45000*%
%TA.AperFunction,ComponentPad*%
%ADD51C,0.65000*%
%TA.AperFunction,SMDPad,CuDef*%
%ADD61R,1.23000X1.23000*%
%ADD62R,0.30000X0.80000*%
%ADD63R,0.80000X0.30000*%
%ADD64R,0.50000X0.50000*%
%ADD66R,0.60000X0.60000*%
%ADD70R,0.50000X0.50000*%
%ADD78R,1.17000X0.93000*%
%TA.AperFunction,ComponentPad*%
%ADD104C,1.70320*%
%ADD105R,1.70320X1.70320*%
%TA.AperFunction,SMDPad,CuDef*%
%ADD106R,1.30000X1.30000*%
%TA.AperFunction,ComponentPad*%
%ADD107R,1.70320X1.70320*%
%TA.AperFunction,ViaPad*%
%ADD108R,2.72720X1.72720*%
%ADD109R,2.72720X1.72720*%
%TA.AperFunction,SMDPad,CuDef*%
%ADD110R,0.80000X0.85000*%
%ADD111R,0.82000X0.86000*%
%ADD112R,0.85000X0.80000*%
%ADD113R,0.65000X0.70000*%
%ADD114R,0.86000X0.82000*%
%TA.AperFunction,BGAPad,CuDef*%
%ADD115R,0.50000X0.50000*%
%TA.AperFunction,SMDPad,CuDef*%
%ADD116R,1.72720X2.02720*%
%ADD117R,0.39000X0.84000*%
%ADD118R,0.89000X0.39000*%
%ADD119R,2.64000X2.74000*%
D38*
X11440000Y5706250D02*
D03*
Y5613750D02*
D03*
D51*
X9732000Y6710000D02*
D03*
X10310000D02*
D03*
D61*
X11390000Y5967500D02*
D03*
D62*
X11465000Y6110000D02*
D03*
X11415000D02*
D03*
X11365000D02*
D03*
X11315000D02*
D03*
Y5825000D02*
D03*
X11365000D02*
D03*
X11415000D02*
D03*
X11465000D02*
D03*
D63*
X11247500Y6042500D02*
D03*
Y5992500D02*
D03*
Y5942500D02*
D03*
Y5892500D02*
D03*
X11532500D02*
D03*
Y5942500D02*
D03*
Y5992500D02*
D03*
Y6042500D02*
D03*
D64*
X10770000Y5480000D02*
D03*
X10870000D02*
D03*
D66*
X11652500Y5887500D02*
D03*
Y5782500D02*
D03*
D70*
X10135000Y5202500D02*
D03*
Y5302500D02*
D03*
D78*
X10020000Y4428000D02*
D03*
Y4572000D02*
D03*
X10302500D02*
D03*
Y4428000D02*
D03*
X10162500Y4574500D02*
D03*
Y4430500D02*
D03*
D104*
X11702500Y7189000D02*
D03*
X11995000Y6685000D02*
D03*
Y6939000D02*
D03*
Y7193000D02*
D03*
X12028500Y4765000D02*
D03*
X12282500Y5019000D02*
D03*
X12028500D02*
D03*
X12282500Y5273000D02*
D03*
X12028500D02*
D03*
X12270000Y5850000D02*
D03*
X12274000Y6140000D02*
D03*
Y5560000D02*
D03*
X12282500Y7196500D02*
D03*
Y6942500D02*
D03*
Y6688500D02*
D03*
X12028500Y3968500D02*
D03*
X12282500Y4222500D02*
D03*
X12028500D02*
D03*
X12282500Y4476500D02*
D03*
X12028500D02*
D03*
D105*
X11702500Y6935000D02*
D03*
X11995000Y6431000D02*
D03*
X12282500Y4765000D02*
D03*
Y6434500D02*
D03*
Y3968500D02*
D03*
D106*
X11002500Y5802500D02*
D03*
Y5637500D02*
D03*
D107*
X12016000Y5850000D02*
D03*
X12020000Y6140000D02*
D03*
Y5560000D02*
D03*
D108*
X9342500Y5377500D02*
D03*
D109*
X9352500Y5620000D02*
D03*
D110*
X9850000Y6897500D02*
D03*
Y6802500D02*
D03*
X10182500Y6897500D02*
D03*
Y6802500D02*
D03*
D111*
X10747500Y7114000D02*
D03*
Y7016000D02*
D03*
X11252500Y6904000D02*
D03*
Y6806000D02*
D03*
X11315000Y5694000D02*
D03*
Y5596000D02*
D03*
X10110000Y5549000D02*
D03*
Y5451000D02*
D03*
D112*
X11272500Y7155000D02*
D03*
X11367500D02*
D03*
X11275000Y7032500D02*
D03*
X11370000D02*
D03*
X9770000Y5317500D02*
D03*
X9767500Y5225000D02*
D03*
X9865000Y5317500D02*
D03*
X9862500Y5225000D02*
D03*
D113*
X11640000Y6097500D02*
D03*
Y6012500D02*
D03*
D114*
X10391000Y5712500D02*
D03*
X10489000D02*
D03*
D115*
X11120000Y6867500D02*
D03*
Y6947500D02*
D03*
Y7027500D02*
D03*
Y7107500D02*
D03*
X10880000D02*
D03*
Y7027500D02*
D03*
Y6947500D02*
D03*
Y6867500D02*
D03*
D116*
X10692500Y5915000D02*
D03*
X10478750Y5918750D02*
D03*
X10695834Y6152500D02*
D03*
X10477500Y6152500D02*
D03*
D117*
X10585000Y5200000D02*
D03*
X10535000D02*
D03*
X10485000D02*
D03*
X10435000D02*
D03*
X10385000D02*
D03*
X10335000D02*
D03*
X10585000Y5600000D02*
D03*
X10535000D02*
D03*
X10485000D02*
D03*
X10435000D02*
D03*
X10385000D02*
D03*
X10335000D02*
D03*
D118*
X10262500Y5275000D02*
D03*
Y5325000D02*
D03*
Y5375000D02*
D03*
Y5425000D02*
D03*
Y5475000D02*
D03*
Y5525000D02*
D03*
X10657500Y5275000D02*
D03*
Y5325000D02*
D03*
Y5375000D02*
D03*
Y5425000D02*
D03*
Y5475000D02*
D03*
Y5525000D02*
D03*
D119*
X10460000Y5400000D02*
D03*
%TF.MD5,1769d5238f5fcc37c0af65517bee6d1a*%
M02*
